SplineFontDB: 3.0
FontName: Autopia-Italic
FullName: Autopia Italic
FamilyName: Autopia
Weight: Book
Copyright: Copyright (C) 2014 - Antoine Gelgon (Luuse) - http://luuse.io/\nAutopia font family is under SIL Open Font License (OFL)
Version: V.1.0
ItalicAngle: -104
UnderlinePosition: -256
UnderlineWidth: 102
Ascent: 1638
Descent: 410
InvalidEm: 0
sfntRevision: 0x00010000
LayerCount: 2
Layer: 0 1 "Arri+AOgA-re" 1
Layer: 1 1 "Avant" 0
XUID: [1021 327 -1103567284 13152556]
StyleMap: 0x0001
FSType: 8
OS2Version: 3
OS2_WeightWidthSlopeOnly: 0
OS2_UseTypoMetrics: 0
CreationTime: 1391727600
ModificationTime: 1548637358
PfmFamily: 17
TTFWeight: 400
TTFWidth: 5
LineGap: 0
VLineGap: 0
Panose: 2 2 5 0 0 0 0 0 0 0
OS2TypoAscent: 1552
OS2TypoAOffset: 0
OS2TypoDescent: -497
OS2TypoDOffset: 0
OS2TypoLinegap: 270
OS2WinAscent: 1829
OS2WinAOffset: 0
OS2WinDescent: 496
OS2WinDOffset: 0
HheadAscent: 1829
HheadAOffset: 0
HheadDescent: -496
HheadDOffset: 0
OS2SubXSize: 768
OS2SubYSize: 1024
OS2SubXOff: 0
OS2SubYOff: 512
OS2SupXSize: 768
OS2SupYSize: 1024
OS2SupXOff: 0
OS2SupYOff: 1024
OS2StrikeYSize: 102
OS2StrikeYPos: 657
OS2CapHeight: 1454
OS2XHeight: 977
OS2Vendor: '    '
OS2CodePages: 20000111.40000000
OS2UnicodeRanges: 8000002f.10002048.00000000.00000000
Lookup: 258 0 0 "'kern' Horizontal Kerning lookup 0" { "'kern' Horizontal Kerning lookup 0 subtable"  } ['kern' ('DFLT' <'dflt' > ) ]
MarkAttachClasses: 1
DEI: 91125
TtTable: prep
PUSHW_1
 0
CALL
SVTCA[y-axis]
PUSHW_3
 1
 3
 2
CALL
SVTCA[x-axis]
PUSHW_3
 4
 3
 2
CALL
SVTCA[x-axis]
PUSHW_8
 4
 64
 52
 41
 29
 15
 0
 8
CALL
PUSHW_8
 5
 52
 39
 31
 22
 15
 0
 8
CALL
PUSHW_8
 6
 46
 39
 31
 22
 15
 0
 8
CALL
SVTCA[y-axis]
PUSHW_8
 1
 153
 125
 97
 70
 42
 0
 8
CALL
PUSHW_8
 2
 50
 39
 31
 22
 15
 0
 8
CALL
PUSHW_8
 3
 44
 39
 31
 22
 15
 0
 8
CALL
SVTCA[y-axis]
PUSHW_3
 7
 4
 7
CALL
PUSHW_1
 0
DUP
RCVT
RDTG
ROUND[Black]
RTG
WCVTP
EndTTInstrs
TtTable: fpgm
PUSHW_1
 0
FDEF
MPPEM
PUSHW_1
 8
LT
IF
PUSHB_2
 1
 1
INSTCTRL
EIF
PUSHW_1
 511

StartChar: greater
Encoding: 33 33 4
Width: 491
Flags: W
LayerCount: 2
Fore
SplineSet
649 1403 m 1,0,1
 606.956810631 1344.13953488 606.956810631 1344.13953488 592.978405316 1275.06976744 c 128,-1,2
 579 1206 579 1206 573 1163.5 c 128,-1,3
 567 1121 567 1121 548 1027 c 128,-1,4
 529 933 529 933 496.5 787.5 c 128,-1,5
 464 642 464 642 435 493 c 1,6,-1
 257 432 l 1,7,8
 285 581 285 581 317.5 726.5 c 128,-1,9
 350 872 350 872 370 966.5 c 128,-1,10
 390 1061 390 1061 396 1104.5 c 128,-1,11
 402 1148 402 1148 410.5 1190.5 c 0,12,13
 429.741573034 1286.70786517 429.741573034 1286.70786517 473 1349 c 1,14,-1
 649 1403 l 1,0,1
258 -25 m 1,15,16
 203 -23 203 -23 174 10 c 0,17,18
 141 43 141 43 141 100.5 c 128,-1,19
 141 158 141 158 178 194.5 c 128,-1,20
 215 231 215 231 273.5 231 c 128,-1,21
 332 231 332 231 362 199 c 0,22,23
 391 164 391 164 391 117 c 0,24,25
 387 -20 387 -20 258 -25 c 1,15,16
EndSplineSet
EndChar

StartChar: question
Encoding: 34 34 5
Width: 823
Flags: W
LayerCount: 2
Fore
SplineSet
367 981 m 1,0,1
 393 1085 393 1085 416 1189 c 128,-1,2
 439 1293 439 1293 465 1398 c 1,3,-1
 643 1459 l 1,4,5
 617 1355 617 1355 594 1251 c 128,-1,6
 571 1147 571 1147 545 1042 c 1,7,-1
 367 981 l 1,0,1
711 981 m 1,8,9
 737 1085 737 1085 760 1189 c 128,-1,10
 783 1293 783 1293 809 1398 c 1,11,-1
 987 1459 l 1,12,13
 961 1355 961 1355 938 1251 c 128,-1,14
 915 1147 915 1147 889 1042 c 1,15,-1
 711 981 l 1,8,9
EndSplineSet
EndChar

StartChar: at
Encoding: 35 35 6
Width: 1085
Flags: W
LayerCount: 2
Fore
SplineSet
1265 939 m 1,0,1
 1136.13636364 869.045454545 1136.13636364 869.045454545 1124 865 c 1,2,-1
 1073 862 l 1,3,-1
 1051 860 l 1,4,5
 1044 822 1044 822 1032.5 785.5 c 128,-1,6
 1021 749 1021 749 1009.5 712 c 0,7,8
 980.202380952 617.738095238 980.202380952 617.738095238 973 563 c 1,9,-1
 964 560 l 1,10,-1
 1136 560 l 1,11,-1
 995 486 l 1,12,-1
 922 486 l 1,13,14
 914 444 914 444 900 405 c 128,-1,15
 886 366 886 366 869 313 c 128,-1,16
 852 260 852 260 828.5 194.5 c 128,-1,17
 805 129 805 129 784 62 c 1,18,-1
 606 1 l 1,19,20
 620 45 620 45 635 87.5 c 128,-1,21
 650 130 650 130 663 167.5 c 128,-1,22
 676 205 676 205 685 236.5 c 128,-1,23
 694 268 694 268 709 305.5 c 0,24,25
 747.903614458 402.759036145 747.903614458 402.759036145 753 486 c 1,26,-1
 539 486 l 1,27,28
 521.924791086 405.746518106 521.924791086 405.746518106 490.962395543 323.873259053 c 128,-1,29
 460 242 460 242 440.5 179 c 128,-1,30
 421 116 421 116 395 55 c 1,31,-1
 219 1 l 1,32,33
 245 61 245 61 264 123.5 c 128,-1,34
 283 186 283 186 304.5 245.5 c 0,35,36
 361.026191723 401.932949188 361.026191723 401.932949188 369 483 c 1,37,38
 325 481 325 481 282.5 483.5 c 128,-1,39
 240 486 240 486 195 486 c 1,40,-1
 336 560 l 1,41,42
 373 560 373 560 413 556 c 1,43,44
 420.733333333 599.306666667 420.733333333 599.306666667 437.366666667 642.153333333 c 0,45,46
 490.673452488 779.469049755 490.673452488 779.469049755 492.336726244 812.734524878 c 128,-1,47
 494 846 494 846 506 863 c 1,48,-1
 498 860 l 1,49,50
 467 874 467 874 431 872 c 128,-1,51
 395 870 395 870 373.5 868 c 0,52,53
 341.25 865 341.25 865 324 865 c 1,54,-1
 465 939 l 1,55,56
 493 939 493 939 543 944 c 1,57,58
 549.153846154 977.846153846 549.153846154 977.846153846 574.076923077 1042.92307692 c 128,-1,59
 599 1108 599 1108 605 1127 c 128,-1,60
 611 1146 611 1146 617 1162 c 128,-1,61
 623 1178 623 1178 631.5 1202 c 0,62,63
 645.3125 1241 645.3125 1241 670 1320 c 1,64,-1
 848 1381 l 1,65,66
 820.65625 1293.5 820.65625 1293.5 784 1190 c 2,67,-1
 745 1078 l 2,68,69
 746 1080 746 1080 744.5 1074 c 128,-1,70
 743 1068 743 1068 741 1062.5 c 128,-1,71
 739 1057 739 1057 735.5 1050 c 128,-1,72
 732 1043 732 1043 729.5 1034 c 128,-1,73
 727 1025 727 1025 723 1014 c 128,-1,74
 719 1003 719 1003 717 991 c 0,75,76
 709 943 709 943 725.5 938.5 c 0,77,78
 736.75 935.431818182 736.75 935.431818182 745.375 936.215909091 c 128,-1,79
 754 937 754 937 757 937 c 2,80,-1
 765 937 l 1,81,82
 775 939 775 939 779 939 c 2,83,-1
 935 939 l 1,84,85
 937 953 937 953 938 966.5 c 128,-1,86
 939 980 939 980 945 1001.5 c 128,-1,87
 951 1023 951 1023 961.5 1050 c 128,-1,88
 972 1077 972 1077 987 1118 c 0,89,90
 1036.9704142 1254.58579882 1036.9704142 1254.58579882 1056 1320 c 1,91,-1
 1234 1381 l 1,92,93
 1216 1318 1216 1318 1193 1258 c 128,-1,94
 1170 1198 1170 1198 1157 1159.5 c 128,-1,95
 1144 1121 1144 1121 1134.5 1097.5 c 128,-1,96
 1125 1074 1125 1074 1121.5 1058.5 c 128,-1,97
 1118 1043 1118 1043 1117 1028 c 128,-1,98
 1116 1013 1116 1013 1114 998 c 0,99,100
 1109.2345679 962.259259259 1109.2345679 962.259259259 1098 943 c 1,101,102
 1139.19266055 926.52293578 1139.19266055 926.52293578 1191.59633028 932.76146789 c 128,-1,103
 1244 939 1244 939 1265 939 c 1,0,1
599 645 m 0,104,105
 575.486486486 569.756756757 575.486486486 569.756756757 597 559 c 1,106,-1
 805 559 l 1,107,108
 814 597 814 597 826.5 634.5 c 128,-1,109
 839 672 839 672 850.5 709 c 0,110,111
 878.889185581 800.339118825 878.889185581 800.339118825 882 861 c 1,112,113
 838.578947368 869.684210526 838.578947368 869.684210526 777.789473684 867.842105263 c 128,-1,114
 717 866 717 866 666 865 c 1,115,116
 661.969230769 820.661538462 661.969230769 820.661538462 644.984615385 777.830769231 c 128,-1,117
 628 735 628 735 619.5 713 c 128,-1,118
 611 691 611 691 607.5 675 c 128,-1,119
 604 659 604 659 599 645 c 0,104,105
1131 867 m 1,120,121
 1130 867 1130 867 1129 866.5 c 1,122,123
 1130.17157288 866.864381917 1130.17157288 866.864381917 1131 867 c 1,120,121
EndSplineSet
EndChar

StartChar: A
Encoding: 36 36 7
Width: 1085
Flags: W
LayerCount: 2
Fore
SplineSet
941 1390 m 1,0,1
 956.459459459 1384.37837838 956.459459459 1384.37837838 989.22972973 1383.18918919 c 128,-1,2
 1022 1382 1022 1382 1057 1367.5 c 128,-1,3
 1092 1353 1092 1353 1121.5 1329 c 0,4,5
 1184.88977342 1277.42865891 1184.88977342 1277.42865891 1203 1207 c 1,6,-1
 1025 1146 l 1,7,8
 1000.39440373 1231.17321785 1000.39440373 1231.17321785 912 1282 c 1,9,-1
 901 1228 l 2,10,11
 893 1190 893 1190 884 1153 c 128,-1,12
 875 1116 875 1116 867 1081.5 c 128,-1,13
 859 1047 859 1047 851 1016 c 128,-1,14
 843 985 843 985 837.5 959.5 c 128,-1,15
 832 934 832 934 829.5 911.5 c 128,-1,16
 827 889 827 889 821.5 866.5 c 0,17,18
 807.985007496 811.211394303 807.985007496 811.211394303 780 791 c 2,19,-1
 758 775 l 1,20,-1
 775 782 l 1,21,22
 791.928571429 748.142857143 791.928571429 748.142857143 813.464285714 738.571428571 c 128,-1,23
 835 729 835 729 850.5 724.5 c 128,-1,24
 866 720 866 720 881.5 713.5 c 128,-1,25
 897 707 897 707 910 697.5 c 128,-1,26
 923 688 923 688 934 680 c 0,27,28
 1025 612 1025 612 1053.5 529 c 0,29,30
 1089.84031621 423.166798419 1089.84031621 423.166798419 1051 290 c 0,31,32
 994.448106904 96.1077951002 994.448106904 96.1077951002 725 19.5 c 0,33,34
 674 5 674 5 622 -2 c 1,35,36
 615.01980198 -63.4257425743 615.01980198 -63.4257425743 585 -176 c 1,37,-1
 407 -237 l 1,38,39
 444.312977099 -101.740458015 444.312977099 -101.740458015 449 -8 c 1,40,41
 436 -6 436 -6 424 -4.5 c 128,-1,42
 412 -3 412 -3 391.5 1 c 0,43,44
 266.000615764 25.4876847291 266.000615764 25.4876847291 188.5 112 c 0,45,46
 140.76337262 165.287398005 140.76337262 165.287398005 135 221 c 1,47,-1
 313 282 l 1,48,49
 318.914572864 228.768844221 318.914572864 228.768844221 386 159 c 0,50,51
 426 119 426 119 480 95 c 1,52,53
 489.894736842 142 489.894736842 142 499.447368421 184 c 128,-1,54
 509 226 509 226 521 282 c 128,-1,55
 533 338 533 338 543 378.5 c 128,-1,56
 553 419 553 419 557.5 447 c 128,-1,57
 562 475 562 475 567 502.5 c 0,58,59
 584.57591623 599.167539267 584.57591623 599.167539267 605.287958115 627.083769634 c 128,-1,60
 626 655 626 655 639 670 c 1,61,62
 613.054054054 685.135135135 613.054054054 685.135135135 599 715 c 1,63,-1
 615 721 l 1,64,65
 562.2 708.2 562.2 708.2 492 755 c 0,66,67
 330 865 330 865 358 1058 c 0,68,69
 377.703865337 1190.01589776 377.703865337 1190.01589776 487 1273 c 0,70,71
 593.339071856 1353.19011976 593.339071856 1353.19011976 771 1382 c 1,72,73
 778.625 1458.25 778.625 1458.25 793 1487 c 1,74,-1
 968 1540 l 1,75,-1
 968 1542 l 2,76,77
 968 1545 968 1545 969.5 1547 c 128,-1,78
 971 1549 971 1549 971 1546.5 c 128,-1,79
 971 1544 971 1544 970 1542 c 2,80,-1
 959 1499 l 2,81,82
 956.4375 1486.1875 956.4375 1486.1875 953.71875 1458.09375 c 0,83,84
 949.351648352 1412.96703297 949.351648352 1412.96703297 941 1390 c 1,0,1
643 61 m 1,85,86
 703 59 703 59 759 73 c 1,87,88
 826.39261745 104.922818792 826.39261745 104.922818792 864 207 c 0,89,90
 948.130094044 446.106583072 948.130094044 446.106583072 784 592 c 0,91,92
 777 597 777 597 771 603 c 128,-1,93
 765 609 765 609 757 614 c 1,94,95
 746 576 746 576 740 536 c 128,-1,96
 734 496 734 496 725 456 c 2,97,-1
 675 230 l 2,98,99
 666 188 666 188 656 147 c 128,-1,100
 646 106 646 106 646 62 c 1,101,-1
 643 61 l 1,85,86
649 835 m 1,102,103
 659.239130435 911.793478261 659.239130435 911.793478261 696.119565217 1057.89673913 c 128,-1,104
 733 1204 733 1204 747 1312 c 1,105,-1
 733 1315 l 2,106,107
 732 1315 732 1315 731 1316 c 1,108,-1
 707 1316 l 1,109,110
 692 1315 692 1315 677 1314 c 128,-1,111
 662 1313 662 1313 647 1310 c 1,112,113
 566.854271357 1261.13065327 566.854271357 1261.13065327 540 1147 c 0,114,115
 494.465116279 953.476744186 494.465116279 953.476744186 649 835 c 1,102,103
736 793 m 258,116,-1
 736 792.5 l 1,117,118
 737 793 737 793 736 793 c 258,116,-1
EndSplineSet
EndChar

StartChar: B
Encoding: 37 37 8
Width: 1692
Flags: W
LayerCount: 2
Fore
SplineSet
1357 1308 m 1,0,-1
 1446 1311 l 1,1,2
 1451 1316 1451 1316 1455.5 1322 c 128,-1,3
 1460 1328 1460 1328 1467 1336 c 128,-1,4
 1474 1344 1474 1344 1484.5 1354.5 c 128,-1,5
 1495 1365 1495 1365 1505 1376 c 1,6,-1
 1674 1421 l 1,7,8
 1656 1404 1656 1404 1640 1385 c 128,-1,9
 1624 1366 1624 1366 1607 1349 c 2,10,-1
 1589 1332 l 2,11,12
 1585 1328 1585 1328 1583 1327 c 0,13,14
 1573.8 1317.8 1573.8 1317.8 1563.4 1311.4 c 128,-1,15
 1553 1305 1553 1305 1546.5 1300.5 c 0,16,17
 1537.4 1294.2 1537.4 1294.2 1531 1291 c 1,18,19
 1520.33333333 1282.11111111 1520.33333333 1282.11111111 1513.66666667 1262.05555556 c 128,-1,20
 1507 1242 1507 1242 1496.5 1221.5 c 128,-1,21
 1486 1201 1486 1201 1472.5 1182 c 128,-1,22
 1459 1163 1459 1163 1444 1145 c 128,-1,23
 1429 1127 1429 1127 1397 1088 c 0,24,25
 1310.86466165 983.022556391 1310.86466165 983.022556391 1223.93233083 884.011278195 c 128,-1,26
 1137 785 1137 785 1062 695 c 128,-1,27
 987 605 987 605 895 497.5 c 0,28,29
 620.566512948 176.830436325 620.566512948 176.830436325 496 12 c 1,30,-1
 320 -42 l 1,31,32
 450.272676683 131.262659989 450.272676683 131.262659989 641.636338342 353.631329994 c 128,-1,33
 833 576 833 576 923 682.5 c 128,-1,34
 1013 789 1013 789 1082.5 871 c 128,-1,35
 1152 953 1152 953 1199.5 1008.5 c 128,-1,36
 1247 1064 1247 1064 1273.5 1099.5 c 128,-1,37
 1300 1135 1300 1135 1308.5 1145.5 c 128,-1,38
 1317 1156 1317 1156 1323.5 1167.5 c 128,-1,39
 1330 1179 1330 1179 1331.5 1191.5 c 0,40,41
 1333.51219512 1208.26829268 1333.51219512 1208.26829268 1344 1224 c 1,42,43
 1320.66666667 1238 1320.66666667 1238 1281.5 1238 c 1,44,-1
 1216 1234 l 1,45,-1
 956 1233 l 1,46,47
 948.426091987 926.256725485 948.426091987 926.256725485 845 800.5 c 0,48,49
 751.077317187 686.298556125 751.077317187 686.298556125 554 639 c 0,50,51
 377.335423197 594.833855799 377.335423197 594.833855799 311.5 713 c 0,52,53
 272.881808473 782.314702741 272.881808473 782.314702741 268.940904236 846.157351371 c 128,-1,54
 265 910 265 910 272.5 951 c 128,-1,55
 280 992 280 992 294 1042.5 c 128,-1,56
 308 1093 308 1093 329.5 1141 c 0,57,58
 402.802697121 1304.65253311 402.802697121 1304.65253311 546.5 1363.5 c 0,59,60
 680.849974658 1418.51951343 680.849974658 1418.51951343 757.924987329 1414.75975672 c 0,61,62
 875.022516556 1409.04768212 875.022516556 1409.04768212 918 1341 c 0,63,64
 930 1322 930 1322 940 1303 c 1,65,66
 985.979865772 1313.61073826 985.979865772 1313.61073826 1101 1308 c 1,67,-1
 1357 1308 l 1,0,-1
1118 538 m 128,-1,69
 1145 577 1145 577 1174 601.5 c 128,-1,70
 1203 626 1203 626 1236.5 643.5 c 128,-1,71
 1270 661 1270 661 1307 676 c 0,72,73
 1363.96402878 699.09352518 1363.96402878 699.09352518 1447 722 c 1,74,-1
 1448 723 l 1,75,76
 1510.42774566 727.994219653 1510.42774566 727.994219653 1559.21387283 717.497109827 c 128,-1,77
 1608 707 1608 707 1643 663 c 128,-1,78
 1678 619 1678 619 1692 561 c 0,79,80
 1718.53581662 451.065902579 1718.53581662 451.065902579 1693.76790831 347.532951289 c 128,-1,81
 1669 244 1669 244 1635.5 180.5 c 128,-1,82
 1602 117 1602 117 1552.5 71 c 0,83,84
 1457.20221607 -17.5595567867 1457.20221607 -17.5595567867 1285 -52 c 0,85,86
 1209.27635783 -68.4616613419 1209.27635783 -68.4616613419 1137.5 -42.5 c 0,87,88
 1046.81172492 -9.69785794814 1046.81172492 -9.69785794814 1019 117 c 0,89,90
 1010 158 1010 158 1010 200 c 128,-1,91
 1010 242 1010 242 1017 282 c 128,-1,92
 1024 322 1024 322 1037.5 367.5 c 128,-1,93
 1051 413 1051 413 1071 456 c 128,-1,68
 1091 499 1091 499 1118 538 c 128,-1,69
1438.69565217 623 m 0,94,95
 1403.39130435 652 1403.39130435 652 1350 652 c 1,96,97
 1346 648 1346 648 1332.5 636.5 c 0,98,99
 1273.97815534 586.648058252 1273.97815534 586.648058252 1225 457 c 0,100,101
 1147.78338462 252.603076923 1147.78338462 252.603076923 1230 96 c 0,102,103
 1258.23529412 42.218487395 1258.23529412 42.218487395 1325.5 23 c 0,104,105
 1346.5 17 1346.5 17 1374 17 c 1,106,107
 1382 25 1382 25 1390 32 c 128,-1,108
 1398 39 1398 39 1406.5 48 c 128,-1,109
 1415 57 1415 57 1422.5 67.5 c 128,-1,110
 1430 78 1430 78 1447 104 c 0,111,112
 1505.44668588 193.389048991 1505.44668588 193.389048991 1522.5 335.5 c 0,113,114
 1546.38491547 534.540962289 1546.38491547 534.540962289 1438.69565217 623 c 0,94,95
452 1020 m 2,115,-1
 446 987 l 2,116,117
 439.322683706 949.607028754 439.322683706 949.607028754 450.661341853 894.303514377 c 128,-1,118
 462 839 462 839 475 808 c 128,-1,119
 488 777 488 777 508 752 c 0,120,121
 553.25 695.4375 553.25 695.4375 620 701 c 1,122,123
 761.490700637 807.738598726 761.490700637 807.738598726 774.5 1073.5 c 0,124,125
 778 1145 778 1145 778 1210 c 1,126,127
 728.974683544 1308.05063291 728.974683544 1308.05063291 668.5 1331.5 c 0,128,129
 644 1341 644 1341 608 1341 c 1,130,131
 508.372093023 1248.48837209 508.372093023 1248.48837209 468 1087 c 1,132,-1
 460 1053 l 1,133,134
 454.333333333 1036 454.333333333 1036 453.666666667 1030 c 128,-1,135
 453 1024 453 1024 452 1020 c 2,115,-1
1408 19.5 m 1,136,137
 1406.10102051 18.9494897428 1406.10102051 18.9494897428 1403 19 c 1,138,139
 1406 19 1406 19 1408 19.5 c 1,136,137
1355 8 m 2,140,141
 1355.44151844 7.96101229341 1355.44151844 7.96101229341 1356 8 c 2,142,-1
 1355 8 l 2,140,141
1533 1292 m 1,143,144
 1532 1291 1532 1291 1531 1291 c 1,145,146
 1532 1291 1532 1291 1533 1292 c 1,143,144
EndSplineSet
EndChar

StartChar: C
Encoding: 38 38 9
Width: 1485
Flags: W
LayerCount: 2
Fore
SplineSet
1405 -43 m 1,0,1
 1196.7766323 -11.2371134021 1196.7766323 -11.2371134021 1025 136 c 1,2,3
 898.523088569 42.647993944 898.523088569 42.647993944 710 -8 c 0,4,5
 554.966930601 -49.650675361 554.966930601 -49.650675361 454 -19 c 0,6,7
 379.017857143 3.05357142857 379.017857143 3.05357142857 339.508928571 31.0267857143 c 128,-1,8
 300 59 300 59 270 102.5 c 128,-1,9
 240 146 240 146 225 196.5 c 0,10,11
 165.872321819 395.563183209 165.872321819 395.563183209 330 579 c 0,12,13
 400.502353732 656.380632145 400.502353732 656.380632145 517 706 c 0,14,15
 574.054794521 728.821917808 574.054794521 728.821917808 554 794 c 0,16,17
 552 798 552 798 550 801.5 c 128,-1,18
 548 805 548 805 536.5 838.5 c 0,19,20
 460.177891838 1060.82961943 460.177891838 1060.82961943 554.5 1211.5 c 0,21,22
 663 1384.81818182 663 1384.81818182 929 1409 c 0,23,24
 1024.91059603 1416.67284768 1024.91059603 1416.67284768 1084.5 1356 c 0,25,26
 1138.86258278 1300.64900662 1138.86258278 1300.64900662 1146.5 1209 c 0,27,28
 1157.29441624 1079.46700508 1157.29441624 1079.46700508 1073.5 984.5 c 0,29,30
 977.013513514 875.148648649 977.013513514 875.148648649 846 819 c 1,31,32
 843 816 843 816 837 813 c 0,33,34
 775.15 782.075 775.15 782.075 790 740 c 0,35,36
 801.010989011 708.802197802 801.010989011 708.802197802 819.505494505 681.901098901 c 128,-1,37
 838 655 838 655 852.5 633 c 128,-1,38
 867 611 867 611 892 574 c 128,-1,39
 917 537 917 537 943.5 500 c 0,40,41
 1002.80952381 417.19047619 1002.80952381 417.19047619 1032.9047619 387.095238095 c 0,42,43
 1072 348 1072 348 1094 324 c 1,44,45
 1264.78304239 511.204488778 1264.78304239 511.204488778 1305.5 660.5 c 0,46,47
 1319 710 1319 710 1342 756 c 1,48,-1
 1518 810 l 1,49,50
 1495 764 1495 764 1481 714.5 c 128,-1,51
 1467 665 1467 665 1431.5 596.5 c 0,52,53
 1362.65151515 463.651515152 1362.65151515 463.651515152 1201 302 c 0,54,55
 1171 273 1171 273 1142 256 c 1,56,-1
 1141 255 l 1,57,-1
 1144 256 l 1,58,59
 1243.88083416 158.24428997 1243.88083416 158.24428997 1314.44041708 119.122144985 c 0,60,61
 1437.86382979 50.6893617021 1437.86382979 50.6893617021 1562 30 c 1,62,-1
 1405 -43 l 1,0,1
966 203 m 1,63,64
 957.25 203 957.25 203 942.625 222.5 c 128,-1,65
 928 242 928 242 917 254 c 0,66,67
 851.995475113 324.914027149 851.995475113 324.914027149 777.497737557 421.457013575 c 128,-1,68
 703 518 703 518 675.5 566 c 128,-1,69
 648 614 648 614 630.5 638.5 c 0,70,71
 600.058823529 681.117647059 600.058823529 681.117647059 610 701 c 1,72,-1
 609 701 l 1,73,-1
 608 702 l 1,74,-1
 567 684 l 1,75,76
 555.264705882 684 555.264705882 684 510.132352941 634.5 c 128,-1,77
 465 585 465 585 442 546 c 0,78,79
 354.485136742 397.605231867 354.485136742 397.605231867 406 249.5 c 0,80,81
 446.842105263 132.078947368 446.842105263 132.078947368 558 76.5 c 0,82,83
 670.523809524 20.2380952381 670.523809524 20.2380952381 790 57 c 0,84,85
 850.294117647 76.2941176471 850.294117647 76.2941176471 955 181 c 0,86,87
 961.285714286 188.857142857 961.285714286 188.857142857 966 203 c 1,63,64
682 1063 m 0,88,89
 684 1012 684 1012 692 979.5 c 128,-1,90
 700 947 700 947 708 927.5 c 128,-1,91
 716 908 716 908 723.5 887.5 c 0,92,93
 742.140065147 836.550488599 742.140065147 836.550488599 739 813 c 1,94,-1
 759 823 l 1,95,-1
 766.5 828 l 2,96,97
 771 831 771 831 770 828 c 1,98,99
 780.5 832.666666667 780.5 832.666666667 783.25 834.833333333 c 128,-1,100
 786 837 786 837 788.5 837.5 c 128,-1,101
 791 838 791 838 793 840 c 2,102,-1
 820 860 l 2,103,104
 830 868 830 868 839.5 875 c 128,-1,105
 849 882 849 882 873.5 904 c 128,-1,106
 898 926 898 926 927 971 c 128,-1,107
 956 1016 956 1016 965 1060 c 128,-1,108
 974 1104 974 1104 971 1142 c 128,-1,109
 968 1180 968 1180 955 1214.5 c 0,110,111
 918.917922948 1310.25628141 918.917922948 1310.25628141 825 1332.5 c 0,112,113
 806 1337 806 1337 787 1335 c 1,114,115
 675.374090247 1231.96069869 675.374090247 1231.96069869 682 1063 c 0,88,89
EndSplineSet
EndChar

StartChar: Ucircumflex
Encoding: 8217 8217 10
Width: 442
Flags: W
LayerCount: 2
Fore
SplineSet
596 1452 m 1,0,1
 619.855421687 1401.10843373 619.855421687 1401.10843373 600.927710843 1337.55421687 c 128,-1,2
 582 1274 582 1274 566 1236 c 128,-1,3
 550 1198 550 1198 529 1165 c 0,4,5
 491.310526316 1105.77368421 491.310526316 1105.77368421 414 1041 c 1,6,-1
 258 1006 l 1,7,8
 370.60251046 1101.0083682 370.60251046 1101.0083682 418 1259 c 0,9,10
 441.318181818 1339.31818182 441.318181818 1339.31818182 420 1385 c 1,11,-1
 596 1452 l 1,0,1
EndSplineSet
EndChar

StartChar: E
Encoding: 40 40 11
Width: 717
Flags: W
LayerCount: 2
Fore
SplineSet
515 -288 m 1,0,1
 448.727272727 -258.545454545 448.727272727 -258.545454545 406.863636364 -219.772727273 c 128,-1,2
 365 -181 365 -181 335.5 -115 c 128,-1,3
 306 -49 306 -49 291.5 24 c 0,4,5
 266.494768963 149.888404534 266.494768963 149.888404534 274.247384481 320.444202267 c 0,6,7
 291.193769526 693.260861746 291.193769526 693.260861746 450 1007 c 0,8,9
 545.241779497 1192.72147002 545.241779497 1192.72147002 663 1290 c 0,10,11
 803.862951807 1405.25150602 803.862951807 1405.25150602 1017 1447 c 1,12,13
 994 1431 994 1431 972 1415.5 c 128,-1,14
 950 1400 950 1400 927 1385 c 1,15,-1
 926 1384 l 1,16,-1
 918 1379 l 1,17,-1
 885 1370 l 1,18,19
 715.395683453 1275.02158273 715.395683453 1275.02158273 588 980 c 0,20,21
 507.822335025 798.85786802 507.822335025 798.85786802 476.5 597.5 c 0,22,23
 450 427.142857143 450 427.142857143 450 335.071428571 c 128,-1,24
 450 243 450 243 456 176.5 c 128,-1,25
 462 110 462 110 478.5 48 c 0,26,27
 531.048770817 -149.455987312 531.048770817 -149.455987312 656.5 -204 c 0,28,29
 668 -209 668 -209 684 -217 c 1,30,-1
 515 -288 l 1,0,1
EndSplineSet
EndChar

StartChar: F
Encoding: 41 41 12
Width: 717
Flags: W
LayerCount: 2
Fore
SplineSet
456 1446 m 1,0,1
 475 1438 475 1438 489.5 1432.5 c 128,-1,2
 504 1427 504 1427 516.5 1420.5 c 0,3,4
 651.092326139 1350.51199041 651.092326139 1350.51199041 693 1129 c 0,5,6
 715.915921288 1007.87298748 715.915921288 1007.87298748 707.457960644 833.436493739 c 0,7,8
 690.930821582 492.581728523 690.930821582 492.581728523 530 154 c 0,9,10
 412.497504882 -89.6027337817 412.497504882 -89.6027337817 234 -188.5 c 0,11,12
 154.87020649 -232.342182891 154.87020649 -232.342182891 -1 -283 c 1,13,-1
 16 -237 l 1,14,15
 55 -223.235294118 55 -223.235294118 91 -210.617647059 c 128,-1,16
 127 -198 127 -198 164.5 -166.5 c 128,-1,17
 202 -135 202 -135 233.5 -96 c 0,18,19
 342.977881257 39.5440434614 342.977881257 39.5440434614 430.5 280.5 c 0,20,21
 582.494953927 698.955243528 582.494953927 698.955243528 510.5 1079.5 c 0,22,23
 472.418103448 1280.79002463 472.418103448 1280.79002463 345 1351 c 0,24,25
 331 1359 331 1359 316 1364 c 128,-1,26
 301 1369 301 1369 287 1375 c 1,27,-1
 456 1446 l 1,0,1
EndSplineSet
EndChar

StartChar: G
Encoding: 42 42 13
Width: 844
Flags: W
LayerCount: 2
Fore
SplineSet
806 1423 m 1,0,1
 771.248 1376.664 771.248 1376.664 764 1291.5 c 0,2,3
 760.317757009 1248.23364486 760.317757009 1248.23364486 756.158878505 1221.61682243 c 128,-1,4
 752 1195 752 1195 752 1178 c 1,5,6
 783 1194 783 1194 813 1210.5 c 128,-1,7
 843 1227 843 1227 874 1244 c 1,8,-1
 993 1256 l 1,9,10
 952 1234 952 1234 920 1216 c 128,-1,11
 888 1198 888 1198 859 1183 c 0,12,13
 794.079545455 1149.42045455 794.079545455 1149.42045455 743 1128 c 1,14,15
 763.129310345 1093.78017241 763.129310345 1093.78017241 856 1038.5 c 0,16,17
 902.636363636 1010.74025974 902.636363636 1010.74025974 949 971 c 1,18,-1
 773 904 l 1,19,20
 747 925 747 925 718 947 c 1,21,22
 706.826446281 862.080991736 706.826446281 862.080991736 670 805 c 1,23,-1
 494 751 l 1,24,25
 533.797687861 809.369942197 533.797687861 809.369942197 545 955 c 0,26,27
 546 968 546 968 545.5 981 c 128,-1,28
 545 994 545 994 546 1007 c 1,29,-1
 417 935 l 1,30,-1
 298 923 l 1,31,32
 337 945 337 945 371.5 964.5 c 128,-1,33
 406 984 406 984 439 1002 c 0,34,35
 512.791666667 1042.25 512.791666667 1042.25 576 1073 c 1,36,-1
 568 1071 l 1,37,38
 479.492723493 1110.67567568 479.492723493 1110.67567568 356 1207 c 1,39,-1
 532 1274 l 1,40,41
 566 1247.28571429 566 1247.28571429 586 1233 c 1,42,43
 599.333333333 1329 599.333333333 1329 630 1369 c 1,44,-1
 806 1423 l 1,0,1
600 1082 m 1,45,-1
 603 1082 l 1,46,-1
 632 1093 l 1,47,-1
 600 1082 l 1,45,-1
EndSplineSet
EndChar

StartChar: H
Encoding: 43 43 14
Width: 1167
Flags: W
LayerCount: 2
Fore
SplineSet
1186 543 m 1,0,1
 1134 514.771428571 1134 514.771428571 1045 469 c 1,2,-1
 777 469 l 1,3,-1
 777 83 l 1,4,-1
 599 22 l 1,5,-1
 599 469 l 1,6,-1
 174 469 l 1,7,-1
 315 543 l 1,8,-1
 599 543 l 1,9,-1
 599 913 l 1,10,-1
 777 974 l 1,11,-1
 777 543 l 1,12,-1
 1186 543 l 1,0,1
EndSplineSet
EndChar

StartChar: I
Encoding: 44 44 15
Width: 543
Flags: W
LayerCount: 2
Fore
SplineSet
383 193 m 1,0,1
 420.826347305 98.4341317365 420.826347305 98.4341317365 354 -44.5 c 0,2,3
 317.40397351 -122.774834437 317.40397351 -122.774834437 277.201986755 -164.387417219 c 128,-1,4
 237 -206 237 -206 207 -234 c 1,5,-1
 38 -279 l 1,6,7
 202.567134269 -125.0501002 202.567134269 -125.0501002 218 55 c 0,8,9
 221 90 221 90 207 126 c 1,10,-1
 383 193 l 1,0,1
EndSplineSet
EndChar

StartChar: J
Encoding: 45 45 16
Width: 803
Flags: W
LayerCount: 2
Fore
SplineSet
737 547 m 1,0,1
 685 518.771428571 685 518.771428571 596 473 c 1,2,-1
 263 473 l 1,3,-1
 404 547 l 1,4,-1
 737 547 l 1,0,1
EndSplineSet
EndChar

StartChar: uni00AD
Encoding: 173 173 17
Width: 803
Flags: W
LayerCount: 2
Fore
SplineSet
742 548 m 1,0,1
 690 519.771428571 690 519.771428571 601 474 c 1,2,-1
 268 474 l 1,3,-1
 409 548 l 1,4,-1
 742 548 l 1,0,1
EndSplineSet
EndChar

StartChar: K
Encoding: 46 46 18
Width: 543
Flags: W
LayerCount: 2
Fore
SplineSet
285 -25 m 1,0,1
 229 -23 229 -23 201 10 c 0,2,3
 168 43 168 43 168 100.5 c 0,4,5
 168 158 168 158 205 194.5 c 0,6,7
 242 231 242 231 300 231 c 0,8,9
 358 231 358 231 389 199 c 0,10,11
 418 164 418 164 418 117 c 0,12,13
 414 -20 414 -20 285 -25 c 1,0,1
EndSplineSet
EndChar

StartChar: L
Encoding: 47 47 19
Width: 553
Flags: W
LayerCount: 2
Fore
SplineSet
770 1436 m 1,0,1
 728 1348 728 1348 698.5 1257.5 c 128,-1,2
 669 1167 669 1167 618.5 1026 c 128,-1,3
 568 885 568 885 499 697 c 128,-1,4
 430 509 430 509 382 377.5 c 128,-1,5
 334 246 334 246 311.5 173.5 c 128,-1,6
 289 101 289 101 254 31 c 1,7,-1
 78 -23 l 1,8,9
 113 47 113 47 135.5 119.5 c 128,-1,10
 158 192 158 192 206.5 323.5 c 0,11,12
 457.368627451 1003.69019608 457.368627451 1003.69019608 504.684313725 1148.84509804 c 128,-1,13
 552 1294 552 1294 594 1382 c 1,14,-1
 770 1436 l 1,0,1
EndSplineSet
EndChar

StartChar: M
Encoding: 48 48 20
Width: 1085
Flags: W
LayerCount: 2
Fore
SplineSet
824 1416 m 1,0,1
 785.5 1387.54347826 785.5 1387.54347826 731 1352 c 1,2,-1
 732 1352 l 1,3,-1
 847 1420 l 1,4,5
 1028.19886948 1435.75642343 1028.19886948 1435.75642343 1113.5 1307 c 0,6,7
 1180.19722038 1206.32495036 1180.19722038 1206.32495036 1173 1012 c 0,8,9
 1157.12460733 583.364397906 1157.12460733 583.364397906 987 265.5 c 0,10,11
 919.937372362 140.198774677 919.937372362 140.198774677 835 81 c 0,12,13
 727.44845815 2.61497797357 727.44845815 2.61497797357 570 -28 c 0,14,15
 451.767590618 -49.4968017058 451.767590618 -49.4968017058 363 -6.5 c 0,16,17
 214.639565277 65.3620855689 214.639565277 65.3620855689 202.5 347 c 0,18,19
 194.261798469 538.12627551 194.261798469 538.12627551 284.5 853 c 0,20,21
 399.988748501 1255.98201605 399.988748501 1255.98201605 671 1368 c 0,22,23
 746 1399 746 1399 824 1416 c 1,0,1
731 1349 m 1,24,25
 613.761904762 1276.85347985 613.761904762 1276.85347985 517 1061 c 0,26,27
 416.194491287 831.896571107 416.194491287 831.896571107 384.5 537 c 0,28,29
 368.691218993 389.9096028 368.691218993 389.9096028 409 241.5 c 0,30,31
 449.95361528 90.7162346521 449.95361528 90.7162346521 552 55 c 0,32,33
 613.042402827 35.4664310954 613.042402827 35.4664310954 661 41 c 1,34,-1
 672 41 l 1,35,36
 814.094594595 140.466216216 814.094594595 140.466216216 921 479 c 0,37,38
 963.375 613.1875 963.375 613.1875 973.1875 698.09375 c 128,-1,39
 983 783 983 783 985 804 c 128,-1,40
 987 825 987 825 989.5 855.5 c 128,-1,41
 992 886 992 886 994.5 933.5 c 128,-1,42
 997 981 997 981 994 1029.5 c 128,-1,43
 991 1078 991 1078 982 1125.5 c 128,-1,44
 973 1173 973 1173 953 1214 c 0,45,46
 909.187175043 1303.81629116 909.187175043 1303.81629116 840.039370654 1328.22139859 c 128,-1,47
 770.891566265 1352.62650602 770.891566265 1352.62650602 731 1349 c 1,24,25
741 1354 m 1,48,-1
 740 1354 l 1,49,-1
 741 1354 l 1,48,-1
EndSplineSet
EndChar

StartChar: N
Encoding: 49 49 21
Width: 1085
Flags: W
LayerCount: 2
Fore
SplineSet
606 1376 m 1,0,1
 637 1381 637 1381 667 1379.5 c 128,-1,2
 697 1378 697 1378 735 1380 c 128,-1,3
 773 1382 773 1382 805 1382 c 128,-1,4
 837 1382 837 1382 869 1365 c 1,5,-1
 951 1384 l 1,6,7
 914.985074627 1355.56716418 914.985074627 1355.56716418 908.492537313 1341.28358209 c 0,8,9
 900.080808081 1322.77777778 900.080808081 1322.77777778 898.04040404 1281.38888889 c 0,10,11
 895.113965068 1222.02708844 895.113965068 1222.02708844 875 1129 c 2,12,-1
 767 638 l 2,13,14
 762 615 762 615 757 585.5 c 128,-1,15
 752 556 752 556 746 525 c 0,16,17
 731.333333333 449.222222222 731.333333333 449.222222222 723.166666667 426.611111111 c 128,-1,18
 715 404 715 404 714 398 c 128,-1,19
 713 392 713 392 710 378.5 c 128,-1,20
 707 365 707 365 702.5 346.5 c 128,-1,21
 698 328 698 328 695 313.5 c 128,-1,22
 692 299 692 299 687.5 275 c 128,-1,23
 683 251 683 251 679 224 c 0,24,25
 668.803921569 155.176470588 668.803921569 155.176470588 671.901960784 139.088235294 c 0,26,27
 681.019248482 91.7418140559 681.019248482 91.7418140559 756.5 80.5 c 0,28,29
 815.674698795 71.686746988 815.674698795 71.686746988 860.837349398 74.343373494 c 128,-1,30
 906 77 906 77 940 75 c 1,31,-1
 783 2 l 1,32,33
 756 4 756 4 719 2 c 128,-1,34
 682 0 682 0 644 1 c 0,35,36
 553.309278351 3.38659793814 553.309278351 3.38659793814 516 39 c 1,37,-1
 494 32 l 1,38,39
 401.944378698 6.3100591716 401.944378698 6.3100591716 316.472189349 5.1550295858 c 128,-1,40
 231 4 231 4 188 2 c 1,41,-1
 329 76 l 1,42,43
 364 78 364 78 398 77 c 128,-1,44
 432 76 432 76 452 77 c 0,45,46
 479.5 78.375 479.5 78.375 494 82 c 1,47,48
 490 105 490 105 495.5 130 c 128,-1,49
 501 155 501 155 505 189 c 0,50,51
 512.24137931 250.551724138 512.24137931 250.551724138 533.620689655 330.275862069 c 128,-1,52
 555 410 555 410 566 466 c 128,-1,53
 577 522 577 522 589 577 c 2,54,-1
 626 747 l 2,55,56
 646 838 646 838 667 928 c 0,57,58
 715.451957295 1135.65124555 715.451957295 1135.65124555 718.225978648 1183.32562278 c 128,-1,59
 721 1231 721 1231 720.5 1246.5 c 128,-1,60
 720 1262 720 1262 726 1276 c 1,61,62
 690.319148936 1306.19148936 690.319148936 1306.19148936 663.659574468 1308.09574468 c 128,-1,63
 637 1310 637 1310 611 1307.5 c 128,-1,64
 585 1305 585 1305 551.5 1307 c 128,-1,65
 518 1309 518 1309 484 1304 c 1,66,-1
 606 1376 l 1,0,1
EndSplineSet
EndChar

StartChar: O
Encoding: 50 50 22
Width: 1085
Flags: W
LayerCount: 2
Fore
SplineSet
733 76 m 1,0,-1
 829 72 l 1,1,2
 855.428571429 98.4285714286 855.428571429 98.4285714286 888 169 c 1,3,-1
 1064 223 l 1,4,5
 1027.55555556 145.555555556 1027.55555556 145.555555556 979.277777778 98.2777777778 c 0,6,7
 885.569645506 6.51066550719 885.569645506 6.51066550719 712 -3 c 0,8,9
 682 -5 682 -5 652 -1.5 c 128,-1,10
 622 2 622 2 588 2 c 128,-1,11
 554 2 554 2 510 2.5 c 128,-1,12
 466 3 466 3 419.5 3.5 c 0,13,14
 315.582608696 4.61739130435 315.582608696 4.61739130435 258.291304348 1.30869565217 c 0,15,16
 157.825252089 -4.49343425364 157.825252089 -4.49343425364 102 7 c 1,17,-1
 100 13 l 1,18,19
 109 48 109 48 116 83 c 128,-1,20
 123 118 123 118 155 169.5 c 128,-1,21
 187 221 187 221 251.5 281 c 128,-1,22
 316 341 316 341 389 395 c 128,-1,23
 462 449 462 449 537.5 498 c 128,-1,24
 613 547 613 547 664 586 c 128,-1,25
 715 625 715 625 752.5 656 c 128,-1,26
 790 687 790 687 823.5 721 c 0,27,28
 1000.97165131 901.120481928 1000.97165131 901.120481928 951 1113.5 c 0,29,30
 919.240362812 1248.47845805 919.240362812 1248.47845805 811 1297 c 0,31,32
 745.12716763 1327.26589595 745.12716763 1327.26589595 655 1316 c 1,33,34
 578.127737226 1260.22992701 578.127737226 1260.22992701 503 1125 c 1,35,-1
 327 1071 l 1,36,37
 394.585987261 1191.15286624 394.585987261 1191.15286624 441.792993631 1234.57643312 c 128,-1,38
 489 1278 489 1278 527 1301 c 128,-1,39
 565 1324 565 1324 606.5 1341.5 c 0,40,41
 765.987781463 1408.75388375 765.987781463 1408.75388375 905.5 1388 c 0,42,43
 1028.49509327 1369.70320927 1028.49509327 1369.70320927 1092 1267.5 c 0,44,45
 1168.21879089 1144.83538341 1168.21879089 1144.83538341 1124 976 c 0,46,47
 1103.75531915 896.861702128 1103.75531915 896.861702128 1058.37765957 841.930851064 c 0,48,49
 936.387096774 694.258064516 936.387096774 694.258064516 732 558 c 0,50,51
 679 522 679 522 621 483 c 128,-1,52
 563 444 563 444 507.5 400.5 c 0,53,54
 377.47092469 298.585319352 377.47092469 298.585319352 319 204 c 0,55,56
 300 175 300 175 293.5 142 c 128,-1,57
 287 109 287 109 279 77 c 1,58,59
 313 70 313 70 345 73 c 128,-1,60
 377 76 377 76 411 76 c 2,61,-1
 733 76 l 1,0,-1
EndSplineSet
EndChar

StartChar: P
Encoding: 51 51 23
Width: 1085
Flags: W
LayerCount: 2
Fore
SplineSet
347 1148 m 1,0,1
 416.157187177 1308.44467425 416.157187177 1308.44467425 620.5 1384 c 0,2,3
 731.386363636 1425 731.386363636 1425 801.693181818 1425 c 128,-1,4
 872 1425 872 1425 914 1415 c 0,5,6
 1037.9789823 1385.48119469 1037.9789823 1385.48119469 1089.5 1284.5 c 0,7,8
 1102 1260 1102 1260 1105 1238 c 128,-1,9
 1108 1216 1108 1216 1114.5 1197 c 128,-1,10
 1121 1178 1121 1178 1123.5 1138 c 128,-1,11
 1126 1098 1126 1098 1102 1039.5 c 0,12,13
 1043.31812999 896.462941847 1043.31812999 896.462941847 876.5 828.5 c 0,14,15
 843.714285714 815.142857143 843.714285714 815.142857143 830 810 c 1,16,17
 810.3187251 782.446215139 810.3187251 782.446215139 884 753.5 c 0,18,19
 961.214723926 723.165644172 961.214723926 723.165644172 1005 621 c 0,20,21
 1071 471 1071 471 1006.5 299 c 0,22,23
 926.490825688 85.6422018349 926.490825688 85.6422018349 661 0 c 0,24,25
 388.518991713 -87.8970994475 388.518991713 -87.8970994475 213.5 48 c 0,26,27
 151.330578512 96.2727272727 151.330578512 96.2727272727 123.5 157.5 c 0,28,29
 116 174 116 174 107 191 c 1,30,-1
 283 258 l 1,31,32
 295 236 295 236 302.5 221 c 128,-1,33
 310 206 310 206 317.5 193.5 c 0,34,35
 375.857566766 96.237388724 375.857566766 96.237388724 507.5 55 c 0,36,37
 599.297738033 26.2440820621 599.297738033 26.2440820621 671 47 c 0,38,39
 684 51 684 51 694 59 c 128,-1,40
 704 67 704 67 714 75 c 0,41,42
 824.760156359 161.594304063 824.760156359 161.594304063 851 324.5 c 0,43,44
 877.787172012 490.803692906 877.787172012 490.803692906 801 605 c 0,45,46
 759.826829268 667.970731707 759.826829268 667.970731707 691.5 694 c 0,47,48
 650.30044843 709.695067265 650.30044843 709.695067265 648 735 c 1,49,50
 471 735 471 735 391 730 c 1,51,-1
 532 804 l 1,52,53
 582 806.040816327 582 806.040816327 727 809 c 1,54,55
 753 822 753 822 803 842 c 1,56,-1
 823 849 l 1,57,58
 913.24137931 916.681034483 913.24137931 916.681034483 938 1025 c 0,59,60
 950.672566372 1080.44247788 950.672566372 1080.44247788 941.336283186 1118.72123894 c 128,-1,61
 932 1157 932 1157 927 1177 c 1,62,-1
 926 1179 l 1,63,-1
 926 1181 l 1,64,65
 923 1189 923 1189 918.5 1201.5 c 128,-1,66
 914 1214 914 1214 906.5 1229 c 0,67,68
 891.727272727 1258.54545455 891.727272727 1258.54545455 849.863636364 1293.27272727 c 0,69,70
 762.722037742 1365.55956913 762.722037742 1365.55956913 642 1348 c 1,71,72
 564.348137536 1299.92979943 564.348137536 1299.92979943 523 1202 c 1,73,-1
 347 1148 l 1,0,1
EndSplineSet
EndChar

StartChar: Q
Encoding: 52 52 24
Width: 1085
Flags: W
LayerCount: 2
Fore
SplineSet
952 416 m 1,0,-1
 882 412 l 1,1,2
 872.5 340.75 872.5 340.75 864.75 305.875 c 128,-1,3
 857 271 857 271 851.5 237 c 0,4,5
 837.994609164 153.51212938 837.994609164 153.51212938 847.497304582 132.25606469 c 0,6,7
 874.545889801 71.7525494334 874.545889801 71.7525494334 951 76 c 0,8,9
 1000.88571429 78.7714285714 1000.88571429 78.7714285714 1021 75 c 1,10,-1
 854 5 l 2,11,12
 856 5 856 5 860 3 c 0,13,14
 863 1 863 1 857 2.5 c 128,-1,15
 851 4 851 4 840 4 c 128,-1,16
 829 4 829 4 810.5 3.5 c 128,-1,17
 792 3 792 3 765.5 4 c 0,18,19
 706.446700508 6.22842639594 706.446700508 6.22842639594 684 45 c 1,20,21
 566.235294118 6.30588235294 566.235294118 6.30588235294 394 2 c 1,22,-1
 535 76 l 1,23,24
 616.5 78.3285714286 616.5 78.3285714286 671 83 c 1,25,26
 665.558375635 126.532994924 665.558375635 126.532994924 677.779187817 189.266497462 c 128,-1,27
 690 252 690 252 695 283 c 0,28,29
 704.101123596 339.426966292 704.101123596 339.426966292 706 385 c 1,30,31
 670.230769231 416 670.230769231 416 613 416 c 2,32,-1
 315 416 l 1,33,-1
 238 413 l 1,34,35
 174.25 413 174.25 413 168.125 435 c 0,36,37
 158.689643347 468.890260631 158.689643347 468.890260631 182.344821674 510.945130316 c 128,-1,38
 206 553 206 553 229.5 577.5 c 128,-1,39
 253 602 253 602 273 628.5 c 128,-1,40
 293 655 293 655 313 681 c 128,-1,41
 333 707 333 707 344.5 722 c 128,-1,42
 356 737 356 737 367.5 751 c 128,-1,43
 379 765 379 765 391.5 781 c 128,-1,44
 404 797 404 797 415.5 810.5 c 128,-1,45
 427 824 427 824 430 828 c 2,46,-1
 595 1025 l 1,47,48
 634.6 1069 634.6 1069 657.8 1098 c 128,-1,49
 681 1127 681 1127 682 1127 c 2,50,-1
 726 1179 l 1,51,52
 769.785093168 1227.02236025 769.785093168 1227.02236025 869 1273 c 0,53,54
 883.5 1280.25 883.5 1280.25 906 1287 c 1,55,56
 913 1304 913 1304 925 1322 c 1,57,-1
 1101 1376 l 1,58,59
 1066 1323.5 1066 1323.5 1050 1201.5 c 0,60,61
 1046 1171 1046 1171 1030.5 1099.5 c 0,62,63
 941.962848297 691.086687307 941.962848297 691.086687307 935.981424149 624.543343653 c 128,-1,64
 930 558 930 558 917 516 c 1,65,-1
 922 518 l 1,66,67
 957.434108527 489.315245478 957.434108527 489.315245478 997.217054264 487.657622739 c 128,-1,68
 1037 486 1037 486 1062 488 c 128,-1,69
 1087 490 1087 490 1111 490 c 1,70,71
 1059 461.771428571 1059 461.771428571 970 416 c 1,72,-1
 952 416 l 1,0,-1
747 490 m 1,73,74
 754 524 754 524 760.040462428 584.404624277 c 128,-1,75
 766.080924855 644.809248555 766.080924855 644.809248555 817.040462428 878.904624277 c 128,-1,76
 868 1113 868 1113 872 1146 c 128,-1,77
 876 1179 876 1179 883 1212 c 1,78,-1
 846 1165 l 1,79,80
 576.363636364 856.844155844 576.363636364 856.844155844 485 728.5 c 0,81,82
 464 699 464 699 445 677.5 c 0,83,84
 380.168918919 604.138513514 380.168918919 604.138513514 363.084459459 574.569256757 c 128,-1,85
 346 545 346 545 345 531 c 0,86,87
 342.248730964 492.482233503 342.248730964 492.482233503 356 491.5 c 0,88,89
 363 491 363 491 364 490 c 1,90,-1
 747 490 l 1,73,74
716 95 m 1,91,-1
 715 95 l 1,92,-1
 716 95 l 1,91,-1
EndSplineSet
EndChar

StartChar: R
Encoding: 53 53 25
Width: 1085
Flags: W
LayerCount: 2
Fore
SplineSet
480 796 m 1,0,1
 608.1 857 608.1 857 672 857 c 1,2,3
 769.659942363 872.259365994 769.659942363 872.259365994 799.829971182 866.629682997 c 0,4,5
 861.055734463 855.205045633 861.055734463 855.205045633 913.527867231 831.102522816 c 128,-1,6
 966 807 966 807 1006.5 753 c 128,-1,7
 1047 699 1047 699 1063.5 633.5 c 0,8,9
 1093.92775665 512.711026616 1093.92775665 512.711026616 1055 357 c 0,10,11
 1000.7432017 144.494206668 1000.7432017 144.494206668 768.5 29.5 c 0,12,13
 525.256437768 -90.9409871245 525.256437768 -90.9409871245 319 -17 c 0,14,15
 224.661495063 16.8194640339 224.661495063 16.8194640339 170 100 c 0,16,17
 147 135 147 135 130 170 c 1,18,-1
 306 237 l 1,19,20
 313 230 313 230 313 228 c 128,-1,21
 313 226 313 226 317 219.5 c 0,22,23
 336.428571429 187.928571429 336.428571429 187.928571429 344.214285714 173.464285714 c 0,24,25
 363.582325092 137.482377696 363.582325092 137.482377696 409.791162546 98.241188848 c 128,-1,26
 456 59 456 59 531 43 c 128,-1,27
 606 27 606 27 678 34 c 1,28,29
 762.58677686 70.7768595041 762.58677686 70.7768595041 825 180 c 0,30,31
 928.032142144 352.828109403 928.032142144 352.828109403 893.5 537.5 c 0,32,33
 853.430999748 751.782044825 853.430999748 751.782044825 641 793 c 0,34,35
 617.327102804 798.570093458 617.327102804 798.570093458 554 785 c 1,36,37
 490.4 753.2 490.4 753.2 454 742 c 1,38,39
 452 737 452 737 449 732.5 c 128,-1,40
 446 728 446 728 444 723 c 1,41,-1
 268 669 l 1,42,-1
 302 729 l 1,43,-1
 305 730 l 1,44,45
 294.537037037 777.083333333 294.537037037 777.083333333 316.768518519 848.541666667 c 128,-1,46
 339 920 339 920 349.5 966.5 c 128,-1,47
 360 1013 360 1013 371.5 1057 c 128,-1,48
 383 1101 383 1101 391.5 1139.5 c 128,-1,49
 400 1178 400 1178 408 1212.5 c 128,-1,50
 416 1247 416 1247 436 1267.5 c 128,-1,51
 456 1288 456 1288 483 1302.5 c 128,-1,52
 510 1317 510 1317 540.5 1327.5 c 0,53,54
 628.623616236 1357.83763838 628.623616236 1357.83763838 697 1351 c 0,55,56
 717 1349 717 1349 737 1349 c 2,57,-1
 1109 1349 l 1,58,59
 1057 1320.77142857 1057 1320.77142857 968 1275 c 1,60,-1
 586 1274 l 1,61,62
 578 1250 578 1250 573.5 1222.5 c 128,-1,63
 569 1195 569 1195 558.5 1154.5 c 128,-1,64
 548 1114 548 1114 531 1051 c 128,-1,65
 514 988 514 988 503 943 c 0,66,67
 472.538461538 818.384615385 472.538461538 818.384615385 480 796 c 1,0,1
EndSplineSet
EndChar

StartChar: S
Encoding: 54 54 26
Width: 1085
Flags: W
LayerCount: 2
Fore
SplineSet
235 618 m 1,0,-1
 235 620 l 1,1,2
 218.347826087 703.260869565 218.347826087 703.260869565 285 881 c 1,3,4
 351.114798206 1072.94618834 351.114798206 1072.94618834 446.5 1186.5 c 0,5,6
 584.927839453 1351.29504697 584.927839453 1351.29504697 836.5 1402.5 c 0,7,8
 1064.74503311 1448.95695364 1064.74503311 1448.95695364 1166.5 1306.5 c 0,9,10
 1180.22641509 1287.28301887 1180.22641509 1287.28301887 1198 1231 c 1,11,-1
 1020 1170 l 1,12,13
 1015 1183 1015 1183 1011.5 1195.5 c 128,-1,14
 1008 1208 1008 1208 995.5 1232 c 128,-1,15
 983 1256 983 1256 952 1281.5 c 128,-1,16
 921 1307 921 1307 884 1321 c 0,17,18
 807.855072464 1349.8115942 807.855072464 1349.8115942 728 1333 c 1,19,20
 585.656740661 1256.55639776 585.656740661 1256.55639776 490.5 1014 c 0,21,22
 411 811.352941176 411 811.352941176 411 706 c 1,23,24
 478.894736842 773.894736842 478.894736842 773.894736842 648 824 c 0,25,26
 742.36039604 851.314851485 742.36039604 851.314851485 793.18019802 849.157425743 c 0,27,28
 951.892670871 842.419690426 951.892670871 842.419690426 1015.5 774.5 c 0,29,30
 1091.39580603 693.458715596 1091.39580603 693.458715596 1103 531 c 0,31,32
 1109.30731707 430.082926829 1109.30731707 430.082926829 1052 279 c 0,33,34
 950.483275663 19.9573241061 950.483275663 19.9573241061 582 -39 c 0,35,36
 428.06097561 -62.6829268293 428.06097561 -62.6829268293 327.5 22 c 0,37,38
 196.167738971 132.595588235 196.167738971 132.595588235 202.5 369 c 0,39,40
 205.194709772 469.602498163 205.194709772 469.602498163 216.597354886 525.801249082 c 128,-1,41
 228 582 228 582 228 616 c 1,42,-1
 235 618 l 1,0,-1
540 714 m 0,43,44
 486.388489209 664.856115108 486.388489209 664.856115108 402 630 c 1,45,46
 399 607 399 607 394.5 585 c 128,-1,47
 390 563 390 563 385 511.5 c 0,48,49
 357.564288301 228.912169504 357.564288301 228.912169504 489 101.5 c 0,50,51
 576.780960065 16.4062121823 576.780960065 16.4062121823 704 33 c 0,52,53
 710 33 710 33 719 35.5 c 128,-1,54
 728 38 728 38 736.5 39.5 c 128,-1,55
 745 41 745 41 749 42 c 128,-1,56
 753 43 753 43 748 40 c 0,57,58
 726.973684211 30.1052631579 726.973684211 30.1052631579 677 19 c 1,59,60
 776.702479339 43.9256198347 776.702479339 43.9256198347 843 156 c 0,61,62
 915.650771388 277.690042076 915.650771388 277.690042076 925 460 c 0,63,64
 926 484 926 484 919.5 507 c 0,65,66
 911 537.076923077 911 537.076923077 911 562 c 1,67,68
 906 574 906 574 903.5 588.5 c 0,69,70
 891.083521445 660.515575621 891.083521445 660.515575621 839.541760722 705.75778781 c 128,-1,71
 788 751 788 751 746.5 763 c 0,72,73
 683.064285714 781.342857143 683.064285714 781.342857143 620 772 c 0,74,75
 615 772 615 772 611 771 c 128,-1,76
 607 770 607 770 602 769 c 1,77,-1
 597 766 l 1,78,79
 579 751 579 751 572 746 c 0,80,81
 568 744 568 744 571.5 746.171732943 c 128,-1,82
 575 748.343465886 575 748.343465886 577 750 c 2,83,-1
 560 733 l 1,84,85
 561 731 561 731 552.5 724.5 c 128,-1,86
 544 718 544 718 540 714 c 0,43,44
584 756 m 2,87,-1
 588 759.5 l 2,88,89
 586 758 586 758 584 756 c 2,87,-1
616 775 m 258,90,-1
 614.5 774.5 l 2,91,92
 615 775 615 775 616 775 c 258,90,-1
425 673 m 256,93,94
 424 673 424 673 424.5 672.5 c 128,-1,95
 425 672 425 672 425.5 672.5 c 128,-1,96
 426 673 426 673 425 673 c 256,93,94
545 721 m 1,97,-1
 544 720 l 1,98,-1
 545 721 l 1,97,-1
674 19 m 1,99,-1
 676 19 l 1,100,-1
 674 19 l 1,99,-1
EndSplineSet
EndChar

StartChar: T
Encoding: 55 55 27
Width: 1085
Flags: W
LayerCount: 2
Fore
SplineSet
296 1087 m 1,0,1
 311 1118 311 1118 323 1151 c 128,-1,2
 335 1184 335 1184 356 1212.5 c 128,-1,3
 377 1241 377 1241 406.5 1264.5 c 128,-1,4
 436 1288 436 1288 470.5 1305 c 0,5,6
 560.35710006 1349.27741162 560.35710006 1349.27741162 657.5 1342.5 c 0,7,8
 679 1341 679 1341 701 1339 c 1,9,-1
 1186 1339 l 2,10,11
 1195 1339 1195 1339 1205.5 1340 c 128,-1,12
 1216 1341 1216 1341 1226.5 1340.5 c 0,13,14
 1253.07407407 1339.2345679 1253.07407407 1339.2345679 1261.03703704 1329.61728395 c 128,-1,15
 1269 1320 1269 1320 1266.5 1299 c 128,-1,16
 1264 1278 1264 1278 1258 1254.5 c 0,17,18
 1238.29441624 1177.31979695 1238.29441624 1177.31979695 1201.5 1119.5 c 0,19,20
 1198 1114 1198 1114 1195 1109 c 0,21,22
 1191 1102.33333333 1191 1102.33333333 1180 1087.66666667 c 128,-1,23
 1169 1073 1169 1073 1160.5 1061 c 0,24,25
 1147.43902439 1042.56097561 1147.43902439 1042.56097561 1131.2195122 1023.7804878 c 128,-1,26
 1115 1005 1115 1005 1083 965 c 128,-1,27
 1051 925 1051 925 995 856.5 c 128,-1,28
 939 788 939 788 885.5 717.5 c 0,29,30
 713.804185351 491.246636771 713.804185351 491.246636771 642 315 c 0,31,32
 603.334586466 220.093984962 603.334586466 220.093984962 590.167293233 166.546992481 c 128,-1,33
 577 113 577 113 563 84 c 1,34,-1
 387 30 l 1,35,36
 404 65 404 65 413 102.5 c 0,37,38
 466.776539589 326.568914956 466.776539589 326.568914956 636.5 565.5 c 0,39,40
 721.04175279 684.51508888 721.04175279 684.51508888 816.520876395 799.25754444 c 128,-1,41
 912 914 912 914 944 954.5 c 128,-1,42
 976 995 976 995 984.5 1007 c 128,-1,43
 993 1019 993 1019 1000.5 1029 c 128,-1,44
 1008 1039 1008 1039 1012 1044.5 c 128,-1,45
 1016 1050 1016 1050 1019 1055 c 128,-1,46
 1022 1060 1022 1060 1025.5 1065.5 c 128,-1,47
 1029 1071 1029 1071 1035 1081 c 0,48,49
 1069.54054054 1138.56756757 1069.54054054 1138.56756757 1081.27027027 1194.28378378 c 128,-1,50
 1093 1250 1093 1250 1090 1255 c 256,51,52
 1086.84210526 1260.26315789 1086.84210526 1260.26315789 1075 1265 c 0,53,54
 1010.04 1270.41333333 1010.04 1270.41333333 941.02 1267.70666667 c 128,-1,55
 872 1265 872 1265 863 1265 c 2,56,-1
 544 1265 l 2,57,58
 538 1265 538 1265 531 1266 c 1,59,60
 511 1237 511 1237 499 1204.5 c 128,-1,61
 487 1172 487 1172 472 1141 c 1,62,-1
 296 1087 l 1,0,1
EndSplineSet
EndChar

StartChar: U
Encoding: 56 56 28
Width: 1085
Flags: W
LayerCount: 2
Fore
SplineSet
502 727 m 0,0,1
 488 752.2 488 752.2 465.5 780.1 c 0,2,3
 425.894736842 829.210526316 425.894736842 829.210526316 400.947368421 881.105263158 c 128,-1,4
 376 933 376 933 379 1012.5 c 128,-1,5
 382 1092 382 1092 414.5 1157.5 c 128,-1,6
 447 1223 447 1223 498 1270 c 128,-1,7
 549 1317 549 1317 611.5 1350 c 0,8,9
 796.241301655 1447.54340727 796.241301655 1447.54340727 970.5 1403.5 c 128,-1,10
 1144.69023631 1359.47389632 1144.69023631 1359.47389632 1158 1156.5 c 0,11,12
 1164.24758221 1061.22437137 1164.24758221 1061.22437137 1126.1237911 985.612185687 c 128,-1,13
 1088 910 1088 910 1055.5 881 c 128,-1,14
 1023 852 1023 852 1006 841.5 c 128,-1,15
 989 831 989 831 973 820 c 0,16,17
 935.497737557 794.21719457 935.497737557 794.21719457 921 762 c 1,18,-1
 926 764 l 1,19,20
 935.384615385 745.230769231 935.384615385 745.230769231 955.692307692 728.615384615 c 0,21,22
 998.523809524 693.571428571 998.523809524 693.571428571 1014.26190476 674.785714286 c 128,-1,23
 1030 656 1030 656 1044.5 625 c 128,-1,24
 1059 594 1059 594 1067.5 560 c 0,25,26
 1104.57368421 411.705263158 1104.57368421 411.705263158 1051 275 c 0,27,28
 962.17383592 48.3401330377 962.17383592 48.3401330377 687 -24.5 c 0,29,30
 500.611510791 -73.8381294964 500.611510791 -73.8381294964 357 -14 c 0,31,32
 217.964045416 42.7493692178 217.964045416 42.7493692178 188.5 223 c 0,33,34
 171.583242655 326.490750816 171.583242655 326.490750816 193.291621328 403.245375408 c 128,-1,35
 215 480 215 480 244.5 528.5 c 0,36,37
 302.973783784 624.634864865 302.973783784 624.634864865 425 691 c 0,38,39
 442 701 442 701 460 708.5 c 0,40,41
 496 723.5 496 723.5 498 724.25 c 128,-1,42
 500 725 500 725 502 727 c 0,0,1
606 709 m 1,43,44
 592.666666667 705.666666667 592.666666667 705.666666667 566 711 c 1,45,46
 555 706 555 706 545 701.5 c 128,-1,47
 535 697 535 697 510.5 683.5 c 128,-1,48
 486 670 486 670 456 632.5 c 128,-1,49
 426 595 426 595 403 552 c 128,-1,50
 380 509 380 509 368.5 448 c 128,-1,51
 357 387 357 387 361.5 325 c 0,52,53
 371.556521739 186.443478261 371.556521739 186.443478261 449 109 c 0,54,55
 527.241935484 30.7580645161 527.241935484 30.7580645161 669.5 28.5 c 0,56,57
 701 28 701 28 731 33 c 1,58,59
 854.395580898 105.470420527 854.395580898 105.470420527 891.5 277.5 c 0,60,61
 930.140425532 456.65106383 930.140425532 456.65106383 842.5 601 c 0,62,63
 827.031055901 626.47826087 827.031055901 626.47826087 794.51552795 649.239130435 c 128,-1,64
 762 672 762 672 750 697 c 1,65,-1
 756 699 l 1,66,67
 710.75 706.541666667 710.75 706.541666667 637 709 c 1,68,-1
 606 709 l 1,43,44
678 789 m 1,69,70
 713 791.5 713 791.5 730 787.25 c 128,-1,71
 747 783 747 783 778 783 c 2,72,-1
 795.5 783 l 2,73,74
 799 783 799 783 809 782 c 1,75,76
 820 790 820 790 831.5 796 c 2,77,-1
 859 812 l 1,78,79
 857 812 857 812 864 816.5 c 128,-1,80
 871 821 871 821 876.5 827 c 128,-1,81
 882 833 882 833 890 840.5 c 128,-1,82
 898 848 898 848 913 866.5 c 0,83,84
 980 949.133333333 980 949.133333333 980 1080.5 c 0,85,86
 980 1188.3442623 980 1188.3442623 920.5 1261.5 c 0,87,88
 848.413876424 1350.13047981 848.413876424 1350.13047981 698 1342 c 1,89,90
 600.788218794 1271.11640954 600.788218794 1271.11640954 569 1153.5 c 0,91,92
 536.090545939 1031.73501997 536.090545939 1031.73501997 587 926 c 0,93,94
 599.932038835 898.699029126 599.932038835 898.699029126 622.966019417 870.349514563 c 0,95,96
 668.466019417 814.349514563 668.466019417 814.349514563 680 790 c 1,97,-1
 678 789 l 1,69,70
878 825 m 1,98,-1
 871 820 l 1,99,-1
 878 825 l 1,98,-1
EndSplineSet
EndChar

StartChar: V
Encoding: 57 57 29
Width: 1085
Flags: W
LayerCount: 2
Fore
SplineSet
807 217.5 m 0,0,1
 828 255 828 255 859.5 322 c 0,2,3
 930.64666002 473.32781655 930.64666002 473.32781655 954 692 c 1,4,5
 946 686 946 686 938.5 680 c 128,-1,6
 931 674 931 674 908 658.5 c 0,7,8
 817.522805297 597.526238352 817.522805297 597.526238352 667.5 569.5 c 0,9,10
 622 561 622 561 581 561 c 0,11,12
 347.195121951 561 347.195121951 561 287.5 783.5 c 0,13,14
 239.262725345 963.293478261 239.262725345 963.293478261 330.5 1153.5 c 0,15,16
 399.080619609 1296.47315613 399.080619609 1296.47315613 601.5 1373.5 c 0,17,18
 798.466849373 1448.45198693 798.466849373 1448.45198693 947.5 1386 c 0,19,20
 1105.91518605 1319.61649346 1105.91518605 1319.61649346 1130.5 1076.5 c 0,21,22
 1168.18962264 703.791509434 1168.18962264 703.791509434 1046.5 398.5 c 0,23,24
 960.06013579 181.642095053 960.06013579 181.642095053 822 85 c 0,25,26
 647.487804878 -37.1585365854 647.487804878 -37.1585365854 475 -43.5 c 0,27,28
 322.938394439 -49.0905002044 322.938394439 -49.0905002044 225 47 c 0,29,30
 164.513347023 105.246406571 164.513347023 105.246406571 161 172 c 1,31,-1
 339 233 l 1,32,33
 342.765326302 170.872116018 342.765326302 170.872116018 398.5 114 c 0,34,35
 495.244988864 15.280623608 495.244988864 15.280623608 637 33 c 1,36,37
 735.669781931 90.1246105919 735.669781931 90.1246105919 807 217.5 c 0,0,1
774 639 m 1,38,39
 800 655 800 655 839.111111111 694.111111111 c 128,-1,40
 878.222222222 733.222222222 878.222222222 733.222222222 960 769 c 1,41,42
 975.293768546 1090.16913947 975.293768546 1090.16913947 882 1227 c 0,43,44
 815.75694996 1324.15647339 815.75694996 1324.15647339 702 1337 c 0,45,46
 645.096774194 1342.41935484 645.096774194 1342.41935484 618 1337 c 1,47,48
 579.253561254 1315.3019943 579.253561254 1315.3019943 542.126780627 1262.65099715 c 128,-1,49
 505 1210 505 1210 484 1156.5 c 128,-1,50
 463 1103 463 1103 454.5 1046 c 0,51,52
 437.036363636 928.890909091 437.036363636 928.890909091 473 821 c 0,53,54
 505.210526316 724.368421053 505.210526316 724.368421053 589 672 c 0,55,56
 673.370149254 619.268656716 673.370149254 619.268656716 774 639 c 1,38,39
EndSplineSet
EndChar

StartChar: W
Encoding: 58 58 30
Width: 543
Flags: W
LayerCount: 2
Fore
SplineSet
285 -25 m 1,0,1
 229 -23 229 -23 201 10 c 0,2,3
 168 43 168 43 168 100.5 c 0,4,5
 168 158 168 158 205 194.5 c 0,6,7
 242 231 242 231 300 231 c 0,8,9
 358 231 358 231 389 199 c 0,10,11
 418 164 418 164 418 117 c 0,12,13
 414 -20 414 -20 285 -25 c 1,0,1
446 747 m 0,14,15
 391 747 391 747 362 782 c 0,16,17
 330 815 330 815 330 872.5 c 0,18,19
 330 930 330 930 366.5 966.5 c 0,20,21
 403 1003 403 1003 461.5 1003 c 0,22,23
 520 1003 520 1003 551 971 c 0,24,25
 580 936 580 936 580 889 c 0,26,27
 575 750 575 750 446 747 c 0,14,15
EndSplineSet
EndChar

StartChar: X
Encoding: 59 59 31
Width: 543
Flags: W
LayerCount: 2
Fore
SplineSet
390 192 m 1,0,1
 430.066006601 95.8415841584 430.066006601 95.8415841584 349 -60.5 c 0,2,3
 314.910369069 -126.244288225 314.910369069 -126.244288225 276.955184534 -166.622144112 c 128,-1,4
 239 -207 239 -207 214 -231 c 1,5,-1
 45 -276 l 1,6,7
 185.796812749 -142.015936255 185.796812749 -142.015936255 215 4 c 0,8,9
 221 36 221 36 224 65 c 128,-1,10
 227 94 227 94 214 125 c 1,11,-1
 390 192 l 1,0,1
446 747 m 0,12,13
 391 747 391 747 362 782 c 0,14,15
 330 815 330 815 330 872.5 c 128,-1,16
 330 930 330 930 366.5 966.5 c 128,-1,17
 403 1003 403 1003 461.5 1003 c 128,-1,18
 520 1003 520 1003 551 971 c 0,19,20
 580 936 580 936 580 889 c 0,21,22
 575 750 575 750 446 747 c 0,12,13
EndSplineSet
EndChar

StartChar: Y
Encoding: 60 60 32
Width: 1167
Flags: W
LayerCount: 2
Fore
SplineSet
1004 46 m 1,0,1
 958 60 958 60 915.5 80.5 c 128,-1,2
 873 101 873 101 812 128.5 c 128,-1,3
 751 156 751 156 673 190.5 c 128,-1,4
 595 225 595 225 524.5 256 c 128,-1,5
 454 287 454 287 393 313.5 c 128,-1,6
 332 340 332 340 297 355.5 c 128,-1,7
 262 371 262 371 245.5 377.5 c 128,-1,8
 229 384 229 384 212 391.5 c 0,9,10
 150.032258065 418.838709677 150.032258065 418.838709677 145 444 c 0,11,12
 129.889534884 519.552325581 129.889534884 519.552325581 184.5 549.5 c 0,13,14
 200 558 200 558 220 567 c 2,15,-1
 262 585 l 1,16,-1
 272 589 l 1,17,-1
 273 589 l 1,18,-1
 295 599 l 2,19,20
 283 594 283 594 282 594 c 2,21,-1
 336.5 618.5 l 2,22,23
 355 626 355 626 420.5 658 c 128,-1,24
 486 690 486 690 600.5 738.5 c 128,-1,25
 715 787 715 787 807.5 828.5 c 128,-1,26
 900 870 900 870 967.5 903 c 128,-1,27
 1035 936 1035 936 1110 959 c 1,28,-1
 1093 913 l 1,29,30
 1042 897 1042 897 995 872.5 c 128,-1,31
 948 848 948 848 859.5 808 c 0,32,33
 596.298701299 689.038961039 596.298701299 689.038961039 490.649350649 642.519480519 c 128,-1,34
 385 596 385 596 379 593 c 128,-1,35
 373 590 373 590 366.5 587.5 c 2,36,-1
 346 579 l 2,37,38
 344 578 344 578 343.5 577 c 128,-1,39
 343 576 343 576 342 576 c 2,40,-1
 323 568 l 1,41,42
 319 561 319 561 319 552.5 c 2,43,-1
 319 536 l 1,44,45
 321.987341772 503.139240506 321.987341772 503.139240506 331 493 c 128,-1,46
 340 483 340 483 359 473 c 128,-1,47
 378 463 378 463 399 454 c 0,48,49
 460.833333333 427.5 460.833333333 427.5 481.916666667 419.25 c 128,-1,50
 503 411 503 411 563 385 c 0,51,52
 927.736842105 226.947368421 927.736842105 226.947368421 1020.36842105 181.473684211 c 128,-1,53
 1113 136 1113 136 1173 117 c 1,54,-1
 1004 46 l 1,0,1
383 596 m 1,55,56
 383.474068367 595.982712245 383.474068367 595.982712245 384.237034184 596.491356122 c 128,-1,57
 385 597 385 597 383 596 c 1,55,56
379 594 m 1,58,-1
 363 586 l 1,59,-1
 379 594 l 1,58,-1
297 597 m 1,60,61
 296.16227766 596.83772234 296.16227766 596.83772234 295.5 596.5 c 1,62,63
 296 596 296 596 297 597 c 1,60,61
353 582 m 2,64,-1
 359 585 l 2,65,66
 354 582 354 582 353 582 c 2,64,-1
297 597 m 2,67,-1
 299 598 l 2,68,69
 298 598 298 598 297 597 c 2,67,-1
EndSplineSet
EndChar

StartChar: Z
Encoding: 61 61 33
Width: 1167
Flags: W
LayerCount: 2
Fore
SplineSet
1184 314 m 1,0,1
 1132 285.771428571 1132 285.771428571 1043 240 c 1,2,-1
 175 240 l 1,3,-1
 316 314 l 1,4,-1
 1184 314 l 1,0,1
1184 777 m 1,5,6
 1132 748.771428571 1132 748.771428571 1043 703 c 1,7,-1
 175 703 l 1,8,-1
 316 777 l 1,9,-1
 1184 777 l 1,5,6
EndSplineSet
EndChar

StartChar: bracketleft
Encoding: 62 62 34
Width: 1167
Flags: W
LayerCount: 2
Fore
SplineSet
309 970 m 1,0,1
 376.454545455 945.909090909 376.454545455 945.909090909 494.227272727 888.954545455 c 128,-1,2
 612 832 612 832 703.5 793 c 0,3,4
 896.666666667 710.666666667 896.666666667 710.666666667 941.333333333 688.833333333 c 128,-1,5
 986 667 986 667 1016 655 c 128,-1,6
 1046 643 1046 643 1077.5 628.5 c 0,7,8
 1159.01526718 590.977099237 1159.01526718 590.977099237 1168.50763359 577.488549618 c 0,9,10
 1182.91259259 557.019259259 1182.91259259 557.019259259 1178.4562963 531.50962963 c 128,-1,11
 1174 506 1174 506 1159 487.5 c 128,-1,12
 1144 469 1144 469 1123 454.5 c 0,13,14
 1081 425.5 1081 425.5 1031.5 406.25 c 2,15,-1
 964 380 l 2,16,17
 961 379 961 379 956 377 c 128,-1,18
 951 375 951 375 947 373.5 c 128,-1,19
 943 372 943 372 940.5 371 c 128,-1,20
 938 370 938 370 941 372 c 0,21,22
 947 376 947 376 953.5 378 c 2,23,-1
 947 376 l 1,24,-1
 960 382 l 2,25,26
 961 383 961 383 959 382 c 0,27,28
 955 380 955 380 946 376 c 1,29,-1
 945 375 l 1,30,-1
 897 361 l 1,31,-1
 932 370 l 1,32,-1
 943 374 l 1,33,-1
 870 341 l 2,34,35
 838 327 838 327 816 317 c 128,-1,36
 794 307 794 307 776 299 c 128,-1,37
 758 291 758 291 743.5 284.5 c 128,-1,38
 729 278 729 278 713 271.5 c 0,39,40
 674.869158879 256.009345794 674.869158879 256.009345794 597.434579439 221.004672897 c 2,41,-1
 473 165.5 l 2,42,43
 464 161 464 161 459.5 158.5 c 2,44,-1
 394 124.5 l 1,45,46
 318.875647668 89.7202072539 318.875647668 89.7202072539 226 60 c 1,47,-1
 243 106 l 1,48,49
 282 118 282 118 318 137 c 128,-1,50
 354 156 354 156 424 188 c 128,-1,51
 494 220 494 220 595.5 264 c 128,-1,52
 697 308 697 308 763 337.5 c 128,-1,53
 829 367 829 367 859.5 381.5 c 128,-1,54
 890 396 890 396 921 406 c 2,55,-1
 956 417 l 1,56,57
 976.888888889 427.444444444 976.888888889 427.444444444 992.444444444 446.722222222 c 128,-1,58
 1008 466 1008 466 1003.5 485 c 128,-1,59
 999 504 999 504 982 517.5 c 128,-1,60
 965 531 965 531 942 540.5 c 128,-1,61
 919 550 919 550 901 558 c 2,62,-1
 820 594 l 1,63,64
 711 645 711 645 602.5 692.5 c 128,-1,65
 494 740 494 740 408.5 778.5 c 128,-1,66
 323 817 323 817 263.5 846.5 c 128,-1,67
 204 876 204 876 140 899 c 1,68,-1
 309 970 l 1,0,1
418 139 m 1,69,-1
 419 140 l 1,70,-1
 418 139 l 1,69,-1
411 136 m 2,71,72
 409.86037961 135.879873463 409.86037961 135.879873463 409.5 135.5 c 2,73,-1
 411 136 l 2,71,72
984 425 m 256,74,75
 983 425 983 425 983 424.5 c 0,76,77
 984.13962039 424.370126537 984.13962039 424.370126537 984.569810195 424.685063268 c 128,-1,78
 985 425 985 425 984 425 c 256,74,75
945 375 m 1,79,-1
 946 376 l 2,80,81
 945 376 945 376 945 375.5 c 2,82,-1
 945 375 l 1,79,-1
944 375 m 1,83,-1
 943 374 l 1,84,-1
 944 375 l 1,83,-1
947 376 m 1,85,-1
 946 376 l 1,86,-1
 947 376 l 1,85,-1
EndSplineSet
EndChar

StartChar: backslash
Encoding: 63 63 35
Width: 870
Flags: W
LayerCount: 2
Fore
SplineSet
338 1208 m 1,0,1
 405.901098901 1325.28371628 405.901098901 1325.28371628 487 1381.5 c 0,2,3
 571.201438849 1439.86690647 571.201438849 1439.86690647 704 1462 c 0,4,5
 830.433158202 1483.67425569 830.433158202 1483.67425569 911 1429.5 c 0,6,7
 940 1410 940 1410 965.5 1367 c 128,-1,8
 991 1324 991 1324 996.5 1270.5 c 128,-1,9
 1002 1217 1002 1217 987.5 1166.5 c 0,10,11
 958.721656051 1066.27197452 958.721656051 1066.27197452 870 986 c 0,12,13
 810.506493506 933.116883117 810.506493506 933.116883117 717 870 c 1,14,15
 675 840 675 840 639 814.5 c 128,-1,16
 603 789 603 789 583 765.5 c 128,-1,17
 563 742 563 742 547 708.5 c 128,-1,18
 531 675 531 675 526.5 640.5 c 0,19,20
 511.231578947 523.442105263 511.231578947 523.442105263 625 495 c 0,21,22
 657.25 487.321428571 657.25 487.321428571 704 494 c 1,23,-1
 705 494 l 1,24,-1
 718 458 l 1,25,26
 527.016611296 388.551495017 527.016611296 388.551495017 424 434 c 0,27,28
 349.682472204 464.814584696 349.682472204 464.814584696 348.5 553.5 c 0,29,30
 347.049621531 662.278385198 347.049621531 662.278385198 438.5 744 c 0,31,32
 462 765 462 765 488 784 c 2,33,-1
 568 840 l 1,34,35
 724.269230769 941.115384615 724.269230769 941.115384615 777 1029 c 0,36,37
 852.341772152 1154.56962025 852.341772152 1154.56962025 801 1277 c 0,38,39
 759.350318471 1376.31847134 759.350318471 1376.31847134 667 1390 c 0,40,41
 640 1394 640 1394 612 1394 c 1,42,43
 569.866666667 1359.76666667 569.866666667 1359.76666667 514 1262 c 1,44,-1
 338 1208 l 1,0,1
424 -25 m 1,45,46
 369 -23 369 -23 340 10 c 0,47,48
 307 43 307 43 307 100.5 c 128,-1,49
 307 158 307 158 344 194.5 c 128,-1,50
 381 231 381 231 439.5 231 c 128,-1,51
 498 231 498 231 528 199 c 0,52,53
 557 164 557 164 557 117 c 0,54,55
 553 -20 553 -20 424 -25 c 1,45,46
EndSplineSet
EndChar

StartChar: bracketright
Encoding: 64 64 36
Width: 1626
Flags: W
LayerCount: 2
Fore
SplineSet
1382 1060 m 1,0,1
 1371.5 1042.5 1371.5 1042.5 1370 1041 c 1,2,3
 1379.19371728 1015.71727749 1379.19371728 1015.71727749 1368.09685864 987.358638743 c 128,-1,4
 1357 959 1357 959 1350.5 923.5 c 128,-1,5
 1344 888 1344 888 1321.5 830 c 128,-1,6
 1299 772 1299 772 1282 712 c 1,7,-1
 1271 708 l 1,8,9
 1277 698 1277 698 1277 681.5 c 128,-1,10
 1277 665 1277 665 1274.5 648 c 128,-1,11
 1272 631 1272 631 1269 616.5 c 128,-1,12
 1266 602 1266 602 1264.5 591 c 0,13,14
 1261 565.333333333 1261 565.333333333 1261 547.666666667 c 0,15,16
 1261 432.25 1261 432.25 1348 425 c 0,17,18
 1368.5 420.9 1368.5 420.9 1389.75 440.45 c 128,-1,19
 1411 460 1411 460 1422.5 471.5 c 128,-1,20
 1434 483 1434 483 1442 492 c 128,-1,21
 1450 501 1450 501 1452 503 c 0,22,23
 1575.08742331 653.440184049 1575.08742331 653.440184049 1558.5 873.5 c 0,24,25
 1542.53464137 1085.3070911 1542.53464137 1085.3070911 1405 1229 c 0,26,27
 1276.10503282 1361.9868709 1276.10503282 1361.9868709 1080 1386.5 c 0,28,29
 781.907997169 1423.76150035 781.907997169 1423.76150035 584.5 1169.5 c 0,30,31
 460.046451424 1009.20382943 460.046451424 1009.20382943 427 797.5 c 0,32,33
 394.298697661 588.007281893 394.298697661 588.007281893 469.5 398.5 c 0,34,35
 586.939580923 102.552256074 586.939580923 102.552256074 922.5 42 c 0,36,37
 1072.43219543 14.9445662386 1072.43219543 14.9445662386 1190 40 c 0,38,39
 1251 53 1251 53 1319 80 c 1,40,-1
 1361 56 l 1,41,42
 1258.18032787 14.2295081967 1258.18032787 14.2295081967 1197.59016393 -3.88524590164 c 128,-1,43
 1137 -22 1137 -22 1049.5 -34.5 c 128,-1,44
 962 -47 962 -47 874.5 -44 c 0,45,46
 689.046460177 -37.6415929204 689.046460177 -37.6415929204 539 47 c 256,47,48
 316.015320836 172.786229272 316.015320836 172.786229272 258.5 439 c 0,49,50
 199.636363636 711.454545455 199.636363636 711.454545455 328.5 983.5 c 0,51,52
 375.513812155 1082.75138122 375.513812155 1082.75138122 412.256906077 1121.37569061 c 128,-1,53
 449 1160 449 1160 462 1174.5 c 128,-1,54
 475 1189 475 1189 484 1198 c 128,-1,55
 493 1207 493 1207 500 1213.5 c 128,-1,56
 507 1220 507 1220 516 1227.5 c 0,57,58
 600.272727273 1297.72727273 600.272727273 1297.72727273 661.136363636 1327.86363636 c 128,-1,59
 722 1358 722 1358 784 1384 c 128,-1,60
 846 1410 846 1410 925 1430.5 c 128,-1,61
 1004 1451 1004 1451 1084.5 1458 c 128,-1,62
 1165 1465 1165 1465 1244.5 1456 c 128,-1,63
 1324 1447 1324 1447 1396.5 1419 c 0,64,65
 1601.58561644 1339.79452055 1601.58561644 1339.79452055 1689 1130 c 0,66,67
 1752.09875583 978.562986003 1752.09875583 978.562986003 1734.5 824 c 0,68,69
 1711.2099871 619.452930219 1711.2099871 619.452930219 1556.5 488 c 0,70,71
 1471.62794955 415.886493084 1471.62794955 415.886493084 1324.5 371 c 0,72,73
 1159.59650401 320.690458849 1159.59650401 320.690458849 1110 388 c 0,74,75
 1082 426 1082 426 1082 466 c 128,-1,76
 1082 506 1082 506 1085 531 c 1,77,78
 1019.98875256 457.600204499 1019.98875256 457.600204499 935 424 c 0,79,80
 893 408 893 408 870.5 399 c 128,-1,81
 848 390 848 390 841.5 388 c 128,-1,82
 835 386 835 386 829.5 384.5 c 0,83,84
 813 380 813 380 822 383 c 2,85,-1
 840 390 l 1,86,-1
 818 383 l 1,87,88
 677.6 334.4 677.6 334.4 636 424 c 0,89,90
 614.25 467.5 614.25 467.5 627.5 547 c 2,91,-1
 634 586 l 1,92,93
 675.619047619 811.619047619 675.619047619 811.619047619 818 954 c 0,94,95
 880.823529412 1016.82352941 880.823529412 1016.82352941 975.5 1056 c 0,96,97
 990 1062 990 1062 1004 1068 c 128,-1,98
 1018 1074 1018 1074 1052.5 1087 c 128,-1,99
 1087 1100 1087 1100 1150.5 1107.5 c 128,-1,100
 1214 1115 1214 1115 1257 1105.5 c 0,101,102
 1337.75609756 1087.65853659 1337.75609756 1087.65853659 1363 1054 c 1,103,-1
 1382 1060 l 1,0,1
1115 688 m 1,104,105
 1130 738 1130 738 1146.5 787 c 128,-1,106
 1163 836 1163 836 1171 866 c 128,-1,107
 1179 896 1179 896 1183.5 908 c 128,-1,108
 1188 920 1188 920 1191.5 933 c 0,109,110
 1200.11827957 965.010752688 1200.11827957 965.010752688 1191.55913978 979.505376344 c 128,-1,111
 1183 994 1183 994 1168.5 1005 c 128,-1,112
 1154 1016 1154 1016 1137 1022 c 0,113,114
 1081 1041.76470588 1081 1041.76470588 1032 1036 c 1,115,116
 1011.2 1023.2 1011.2 1023.2 973.6 985.6 c 0,117,118
 869.882352941 881.882352941 869.882352941 881.882352941 821 694.5 c 0,119,120
 785.730569948 559.300518135 785.730569948 559.300518135 812 491 c 0,121,122
 831.6 442 831.6 442 873 442 c 1,123,124
 912.735099338 469.01986755 912.735099338 469.01986755 942.867549669 515.509933775 c 0,125,126
 1004.31578947 610.315789474 1004.31578947 610.315789474 1031.37218045 637.372180451 c 128,-1,127
 1058.42857143 664.428571429 1058.42857143 664.428571429 1115 688 c 1,104,105
1074 1054 m 0,128,129
 1077 1056 1077 1056 1074.5 1055 c 2,130,-1
 1067 1052 l 2,131,132
 1068 1052 1068 1052 1074 1054 c 0,128,129
841 391 m 1,133,-1
 840 390 l 1,134,-1
 841 391 l 1,133,-1
EndSplineSet
EndChar

StartChar: asciicircum
Encoding: 65 65 37
Width: 1278
Flags: W
LayerCount: 2
Fore
SplineSet
1180 134 m 1,0,-1
 1188 128 l 2,1,2
 1188 127 1188 127 1197.5 121.5 c 128,-1,3
 1207 116 1207 116 1222 105 c 128,-1,4
 1237 94 1237 94 1254.5 88 c 128,-1,5
 1272 82 1272 82 1288 80 c 128,-1,6
 1304 78 1304 78 1320.5 77 c 128,-1,7
 1337 76 1337 76 1353.5 75.5 c 128,-1,8
 1370 75 1370 75 1386 72 c 1,9,-1
 1217 1 l 1,10,11
 1184 7 1184 7 1151.5 6 c 128,-1,12
 1119 5 1119 5 1097 12.5 c 0,13,14
 1064.54455446 23.5643564356 1064.54455446 23.5643564356 1044 40 c 1,15,16
 946.888888889 2 946.888888889 2 888.944444444 2 c 128,-1,17
 831 2 831 2 790 -1 c 1,18,19
 879 44.7714285714 879 44.7714285714 931 73 c 1,20,21
 948 74 948 74 965.5 74 c 2,22,-1
 1000 74 l 1,23,24
 1011.70229008 95.7328244275 1011.70229008 95.7328244275 1008.35114504 120.866412214 c 128,-1,25
 1005 146 1005 146 1002.5 161.5 c 128,-1,26
 1000 177 1000 177 997 221 c 128,-1,27
 994 265 994 265 983.5 337.5 c 128,-1,28
 973 410 973 410 967.5 459 c 128,-1,29
 962 508 962 508 962.5 533.5 c 128,-1,30
 963 559 963 559 958 584 c 1,31,32
 859.4 556.8 859.4 556.8 833 570 c 1,33,-1
 642 570 l 1,34,-1
 516 566 l 1,35,36
 476.351351351 495.513513514 476.351351351 495.513513514 442.675675676 426.756756757 c 128,-1,37
 409 358 409 358 393.5 333 c 128,-1,38
 378 308 378 308 365.5 284.5 c 128,-1,39
 353 261 353 261 342 241 c 128,-1,40
 331 221 331 221 324.5 200 c 128,-1,41
 318 179 318 179 315.5 165 c 128,-1,42
 313 151 313 151 311 139.5 c 0,43,44
 307.027027027 116.655405405 307.027027027 116.655405405 294 102 c 1,45,-1
 303 106 l 1,46,47
 333.672605791 82.29844098 333.672605791 82.29844098 374.836302895 80.14922049 c 0,48,49
 453.892000732 76.0215998536 453.892000732 76.0215998536 474 72 c 1,50,-1
 317 -1 l 1,51,52
 294 2 294 2 271 3 c 128,-1,53
 248 4 248 4 225 5.5 c 0,54,55
 174.325203252 8.80487804878 174.325203252 8.80487804878 139 30 c 1,56,57
 130 27 130 27 105.5 18.5 c 128,-1,58
 81 10 81 10 32 7 c 128,-1,59
 -17 4 -17 4 -64 1 c 1,60,-1
 -67 1 l 1,61,62
 -42 18 -42 18 -17.5 35 c 128,-1,63
 7 52 7 52 32 69 c 1,64,65
 58 74 58 74 83.5 75.5 c 128,-1,66
 109 77 109 77 135 79 c 1,67,-1
 146 132.5 l 2,68,69
 155.06122449 172.142857143 155.06122449 172.142857143 191.030612245 231.071428571 c 128,-1,70
 227 290 227 290 246.5 329.5 c 0,71,72
 296.244897959 430.265306122 296.244897959 430.265306122 317.12244898 469.132653061 c 128,-1,73
 338 508 338 508 352.5 535 c 0,74,75
 375.810126582 578.405063291 375.810126582 578.405063291 403 592 c 1,76,77
 416.52866242 611.541401274 416.52866242 611.541401274 427.76433121 652.270700637 c 128,-1,78
 439 693 439 693 452.5 718 c 128,-1,79
 466 743 466 743 488.5 788 c 128,-1,80
 511 833 511 833 533.5 879.5 c 128,-1,81
 556 926 556 926 578 971.5 c 128,-1,82
 600 1017 600 1017 620 1054 c 128,-1,83
 640 1091 640 1091 659 1129.5 c 128,-1,84
 678 1168 678 1168 695.5 1198 c 128,-1,85
 713 1228 713 1228 724 1250 c 128,-1,86
 735 1272 735 1272 748 1292 c 0,87,88
 776.76975945 1336.26116838 776.76975945 1336.26116838 811.384879725 1356.13058419 c 128,-1,89
 846 1376 846 1376 878 1388 c 1,90,91
 884.352941176 1402.82352941 884.352941176 1402.82352941 886 1416 c 1,92,-1
 1064 1477 l 1,93,94
 1061 1450 1061 1450 1044 1430 c 1,95,-1
 1060 1436 l 1,96,97
 1070 1319 1070 1319 1084 1202 c 1,98,-1
 1109 1015 l 1,99,100
 1143.92857143 770.5 1143.92857143 770.5 1106 682 c 1,101,-1
 1121 688 l 1,102,103
 1138 659 1138 659 1139 623.5 c 128,-1,104
 1140 588 1140 588 1142 560 c 128,-1,105
 1144 532 1144 532 1147.5 509.5 c 128,-1,106
 1151 487 1151 487 1154 465.5 c 128,-1,107
 1157 444 1157 444 1160 423.5 c 128,-1,108
 1163 403 1163 403 1166.5 376.5 c 0,109,110
 1171.96 335.16 1171.96 335.16 1175.48 282.08 c 128,-1,111
 1179 229 1179 229 1183 207 c 0,112,113
 1191.67391304 159.293478261 1191.67391304 159.293478261 1180 134 c 1,0,-1
582 651 m 1,114,115
 592.5 644 592.5 644 632 644 c 2,116,-1
 936 644 l 1,117,118
 936 645 936 645 941.5 667 c 128,-1,119
 947 689 947 689 940.5 729.5 c 128,-1,120
 934 770 934 770 927.5 815 c 128,-1,121
 921 860 921 860 915.5 918.5 c 128,-1,122
 910 977 910 977 905.5 1038 c 128,-1,123
 901 1099 901 1099 897 1160.5 c 128,-1,124
 893 1222 893 1222 889 1280 c 1,125,126
 846.938053097 1207.89380531 846.938053097 1207.89380531 808.469026549 1128.44690265 c 128,-1,127
 770 1049 770 1049 746 999.5 c 0,128,129
 675.627118644 854.355932203 675.627118644 854.355932203 648.313559322 807.177966102 c 128,-1,130
 621 760 621 760 613.5 740 c 128,-1,131
 606 720 606 720 601.5 699 c 128,-1,132
 597 678 597 678 591 667.5 c 128,-1,133
 585 657 585 657 584.5 655 c 128,-1,134
 584 653 584 653 582 651 c 1,114,115
130 65 m 1,135,-1
 131 66 l 1,136,137
 120 62 120 62 114 60 c 128,-1,138
 108 58 108 58 116 60 c 2,139,-1
 130 65 l 1,135,-1
926 1405 m 1,140,-1
 924.5 1404 l 1,141,142
 928 1405 928 1405 926 1405 c 1,140,-1
588 647 m 1,143,-1
 582 650 l 1,144,-1
 581 650 l 1,145,-1
 582 650 l 1,146,-1
 588 647 l 1,143,-1
EndSplineSet
EndChar

StartChar: underscore
Encoding: 66 66 38
Width: 1294
Flags: W
LayerCount: 2
Fore
SplineSet
187 66 m 1,0,1
 251.333333333 66 251.333333333 66 298 71 c 1,2,-1
 302 71 l 1,3,-1
 302 72 l 1,4,5
 310 123 310 123 312.5 173.5 c 128,-1,6
 315 224 315 224 327 288 c 128,-1,7
 339 352 339 352 358 427.5 c 128,-1,8
 377 503 377 503 388.5 555 c 128,-1,9
 400 607 400 607 403.5 636 c 128,-1,10
 407 665 407 665 412 694 c 0,11,12
 423.946107784 763.28742515 423.946107784 763.28742515 449 804 c 1,13,-1
 453 805 l 1,14,15
 438.146341463 847.43902439 438.146341463 847.43902439 468.5 938.5 c 0,16,17
 483 982 483 982 510 1109.5 c 128,-1,18
 537 1237 537 1237 540 1326 c 1,19,20
 528.357142857 1326 528.357142857 1326 510.678571429 1342.5 c 0,21,22
 480.526315789 1370.64210526 480.526315789 1370.64210526 457.263157895 1377.32105263 c 128,-1,23
 434 1384 434 1384 398.5 1383 c 128,-1,24
 363 1382 363 1382 331 1382 c 1,25,-1
 472 1456 l 1,26,27
 512 1456 512 1456 554.5 1456.5 c 128,-1,28
 597 1457 597 1457 623.5 1449.5 c 0,29,30
 659.763157895 1439.23684211 659.763157895 1439.23684211 686 1413 c 1,31,32
 689 1415 689 1415 692.5 1415.5 c 128,-1,33
 696 1416 696 1416 742 1431.5 c 128,-1,34
 788 1447 788 1447 882 1454 c 128,-1,35
 976 1461 976 1461 1035 1453 c 0,36,37
 1129.55128205 1440.17948718 1129.55128205 1440.17948718 1171.27564103 1424.08974359 c 0,38,39
 1263.63002028 1388.47605609 1263.63002028 1388.47605609 1299.31501014 1334.23802804 c 128,-1,40
 1335 1280 1335 1280 1344.5 1229 c 128,-1,41
 1354 1178 1354 1178 1347 1127.5 c 0,42,43
 1322.91954766 953.776736672 1322.91954766 953.776736672 1137 858 c 0,44,45
 1131 854 1131 854 1124.5 851.5 c 128,-1,46
 1118 849 1118 849 1111 845.5 c 128,-1,47
 1104 842 1104 842 1092 837 c 128,-1,48
 1080 832 1080 832 1073.5 829 c 0,49,50
 1060.15789474 822.842105263 1060.15789474 822.842105263 1027 811 c 1,51,52
 1021.67346939 793.244897959 1021.67346939 793.244897959 1042 778 c 1,53,54
 1067 765 1067 765 1091.5 752.5 c 128,-1,55
 1116 740 1116 740 1137.5 725 c 0,56,57
 1234.79066606 657.122791119 1234.79066606 657.122791119 1257 538 c 128,-1,58
 1279.21653543 418.838582677 1279.21653543 418.838582677 1230 304 c 0,59,60
 1192.28571429 216 1192.28571429 216 1119 159 c 0,61,62
 945.7275 24.2325 945.7275 24.2325 696.5 -0.5 c 0,63,64
 614.769911504 -8.61061946903 614.769911504 -8.61061946903 521.884955752 -2.80530973451 c 128,-1,65
 429 3 429 3 399.5 11.5 c 0,66,67
 358.952191235 23.1832669323 358.952191235 23.1832669323 330 41 c 1,68,69
 204.777777778 -8 204.777777778 -8 46 -8 c 1,70,71
 135 37.7714285714 135 37.7714285714 187 66 c 1,0,1
651 74 m 1,72,-1
 694.5 70.5 l 2,73,74
 720.333333333 68 720.333333333 68 757.166666667 68 c 128,-1,75
 794 68 794 68 819 69.5 c 0,76,77
 981.628243814 79.2576946288 981.628243814 79.2576946288 1051.5 245 c 0,78,79
 1095.68526562 349.811560307 1095.68526562 349.811560307 1081 461 c 0,80,81
 1059.0952381 608.857142857 1059.0952381 608.857142857 936 676 c 0,82,83
 927 681 927 681 912.5 686 c 128,-1,84
 898 691 898 691 884.5 698 c 0,85,86
 851.356037152 715.185758514 851.356037152 715.185758514 848 737 c 1,87,88
 793 733 793 733 739 739 c 128,-1,89
 685 745 685 745 652 742.5 c 128,-1,90
 619 740 619 740 608.5 739 c 128,-1,91
 598 738 598 738 587 738 c 1,92,93
 583 713 583 713 580 688.5 c 128,-1,94
 577 664 577 664 566 614.5 c 128,-1,95
 555 565 555 565 536 489 c 128,-1,96
 517 413 517 413 505.5 349 c 128,-1,97
 494 285 494 285 491.5 233 c 128,-1,98
 489 181 489 181 480 129 c 1,99,100
 535.018587361 82.7843866171 535.018587361 82.7843866171 616 77 c 0,101,102
 630 76 630 76 644 74 c 1,103,-1
 651 74 l 1,72,-1
914 811 m 1,104,105
 943.25 826.75 943.25 826.75 1007 848 c 2,106,-1
 1038 858 l 1,107,108
 1148.74157303 929.191011236 1148.74157303 929.191011236 1167.5 1060.5 c 0,109,110
 1177 1127 1177 1127 1159 1195 c 0,111,112
 1124.98666154 1316.73194819 1124.98666154 1316.73194819 980.5 1359.5 c 0,113,114
 872.797979798 1391.37979798 872.797979798 1391.37979798 719 1376 c 1,115,-1
 718 1375 l 1,116,117
 710.614457831 1256.8313253 710.614457831 1256.8313253 680 1130 c 256,118,119
 673 1101 673 1101 667 1070 c 128,-1,120
 661 1039 661 1039 653 1012.5 c 128,-1,121
 645 986 645 986 636.5 959 c 128,-1,122
 628 932 628 932 626.5 905.5 c 0,123,124
 623.018348624 843.990825688 623.018348624 843.990825688 675 818 c 0,125,126
 697.725274725 807.67032967 697.725274725 807.67032967 764.362637363 811.835164835 c 128,-1,127
 831 816 831 816 844 815 c 2,128,-1
 914 811 l 1,104,105
1082 832 m 2,129,130
 1080 832 1080 832 1080 831 c 2,131,-1
 1082 832 l 2,129,130
EndSplineSet
EndChar

StartChar: grave
Encoding: 67 67 39
Width: 1354
Flags: W
LayerCount: 2
Fore
SplineSet
1361 1056 m 1,0,1
 1372 1148.4 1372 1148.4 1372 1193.2 c 128,-1,2
 1372 1238 1372 1238 1374 1255 c 128,-1,3
 1376 1272 1376 1272 1366.5 1287.5 c 128,-1,4
 1357 1303 1357 1303 1340.5 1317.5 c 128,-1,5
 1324 1332 1324 1332 1304.5 1343.5 c 0,6,7
 1240.59362772 1381.18837339 1240.59362772 1381.18837339 1154.29681386 1396.0941867 c 128,-1,8
 1068 1411 1068 1411 1010.5 1411.5 c 0,9,10
 877.029825163 1412.66061022 877.029825163 1412.66061022 802.014912581 1367.83030511 c 128,-1,11
 727 1323 727 1323 669 1258 c 128,-1,12
 611 1193 611 1193 568 1116 c 0,13,14
 489.231065469 974.948652118 489.231065469 974.948652118 453 787 c 0,15,16
 404.705241661 538.626957114 404.705241661 538.626957114 481 338 c 0,17,18
 588.759312321 54.6329194524 588.759312321 54.6329194524 918 40 c 1,19,20
 1084.39130435 28.3913043478 1084.39130435 28.3913043478 1148 92 c 1,21,22
 1155 106 1155 106 1163 120 c 0,23,24
 1180.6 150.8 1180.6 150.8 1191.3 176.4 c 128,-1,25
 1202 202 1202 202 1224 246.5 c 128,-1,26
 1246 291 1246 291 1262 340 c 1,27,-1
 1440 401 l 1,28,29
 1417.18987342 324.518987342 1417.18987342 324.518987342 1398.59493671 288.759493671 c 128,-1,30
 1380 253 1380 253 1374 240.5 c 0,31,32
 1359 209.25 1359 209.25 1358.5 210.625 c 128,-1,33
 1358 212 1358 212 1358 209 c 1,34,-1
 1346 183 l 2,35,36
 1323.760181 134.07239819 1323.760181 134.07239819 1282.8800905 107.536199095 c 128,-1,37
 1242 81 1242 81 1211 66 c 0,38,39
 1079.85827216 2.54432523998 1079.85827216 2.54432523998 955.429136081 -17.72783738 c 128,-1,40
 831 -38 831 -38 742 -33 c 0,41,42
 542.32922294 -21.7825406146 542.32922294 -21.7825406146 424 91 c 0,43,44
 308.224827586 199.424367816 308.224827586 199.424367816 271.5 387.5 c 0,45,46
 240.907246377 544.171980676 240.907246377 544.171980676 270.453623188 700.585990338 c 128,-1,47
 300 857 300 857 348 970 c 128,-1,48
 396 1083 396 1083 470 1174 c 0,49,50
 657.156554605 1404.15197931 657.156554605 1404.15197931 1003 1468 c 0,51,52
 1229.97042849 1509.90223295 1229.97042849 1509.90223295 1434 1434.5 c 0,53,54
 1519.87437186 1402.7638191 1519.87437186 1402.7638191 1545 1350 c 0,55,56
 1553 1336 1553 1336 1551.5 1319.5 c 128,-1,57
 1550 1303 1550 1303 1550 1274 c 0,58,59
 1550 1211.6 1550 1211.6 1539 1117 c 1,60,-1
 1361 1056 l 1,0,1
1158 104 m 1,61,-1
 1158 103.5 l 1,62,63
 1159 105 1159 105 1158 104 c 1,61,-1
EndSplineSet
EndChar

StartChar: a
Encoding: 68 68 40
Width: 1563
Flags: W
LayerCount: 2
Fore
SplineSet
336 32 m 0,0,1
 244.8 -6 244.8 -6 145 -6 c 0,2,3
 125 -6 125 -6 109.5 -6 c 0,4,5
 93 -6 93 -6 70 -10 c 1,6,7
 75 -7 75 -7 93 -4 c 1,8,-1
 166 57 l 1,9,10
 199 65 199 65 231.5 65.5 c 128,-1,11
 264 66 264 66 298 68 c 1,12,-1
 306 72 l 1,13,14
 311 177 311 177 333.5 277 c 128,-1,15
 356 377 356 377 382 493.5 c 128,-1,16
 408 610 408 610 436.5 740 c 128,-1,17
 465 870 465 870 488.5 976 c 128,-1,18
 512 1082 512 1082 529 1161 c 128,-1,19
 546 1240 546 1240 549 1324 c 1,20,21
 532 1330 532 1330 517 1346 c 128,-1,22
 502 1362 502 1362 477.5 1373 c 128,-1,23
 453 1384 453 1384 413.5 1382 c 128,-1,24
 374 1380 374 1380 340 1380 c 1,25,-1
 481 1454 l 1,26,27
 605.090909091 1454 605.090909091 1454 635.045454545 1446.5 c 128,-1,28
 665 1439 665 1439 674.5 1429.5 c 128,-1,29
 684 1420 684 1420 695 1411 c 1,30,31
 809.721829522 1454.51517672 809.721829522 1454.51517672 1029 1453.5 c 0,32,33
 1219.66952724 1452.61727071 1219.66952724 1452.61727071 1369.5 1379.5 c 0,34,35
 1561.84035326 1285.63790761 1561.84035326 1285.63790761 1605 1030 c 0,36,37
 1635.69894147 848.167808219 1635.69894147 848.167808219 1582.5 637.5 c 0,38,39
 1561.58617567 554.68125566 1561.58617567 554.68125566 1512.29308784 464.84062783 c 128,-1,40
 1463 375 1463 375 1414.5 316.5 c 128,-1,41
 1366 258 1366 258 1300.5 209 c 128,-1,42
 1235 160 1235 160 1162 123 c 0,43,44
 1029.83718104 56.0133657351 1029.83718104 56.0133657351 891.918590522 24.5066828676 c 128,-1,45
 754 -7 754 -7 654 -8.5 c 128,-1,46
 554 -10 554 -10 498 -5.5 c 128,-1,47
 442 -1 442 -1 428 0 c 128,-1,48
 414 1 414 1 399.5 3.5 c 0,49,50
 358.416666667 10.5833333333 358.416666667 10.5833333333 348.708333333 20.2916666667 c 128,-1,51
 339 30 339 30 336 32 c 0,0,1
477 120 m 1,52,53
 492 117 492 117 501 110 c 2,54,-1
 524 90 l 1,55,56
 529 88 529 88 531 87 c 128,-1,57
 533 86 533 86 541.5 83.5 c 0,58,59
 604.4 65 604.4 65 713.7 64.5 c 128,-1,60
 823 64 823 64 892 73 c 128,-1,61
 961 82 961 82 1022.5 105.5 c 0,62,63
 1183.3883039 166.977644581 1183.3883039 166.977644581 1298 341.5 c 0,64,65
 1433.75944261 548.224605794 1433.75944261 548.224605794 1438 817.5 c 0,66,67
 1445.66841244 1304.44418985 1445.66841244 1304.44418985 1003 1369 c 0,68,69
 860.384615385 1389.79807692 860.384615385 1389.79807692 726 1373 c 1,70,71
 722 1293 722 1293 705.5 1216.5 c 128,-1,72
 689 1140 689 1140 666 1035.5 c 128,-1,73
 643 931 643 931 614.5 801 c 128,-1,74
 586 671 586 671 560 553.5 c 128,-1,75
 534 436 534 436 511 333 c 128,-1,76
 488 230 488 230 484 123 c 1,77,-1
 477 120 l 1,52,53
335 71 m 1,78,79
 338 71 338 71 348 73 c 0,80,81
 352 74 352 74 345.5 73 c 128,-1,82
 339 72 339 72 335 71 c 1,78,79
749 1395 m 0,83,84
 749 1396 749 1396 744 1393 c 1,85,86
 745 1393 745 1393 749 1395 c 0,83,84
286 55 m 1,87,-1
 286 55.5 l 2,88,89
 286 56 286 56 286 56 c 1,90,-1
 286 55 l 1,87,-1
518 94 m 1,91,-1
 518 93 l 2,92,93
 518 94 518 94 518 94 c 1,91,-1
EndSplineSet
EndChar

StartChar: b
Encoding: 69 69 41
Width: 1221
Flags: W
LayerCount: 2
Fore
SplineSet
1014 794 m 1,0,-1
 1041 797 l 1,1,2
 1063.19512195 842.975609756 1063.19512195 842.975609756 1078 917 c 1,3,-1
 1256 978 l 1,4,5
 1228.97981771 845.35546875 1228.97981771 845.35546875 1167 775 c 1,6,-1
 1165 774 l 1,7,8
 1192.76390773 744.100407056 1192.76390773 744.100407056 1173.5 643.5 c 0,9,10
 1169 620 1169 620 1169 603 c 1,11,-1
 991 542 l 1,12,13
 991 557 991 557 995.5 582 c 128,-1,14
 1000 607 1000 607 1003 632.5 c 0,15,16
 1010.27906977 694.372093023 1010.27906977 694.372093023 991.139534884 708.186046512 c 0,17,18
 967.55379544 725.209046791 967.55379544 725.209046791 913 722 c 1,19,-1
 888 721 l 1,20,-1
 881 720 l 1,21,-1
 589 720 l 1,22,23
 587 710 587 710 585.5 700.5 c 128,-1,24
 584 691 584 691 571 637.5 c 0,25,26
 523.011523688 440.008962868 523.011523688 440.008962868 508.505761844 355.004481434 c 128,-1,27
 494 270 494 270 489 247 c 128,-1,28
 484 224 484 224 481 200 c 0,29,30
 474.027027027 144.216216216 474.027027027 144.216216216 491.013513514 123.608108108 c 128,-1,31
 508 103 508 103 526 95 c 128,-1,32
 544 87 544 87 564 83 c 0,33,34
 589 78 589 78 652 78 c 128,-1,35
 715 78 715 78 786 74.5 c 128,-1,36
 857 71 857 71 906 73 c 128,-1,37
 955 75 955 75 979 77 c 128,-1,38
 1003 79 1003 79 1028 81 c 1,39,40
 1033 92 1033 92 1038 103.5 c 128,-1,41
 1043 115 1043 115 1057.5 144 c 0,42,43
 1090.75 210.5 1090.75 210.5 1123 318 c 1,44,-1
 1301 379 l 1,45,46
 1265.06040268 262.724832215 1265.06040268 262.724832215 1230.53020134 191.362416107 c 128,-1,47
 1196 120 1196 120 1179.5 99.5 c 128,-1,48
 1163 79 1163 79 1124 60 c 128,-1,49
 1085 41 1085 41 1040 29.5 c 0,50,51
 951.956521739 7 951.956521739 7 873 7 c 1,52,53
 774.041958042 -6.06993006993 774.041958042 -6.06993006993 675.020979021 -1.03496503497 c 128,-1,54
 576 4 576 4 549.5 4 c 128,-1,55
 523 4 523 4 493 3.5 c 128,-1,56
 463 3 463 3 432.5 6 c 0,57,58
 358.419715447 13.2865853659 358.419715447 13.2865853659 326 44 c 1,59,60
 200.461538462 -4 200.461538462 -4 43 -4 c 1,61,62
 132 41.7714285714 132 41.7714285714 184 70 c 1,63,-1
 282 74 l 257,64,-1
 291.5 74 l 2,65,66
 296 74 296 74 301 75 c 1,67,-1
 306 78 l 1,68,69
 296.455621302 116.177514793 296.455621302 116.177514793 310.727810651 193.088757396 c 128,-1,70
 325 270 325 270 334 317 c 2,71,-1
 346 376 l 1,72,73
 353 405 353 405 359.5 435 c 128,-1,74
 366 465 366 465 374 496.5 c 0,75,76
 405.583815029 620.861271676 405.583815029 620.861271676 413.791907514 670.930635838 c 0,77,78
 426.926174497 751.04966443 426.926174497 751.04966443 456 784 c 1,79,80
 443.194029851 818.149253731 443.194029851 818.149253731 458.597014925 863.074626866 c 128,-1,81
 474 908 474 908 488.5 966 c 0,82,83
 547 1200 547 1200 552 1330 c 1,84,85
 539.880208569 1334.11979143 539.880208569 1334.11979143 525.940104284 1348.05989572 c 0,86,87
 500.714285714 1373.28571429 500.714285714 1373.28571429 475.857142857 1380.64285714 c 128,-1,88
 451 1388 451 1388 412 1388 c 2,89,-1
 373 1387 l 2,90,91
 368 1387 368 1387 359 1386 c 128,-1,92
 350 1385 350 1385 351 1386 c 1,93,-1
 339 1386 l 1,94,-1
 473 1456 l 1,95,-1
 480 1460 l 1,96,-1
 494 1460 l 1,97,-1
 497 1461 l 1,98,-1
 514 1461 l 2,99,100
 537 1461 537 1461 560.5 1462 c 128,-1,101
 584 1463 584 1463 608.5 1459.5 c 0,102,103
 654.913043478 1452.86956522 654.913043478 1452.86956522 696 1420 c 1,104,105
 799.006979695 1464.70114213 799.006979695 1464.70114213 921 1454 c 0,106,107
 955 1453 955 1453 988 1453 c 2,108,-1
 1237 1453 l 2,109,110
 1376 1453 1376 1453 1410 1419 c 0,111,112
 1420 1410 1420 1410 1420 1391.5 c 1,113,-1
 1404 1164 l 1,114,-1
 1226 1103 l 1,115,-1
 1241 1289 l 1,116,117
 1241 1303 1241 1303 1242.5 1319 c 128,-1,118
 1244 1335 1244 1335 1238 1345.5 c 128,-1,119
 1232 1356 1232 1356 1223 1361 c 128,-1,120
 1214 1366 1214 1366 1203.5 1369 c 0,121,122
 1168.5 1379 1168.5 1379 1096 1379 c 2,123,-1
 823 1379 l 1,124,-1
 753 1381 l 1,125,-1
 733 1381 l 1,126,127
 731 1379 731 1379 729 1379 c 0,128,129
 725 1278 725 1278 703 1180 c 128,-1,130
 681 1082 681 1082 666.5 1025.5 c 128,-1,131
 652 969 652 969 645.5 949.5 c 128,-1,132
 639 930 639 930 635 909 c 128,-1,133
 631 888 631 888 631 868 c 128,-1,134
 631 848 631 848 647 826.5 c 0,135,136
 671.186046512 794 671.186046512 794 752 794 c 2,137,-1
 1014 794 l 1,0,-1
470 1456 m 1,138,-1
 473 1456 l 1,139,140
 471 1455 471 1455 469.5 1455 c 128,-1,141
 468 1455 468 1455 470 1456 c 1,138,-1
798 1424 m 2,142,-1
 799 1424.5 l 2,143,144
 799 1424 799 1424 798 1424 c 2,142,-1
EndSplineSet
EndChar

StartChar: c
Encoding: 70 70 42
Width: 1169
Flags: W
LayerCount: 2
Fore
SplineSet
797 773 m 2,0,-1
 1029 774 l 1,1,2
 1040 805 1040 805 1049.5 837 c 128,-1,3
 1059 869 1059 869 1070 901 c 1,4,-1
 1248 962 l 1,5,6
 1235 924 1235 924 1226.5 884.5 c 128,-1,7
 1218 845 1218 845 1204 820.5 c 128,-1,8
 1190 796 1190 796 1179.5 783.5 c 128,-1,9
 1169 771 1169 771 1165 756 c 128,-1,10
 1161 741 1161 741 1165 726 c 128,-1,11
 1169 711 1169 711 1168.5 689.5 c 128,-1,12
 1168 668 1168 668 1165.5 640 c 128,-1,13
 1163 612 1163 612 1161 583 c 1,14,-1
 983 522 l 1,15,16
 989.206896552 612 989.206896552 612 990 635 c 1,17,-1
 985 692 l 1,18,19
 916 700 916 700 850 700 c 128,-1,20
 784 700 784 700 739 699.5 c 128,-1,21
 694 699 694 699 672.5 699.5 c 128,-1,22
 651 700 651 700 633.5 698 c 0,23,24
 614.333333333 695.80952381 614.333333333 695.80952381 575 693 c 1,25,-1
 569 662 l 1,26,27
 557 607 557 607 544.5 552.5 c 128,-1,28
 532 498 532 498 521 443.5 c 128,-1,29
 510 389 510 389 495.5 335.5 c 128,-1,30
 481 282 481 282 479.5 243 c 128,-1,31
 478 204 478 204 478.5 176 c 128,-1,32
 479 148 479 148 465 128 c 1,33,-1
 471 131 l 1,34,35
 535.706480986 74.6427423674 535.706480986 74.6427423674 662 76.5 c 0,36,37
 696 77 696 77 733 72 c 1,38,-1
 576 -1 l 1,39,40
 540 3 540 3 508 3 c 0,41,42
 386 3 386 3 328 39 c 1,43,44
 238.670157068 6.0890052356 238.670157068 6.0890052356 86 1 c 1,45,-1
 64 1 l 1,46,-1
 40 -2 l 2,47,48
 38 -2 38 -2 40 0 c 0,49,50
 43 2 43 2 46.5 2 c 2,51,-1
 55 2 l 1,52,-1
 175 73 l 1,53,54
 204 75 204 75 232.5 75 c 128,-1,55
 261 75 261 75 290 77 c 1,56,57
 301.42 99.84 301.42 99.84 299.71 124.92 c 128,-1,58
 298 150 298 150 305.5 200 c 128,-1,59
 313 250 313 250 330.5 324 c 128,-1,60
 348 398 348 398 363 467.5 c 128,-1,61
 378 537 378 537 391 600.5 c 0,62,63
 417.140794224 728.187725632 417.140794224 728.187725632 438 756 c 1,64,65
 452.394904459 779.391719745 452.394904459 779.391719745 460.697452229 847.195859873 c 128,-1,66
 469 915 469 915 475.5 948.5 c 128,-1,67
 482 982 482 982 494.5 1032 c 128,-1,68
 507 1082 507 1082 517.5 1132 c 0,69,70
 542.784753363 1252.40358744 542.784753363 1252.40358744 546 1336 c 1,71,-1
 548 1337 l 1,72,73
 531 1343 531 1343 519.5 1356 c 128,-1,74
 508 1369 508 1369 492 1377.5 c 128,-1,75
 476 1386 476 1386 455.5 1389 c 128,-1,76
 435 1392 435 1392 413 1393 c 128,-1,77
 391 1394 391 1394 370 1393 c 128,-1,78
 349 1392 349 1392 333 1392 c 1,79,-1
 474 1466 l 1,80,-1
 558.5 1466 l 2,81,82
 651 1466 651 1466 693 1424 c 1,83,84
 788.479641694 1460.85179153 788.479641694 1460.85179153 879.239820847 1463.42589577 c 128,-1,85
 970 1466 970 1466 1024.5 1463.5 c 128,-1,86
 1079 1461 1079 1461 1127.5 1459.5 c 128,-1,87
 1176 1458 1176 1458 1218 1458.5 c 128,-1,88
 1260 1459 1260 1459 1286 1456 c 128,-1,89
 1312 1453 1312 1453 1328 1451.5 c 128,-1,90
 1344 1450 1344 1450 1360.5 1447 c 0,91,92
 1421.84840426 1435.84574468 1421.84840426 1435.84574468 1420.5 1390 c 0,93,94
 1420 1373 1420 1373 1420 1342.5 c 128,-1,95
 1420 1312 1420 1312 1413.5 1267 c 128,-1,96
 1407 1222 1407 1222 1403 1174 c 1,97,-1
 1225 1113 l 1,98,99
 1228 1160 1228 1160 1235 1205 c 128,-1,100
 1242 1250 1242 1250 1242 1281 c 128,-1,101
 1242 1312 1242 1312 1242.5 1330 c 128,-1,102
 1243 1348 1243 1348 1233 1356.5 c 128,-1,103
 1223 1365 1223 1365 1212 1369 c 128,-1,104
 1201 1373 1201 1373 1188.5 1375 c 0,105,106
 1140.87341772 1382.62025316 1140.87341772 1382.62025316 1122.93670886 1383.31012658 c 128,-1,107
 1105 1384 1105 1384 1083.5 1385 c 128,-1,108
 1062 1386 1062 1386 1033.5 1385.5 c 128,-1,109
 1005 1385 1005 1385 965 1386.5 c 128,-1,110
 925 1388 925 1388 875 1390 c 128,-1,111
 825 1392 825 1392 774 1391 c 2,112,-1
 732 1390 l 1,113,114
 726 1386 726 1386 723 1385 c 0,115,116
 717.798833819 1274.47521866 717.798833819 1274.47521866 685.39941691 1140.23760933 c 128,-1,117
 653 1006 653 1006 646 953.5 c 0,118,119
 632.355555556 851.166666667 632.355555556 851.166666667 612 813 c 1,120,-1
 623 817 l 1,121,122
 634 807 634 807 643 796.5 c 128,-1,123
 652 786 652 786 665.5 778 c 128,-1,124
 679 770 679 770 695.5 768.5 c 128,-1,125
 712 767 712 767 729 768 c 128,-1,126
 746 769 746 769 763 771 c 128,-1,127
 780 773 780 773 797 773 c 2,0,-1
436 752 m 1,128,-1
 433 749 l 1,129,-1
 436 752 l 1,128,-1
256 51 m 0,130,131
 254 50 254 50 255 50 c 128,-1,132
 256 50 256 50 258 52 c 1,133,134
 257 51 257 51 256 51 c 0,130,131
EndSplineSet
EndChar

StartChar: d
Encoding: 71 71 43
Width: 1452
Flags: W
LayerCount: 2
Fore
SplineSet
1385 1058 m 1,0,-1
 1396 1228 l 2,1,2
 1396 1243 1396 1243 1398 1259.5 c 128,-1,3
 1400 1276 1400 1276 1389 1294 c 128,-1,4
 1378 1312 1378 1312 1357.5 1328 c 128,-1,5
 1337 1344 1337 1344 1313 1355.5 c 0,6,7
 1229.11428571 1395.6952381 1229.11428571 1395.6952381 1133.05714286 1405.84761905 c 128,-1,8
 1037 1416 1037 1416 976 1410.5 c 0,9,10
 842.615768463 1398.47355289 842.615768463 1398.47355289 757.307884232 1329.73677645 c 128,-1,11
 672 1261 672 1261 610 1172.5 c 128,-1,12
 548 1084 548 1084 509 984 c 0,13,14
 429.526046987 780.220633299 429.526046987 780.220633299 446 564 c 0,15,16
 471.557526811 238.141533166 471.557526811 238.141533166 695.5 111 c 0,17,18
 811.738484398 45.00653789 811.738484398 45.00653789 992 40.5 c 0,19,20
 1052 39 1052 39 1107 50 c 0,21,22
 1112 55 1112 55 1116.5 58.5 c 128,-1,23
 1121 62 1121 62 1132 74.5 c 0,24,25
 1163.31514085 110.085387324 1163.31514085 110.085387324 1181 221.5 c 0,26,27
 1186 253 1186 253 1196 291 c 0,28,29
 1232.95121951 431.414634146 1232.95121951 431.414634146 1236.47560976 477.207317073 c 128,-1,30
 1240 523 1240 523 1213 544 c 128,-1,31
 1186 565 1186 565 1146.5 573 c 128,-1,32
 1107 581 1107 581 1065 580.5 c 128,-1,33
 1023 580 1023 580 997 580 c 1,34,-1
 1138 654 l 1,35,36
 1160 654 1160 654 1194 654.5 c 128,-1,37
 1228 655 1228 655 1264 652 c 0,38,39
 1351.88405797 644.676328502 1351.88405797 644.676328502 1388 612 c 1,40,41
 1501.4 654 1501.4 654 1613 654 c 1,42,43
 1561 625.771428571 1561 625.771428571 1472 580 c 1,44,45
 1458 580 1458 580 1444 580 c 128,-1,46
 1430 580 1430 580 1416 578 c 1,47,-1
 1412 575 l 1,48,49
 1423.11450382 533.320610687 1423.11450382 533.320610687 1403 477 c 1,50,51
 1395 432 1395 432 1382.5 389 c 128,-1,52
 1370 346 1370 346 1362 299.5 c 128,-1,53
 1354 253 1354 253 1342 203.5 c 128,-1,54
 1330 154 1330 154 1297 116.5 c 128,-1,55
 1264 79 1264 79 1219 57 c 128,-1,56
 1174 35 1174 35 1121.5 13.5 c 128,-1,57
 1069 -8 1069 -8 998.5 -20.5 c 128,-1,58
 928 -33 928 -33 855 -33.5 c 0,59,60
 573.428571429 -35.4285714286 573.428571429 -35.4285714286 421 117 c 0,61,62
 261.523809524 276.476190476 261.523809524 276.476190476 265 565 c 0,63,64
 267.70113255 789.194001678 267.70113255 789.194001678 360 991 c 0,65,66
 435.124920736 1155.25618263 435.124920736 1155.25618263 556 1258 c 0,67,68
 576 1275 576 1275 613.5 1306.5 c 0,69,70
 682.400240385 1364.37620192 682.400240385 1364.37620192 859 1425 c 0,71,72
 1162.1018018 1532.55225225 1162.1018018 1532.55225225 1433.5 1445.5 c 0,73,74
 1533.69215087 1413.36289501 1533.69215087 1413.36289501 1568 1357 c 0,75,76
 1578 1341 1578 1341 1576 1323.5 c 128,-1,77
 1574 1306 1574 1306 1574 1289 c 1,78,-1
 1563 1119 l 1,79,-1
 1385 1058 l 1,0,-1
1088 40 m 1,80,81
 1087.33333333 39.8888888889 1087.33333333 39.8888888889 1086.66666667 39.4444444444 c 128,-1,82
 1086 39 1086 39 1088 40 c 1,80,81
EndSplineSet
EndChar

StartChar: e
Encoding: 72 72 44
Width: 1587
Flags: W
LayerCount: 2
Fore
SplineSet
972 1466 m 1,0,1
 920 1437.77142857 920 1437.77142857 831 1392 c 1,2,3
 808 1392 808 1392 786 1392.5 c 128,-1,4
 764 1393 764 1393 741 1391 c 1,5,-1
 724 1382 l 1,6,7
 719 1277 719 1277 696 1176 c 128,-1,8
 673 1075 673 1075 649 972 c 2,9,-1
 619 839 l 1,10,-1
 631 844 l 1,11,12
 674.315789474 800.684210526 674.315789474 800.684210526 690.657894737 795.842105263 c 0,13,14
 710.290858726 790.024930748 710.290858726 790.024930748 756.645429363 795.012465374 c 128,-1,15
 803 800 803 800 831 800 c 2,16,-1
 1226 800 l 2,17,18
 1249 800 1249 800 1273 802.5 c 128,-1,19
 1297 805 1297 805 1321 807 c 1,20,-1
 1357 945 l 1,21,22
 1418.80322581 1177.67096774 1418.80322581 1177.67096774 1426 1336 c 1,23,24
 1415 1336 1415 1336 1399 1354 c 128,-1,25
 1383 1372 1383 1372 1368.5 1380 c 128,-1,26
 1354 1388 1354 1388 1338.5 1390.5 c 128,-1,27
 1323 1393 1323 1393 1307.5 1393.5 c 128,-1,28
 1292 1394 1292 1394 1277 1393.5 c 128,-1,29
 1262 1393 1262 1393 1253.5 1393 c 128,-1,30
 1245 1393 1245 1393 1236 1392 c 128,-1,31
 1227 1391 1227 1391 1228 1392 c 1,32,-1
 1217 1392 l 1,33,-1
 1343 1458 l 1,34,-1
 1324 1455 l 1,35,-1
 1349 1461 l 1,36,-1
 1358 1466 l 1,37,-1
 1370 1466 l 1,38,39
 1387.84615385 1470.46153846 1387.84615385 1470.46153846 1410.92307692 1468.73076923 c 128,-1,40
 1434 1467 1434 1467 1458.5 1467 c 0,41,42
 1524.7 1467 1524.7 1467 1561 1434 c 2,43,-1
 1575 1421 l 1,44,45
 1670.95945946 1458.31756757 1670.95945946 1458.31756757 1734.97972973 1462.15878378 c 128,-1,46
 1799 1466 1799 1466 1850 1466 c 1,47,48
 1798 1437.77142857 1798 1437.77142857 1709 1392 c 1,49,50
 1686 1392 1686 1392 1663 1392.5 c 128,-1,51
 1640 1393 1640 1393 1617 1391 c 1,52,-1
 1603 1384 l 1,53,54
 1596.10189983 1236.84052965 1596.10189983 1236.84052965 1534.5 1003.5 c 0,55,56
 1479.04013378 793.424749164 1479.04013378 793.424749164 1460.52006689 689.712374582 c 128,-1,57
 1442 586 1442 586 1423 504 c 0,58,59
 1376.61147903 303.796909492 1376.61147903 303.796909492 1369.80573951 259.398454746 c 128,-1,60
 1363 215 1363 215 1360.5 203 c 128,-1,61
 1358 191 1358 191 1356.5 178.5 c 0,62,63
 1343.15404872 67.2837393022 1343.15404872 67.2837393022 1517.5 73 c 0,64,65
 1548 74 1548 74 1574 72 c 1,66,-1
 1417 -1 l 1,67,68
 1391 1 1391 1 1361.5 0 c 128,-1,69
 1332 -1 1332 -1 1302 1.5 c 0,70,71
 1231.21030043 7.3991416309 1231.21030043 7.3991416309 1199 43 c 1,72,73
 1135 20 1135 20 1069 12.5 c 128,-1,74
 1003 5 1003 5 925 -1 c 1,75,76
 1014 44.7714285714 1014 44.7714285714 1066 73 c 1,77,78
 1088 75 1088 75 1109.5 75.5 c 128,-1,79
 1131 76 1131 76 1145.5 77 c 0,80,81
 1175.13043478 79.0434782609 1175.13043478 79.0434782609 1181 81 c 1,82,83
 1173.67213115 122.524590164 1173.67213115 122.524590164 1183.83606557 168.262295082 c 128,-1,84
 1194 214 1194 214 1195.5 223.5 c 128,-1,85
 1197 233 1197 233 1199 242.5 c 128,-1,86
 1201 252 1201 252 1203 262.5 c 128,-1,87
 1205 273 1205 273 1207 281 c 128,-1,88
 1209 289 1209 289 1209 291 c 2,89,-1
 1233 391 l 1,90,91
 1248 462 1248 462 1262 533 c 128,-1,92
 1276 604 1276 604 1291 676 c 1,93,-1
 1254.5 712.5 l 2,94,95
 1236 731 1236 731 1208 732 c 2,96,-1
 1179 733 l 1,97,-1
 1130 729 l 1,98,-1
 1125 729 l 1,99,100
 1105 726 1105 726 1085 726 c 2,101,-1
 819.5 729 l 1,102,103
 692.2 729 692.2 729 652.6 723.5 c 128,-1,104
 613 718 613 718 593 717 c 1,105,106
 579 654 579 654 565.5 592.5 c 128,-1,107
 552 531 552 531 537.5 469 c 0,108,109
 500.008383234 308.691017964 500.008383234 308.691017964 493.504191617 258.345508982 c 128,-1,110
 487 208 487 208 484.5 195 c 128,-1,111
 482 182 482 182 481 169 c 0,112,113
 476.188622754 106.452095808 476.188622754 106.452095808 533 86 c 0,114,115
 571.289962825 72.2156133829 571.289962825 72.2156133829 622.144981413 73.1078066914 c 128,-1,116
 673 74 673 74 696 72 c 1,117,-1
 539 -1 l 1,118,119
 515 1 515 1 490 0.5 c 128,-1,120
 465 0 465 0 439.5 1 c 0,121,122
 347.840366972 4.59449541284 347.840366972 4.59449541284 317 47 c 1,123,124
 208.007518797 9.53383458647 208.007518797 9.53383458647 50 -1 c 1,125,-1
 191 73 l 1,126,127
 219 75 219 75 248 76 c 128,-1,128
 277 77 277 77 303 82 c 1,129,130
 301 100 301 100 304.5 120 c 128,-1,131
 308 140 308 140 315 193 c 0,132,133
 325.054279749 269.12526096 325.054279749 269.12526096 364.027139875 433.56263048 c 128,-1,134
 403 598 403 598 425 702 c 128,-1,135
 447 806 447 806 471 911 c 256,136,137
 495 1016 495 1016 519 1121.5 c 128,-1,138
 543 1227 543 1227 544.5 1281.5 c 128,-1,139
 546 1336 546 1336 545 1337 c 0,140,141
 528 1345 528 1345 516 1358.5 c 128,-1,142
 504 1372 504 1372 490.5 1380.5 c 128,-1,143
 477 1389 477 1389 461.5 1391.5 c 128,-1,144
 446 1394 446 1394 429.5 1394.5 c 128,-1,145
 413 1395 413 1395 398 1394 c 128,-1,146
 383 1393 383 1393 376 1393 c 128,-1,147
 369 1393 369 1393 360 1392 c 128,-1,148
 351 1391 351 1391 352 1392 c 1,149,-1
 341 1392 l 1,150,-1
 467 1458 l 1,151,-1
 448 1455 l 1,152,-1
 473 1461 l 1,153,-1
 482 1466 l 1,154,-1
 494 1466 l 1,155,156
 511.811320755 1470.45283019 511.811320755 1470.45283019 535.405660377 1468.72641509 c 128,-1,157
 559 1467 559 1467 582 1467 c 0,158,159
 644.411764706 1467 644.411764706 1467 675 1441 c 1,160,-1
 695 1422 l 1,161,162
 709 1427 709 1427 722 1432 c 128,-1,163
 735 1437 735 1437 770.5 1447 c 0,164,165
 837.95 1466 837.95 1466 972 1466 c 1,0,1
1146 731 m 1,166,167
 1151 732 1151 732 1141 731 c 1,168,-1
 1146 731 l 1,166,167
1324 1455 m 1,169,170
 1322 1454 1322 1454 1320.5 1454 c 128,-1,171
 1319 1454 1319 1454 1320.5 1454.5 c 128,-1,172
 1322 1455 1322 1455 1324 1455 c 1,169,170
448 1455 m 1,173,174
 446 1454 446 1454 444.5 1454 c 128,-1,175
 443 1454 443 1454 444.5 1454.5 c 128,-1,176
 446 1455 446 1455 448 1455 c 1,173,174
EndSplineSet
EndChar

StartChar: f
Encoding: 73 73 45
Width: 707
Flags: W
LayerCount: 2
Fore
SplineSet
50 -2.5 m 1,0,1
 50 -1.45454545455 50 -1.45454545455 71.5 0.5 c 2,2,-1
 62 0 l 1,3,-1
 184 72 l 1,4,5
 212 75 212 75 240 75.5 c 128,-1,6
 268 76 268 76 296 80 c 1,7,8
 291 101 291 101 297 124 c 128,-1,9
 303 147 303 147 307.5 192 c 128,-1,10
 312 237 312 237 328.5 302.5 c 128,-1,11
 345 368 345 368 368.5 471.5 c 0,12,13
 444.267241379 805.198275862 444.267241379 805.198275862 473.63362069 944.099137931 c 128,-1,14
 503 1083 503 1083 522.5 1165 c 128,-1,15
 542 1247 542 1247 545 1335 c 1,16,17
 536.666666667 1335 536.666666667 1335 516.833333333 1352.5 c 0,18,19
 483.558139535 1381.86046512 483.558139535 1381.86046512 459.279069767 1388.93023256 c 128,-1,20
 435 1396 435 1396 400.5 1393.5 c 128,-1,21
 366 1391 366 1391 334 1391 c 1,22,-1
 475 1465 l 1,23,24
 500 1465 500 1465 524.5 1466 c 128,-1,25
 549 1467 549 1467 574.5 1465 c 128,-1,26
 600 1463 600 1463 625.5 1459.5 c 128,-1,27
 651 1456 651 1456 664 1445 c 128,-1,28
 677 1434 677 1434 682 1430 c 128,-1,29
 687 1426 687 1426 692 1421 c 1,30,31
 712.102564103 1429.79487179 712.102564103 1429.79487179 757 1443 c 1,32,33
 749 1441 749 1441 745 1441 c 1,34,35
 841 1465 841 1465 897 1465 c 2,36,-1
 968 1465 l 1,37,38
 916 1436.77142857 916 1436.77142857 827 1391 c 1,39,40
 804 1391 804 1391 780.5 1392 c 128,-1,41
 757 1393 757 1393 734 1391 c 1,42,-1
 722 1384 l 1,43,44
 717 1300 717 1300 698.5 1220.5 c 128,-1,45
 680 1141 680 1141 656.5 1029 c 0,46,47
 604.459610028 780.977715877 604.459610028 780.977715877 563.229805014 603.488857939 c 0,48,49
 491.446052371 294.469296222 491.446052371 294.469296222 485.723026186 249.234648111 c 128,-1,50
 480 204 480 204 477.5 188 c 128,-1,51
 475 172 475 172 475 157 c 0,52,53
 475 123.533333333 475 123.533333333 496 105.266666667 c 128,-1,54
 517 87 517 87 539.5 80.5 c 128,-1,55
 562 74 562 74 586 72 c 128,-1,56
 610 70 610 70 633.5 71 c 128,-1,57
 657 72 657 72 677 72 c 1,58,59
 625 43.7714285714 625 43.7714285714 536 -2 c 1,60,-1
 475.5 -2 l 2,61,62
 356.285714286 -2 356.285714286 -2 316 45 c 1,63,64
 212.438953488 8.66279069767 212.438953488 8.66279069767 76 0 c 1,65,-1
 50 -2.5 l 1,0,1
759 1444 m 1,66,-1
 769 1447 l 1,67,-1
 759 1444 l 1,66,-1
EndSplineSet
EndChar

StartChar: g
Encoding: 74 74 46
Width: 721
Flags: W
LayerCount: 2
Fore
SplineSet
987 1465 m 1,0,1
 935 1436.77142857 935 1436.77142857 846 1391 c 1,2,-1
 799 1391 l 2,3,4
 776 1391 776 1391 753 1390 c 1,5,-1
 740 1383 l 1,6,7
 735.769547325 1260.31687243 735.769547325 1260.31687243 679.5 1043 c 0,8,9
 665 987 665 987 652 930 c 2,10,-1
 530 392 l 2,11,12
 491.243243243 217.594594595 491.243243243 217.594594595 466.121621622 146.797297297 c 0,13,14
 396.376518219 -49.7570850202 396.376518219 -49.7570850202 272 -130 c 0,15,16
 194.248648649 -180.162162162 194.248648649 -180.162162162 80.6243243243 -213.581081081 c 128,-1,17
 -33 -247 -33 -247 -139 -253 c 1,18,19
 -50 -207.228571429 -50 -207.228571429 2 -179 c 1,20,21
 91.7419354839 -172.096774194 91.7419354839 -172.096774194 115.870967742 -163.048387097 c 128,-1,22
 140 -154 140 -154 151 -151 c 1,23,24
 116 -167 116 -167 83 -177 c 0,25,26
 43 -193 43 -193 71 -181 c 128,-1,27
 99 -169 99 -169 106.5 -166 c 128,-1,28
 114 -163 114 -163 118.5 -160.5 c 0,29,30
 170.417355372 -131.657024793 170.417355372 -131.657024793 213.708677686 -66.8285123967 c 0,31,32
 280.573288023 33.3008666202 280.573288023 33.3008666202 323.286644011 211.15043331 c 128,-1,33
 366 389 366 389 401 548.5 c 128,-1,34
 436 708 436 708 461.5 817.5 c 128,-1,35
 487 927 487 927 502 984.5 c 128,-1,36
 517 1042 517 1042 530 1100 c 0,37,38
 559.563253012 1231.89759036 559.563253012 1231.89759036 563 1335 c 1,39,40
 543.673565546 1342.19836062 543.673565546 1342.19836062 530.836782773 1357.09918031 c 128,-1,41
 518 1372 518 1372 500 1380.5 c 128,-1,42
 482 1389 482 1389 463 1391.5 c 128,-1,43
 444 1394 444 1394 423.5 1394 c 128,-1,44
 403 1394 403 1394 383.5 1392.5 c 128,-1,45
 364 1391 364 1391 346 1391 c 1,46,-1
 487 1465 l 1,47,48
 532 1465 532 1465 577 1466 c 128,-1,49
 622 1467 622 1467 650.5 1458 c 128,-1,50
 679 1449 679 1449 688.5 1440 c 128,-1,51
 698 1431 698 1431 708 1422 c 1,52,-1
 708 1421 l 1,53,54
 732.857142857 1431.35714286 732.857142857 1431.35714286 785 1447 c 1,55,-1
 790 1447 l 1,56,57
 846.8 1463.56666667 846.8 1463.56666667 898.4 1464.28333333 c 128,-1,58
 950 1465 950 1465 987 1465 c 1,0,1
759 1440 m 1,59,-1
 762 1440 l 1,60,61
 759 1439 759 1439 758 1439 c 128,-1,62
 757 1439 757 1439 759 1440 c 1,59,-1
777 1444 m 1,63,64
 779.177124344 1444.16143783 779.177124344 1444.16143783 780 1445 c 1,65,66
 779 1444 779 1444 777 1444 c 1,63,64
790 1448 m 1,67,-1
 790 1447 l 1,68,-1
 789 1447 l 1,69,70
 789 1448 789 1448 790 1448 c 1,67,-1
780 1445 m 1,71,72
 782 1445 782 1445 788 1447 c 1,73,74
 782 1445 782 1445 780 1445 c 1,71,72
EndSplineSet
EndChar

StartChar: h
Encoding: 75 75 47
Width: 1331
Flags: W
LayerCount: 2
Fore
SplineSet
981 1467 m 1,0,1
 929 1438.77142857 929 1438.77142857 840 1393 c 1,2,3
 815 1393 815 1393 790.5 1394 c 128,-1,4
 766 1395 766 1395 742 1393 c 1,5,-1
 727 1384 l 1,6,7
 723.566423358 1306.74452555 723.566423358 1306.74452555 698.783211679 1195.87226277 c 128,-1,8
 674 1085 674 1085 665.5 1043.5 c 128,-1,9
 657 1002 657 1002 645.5 963.5 c 128,-1,10
 634 925 634 925 634 883 c 1,11,12
 668.4 848.6 668.4 848.6 694 831 c 1,13,14
 735.070110701 887.715867159 735.070110701 887.715867159 889.535055351 1014.35793358 c 128,-1,15
 1044 1141 1044 1141 1092.5 1185.5 c 128,-1,16
 1141 1230 1141 1230 1160.5 1245.5 c 128,-1,17
 1180 1261 1180 1261 1196.5 1278 c 0,18,19
 1233.24539877 1315.85889571 1233.24539877 1315.85889571 1247 1364 c 1,20,-1
 1250 1365 l 1,21,22
 1240 1370 1240 1370 1230.5 1377.5 c 128,-1,23
 1221 1385 1221 1385 1204.5 1388.5 c 128,-1,24
 1188 1392 1188 1392 1165.5 1391.5 c 128,-1,25
 1143 1391 1143 1391 1121 1393 c 1,26,-1
 1278 1466 l 1,27,28
 1303 1464 1303 1464 1327.5 1464.5 c 128,-1,29
 1352 1465 1352 1465 1371 1461.5 c 128,-1,30
 1390 1458 1390 1458 1400.5 1447 c 128,-1,31
 1411 1436 1411 1436 1420 1435 c 128,-1,32
 1429 1434 1429 1434 1440 1436.5 c 128,-1,33
 1451 1439 1451 1439 1464 1442 c 128,-1,34
 1477 1445 1477 1445 1490 1448 c 128,-1,35
 1503 1451 1503 1451 1512 1452 c 2,36,-1
 1710 1467 l 1,37,38
 1658 1438.77142857 1658 1438.77142857 1569 1393 c 1,39,40
 1528 1389 1528 1389 1488 1387.5 c 128,-1,41
 1448 1386 1448 1386 1407 1381 c 1,42,43
 1387 1342 1387 1342 1355.5 1315.5 c 128,-1,44
 1324 1289 1324 1289 1268.5 1237.5 c 128,-1,45
 1213 1186 1213 1186 1132 1120 c 128,-1,46
 1051 1054 1051 1054 998.5 1007.5 c 128,-1,47
 946 961 946 961 921.5 940 c 128,-1,48
 897 919 897 919 878 895 c 0,49,50
 835.612956811 841.458471761 835.612956811 841.458471761 827 776 c 1,51,-1
 720 731 l 1,52,-1
 830 773 l 1,53,54
 858 705 858 705 894 642 c 128,-1,55
 930 579 930 579 961.5 518.5 c 128,-1,56
 993 458 993 458 1028 395 c 128,-1,57
 1063 332 1063 332 1105.5 273.5 c 0,58,59
 1246.64071856 79.2239520958 1246.64071856 79.2239520958 1400 69 c 0,60,61
 1415 68 1415 68 1438 65 c 1,62,-1
 1281 -8 l 1,63,64
 1260 -6 1260 -6 1242.5 -4.5 c 128,-1,65
 1225 -3 1225 -3 1209 0 c 0,66,67
 1012.05598244 36.9270032931 1012.05598244 36.9270032931 853 325.5 c 0,68,69
 818 389 818 389 786 450.5 c 128,-1,70
 754 512 754 512 718 574.5 c 128,-1,71
 682 637 682 637 654 706 c 1,72,-1
 658 707 l 1,73,74
 630.375 711.875 630.375 711.875 594 724 c 1,75,-1
 588 693 l 1,76,77
 566 598 566 598 544 504 c 128,-1,78
 522 410 522 410 509.5 350.5 c 128,-1,79
 497 291 497 291 495 275 c 128,-1,80
 493 259 493 259 490.5 243.5 c 128,-1,81
 488 228 488 228 487.5 214 c 0,82,83
 486.76 193.28 486.76 193.28 481.88 172.14 c 128,-1,84
 477 151 477 151 485.5 131.5 c 128,-1,85
 494 112 494 112 511 100.5 c 128,-1,86
 528 89 528 89 551.5 83.5 c 128,-1,87
 575 78 575 78 600.5 76.5 c 128,-1,88
 626 75 626 75 650.5 74.5 c 128,-1,89
 675 74 675 74 694 73 c 1,90,-1
 537 0 l 1,91,92
 498 3 498 3 459.5 1.5 c 128,-1,93
 421 0 421 0 389 9 c 0,94,95
 334.821782178 24.2376237624 334.821782178 24.2376237624 317 48 c 1,96,97
 208.248120301 10.6165413534 208.248120301 10.6165413534 49 0 c 1,98,-1
 190 74 l 1,99,100
 218 76 218 76 247 76.5 c 128,-1,101
 276 77 276 77 303 83 c 1,102,103
 297.561452514 137.38547486 297.561452514 137.38547486 320.780726257 237.69273743 c 128,-1,104
 344 338 344 338 358 398 c 128,-1,105
 372 458 372 458 388 524 c 128,-1,106
 404 590 404 590 413 644 c 128,-1,107
 422 698 422 698 429 740.5 c 128,-1,108
 436 783 436 783 456 822 c 1,109,110
 456 864 456 864 467.5 902.5 c 128,-1,111
 479 941 479 941 487.5 983.5 c 128,-1,112
 496 1026 496 1026 506.5 1070 c 128,-1,113
 517 1114 517 1114 526 1157.5 c 0,114,115
 546.598214286 1257.05803571 546.598214286 1257.05803571 550 1337 c 1,116,-1
 552 1337 l 1,117,118
 532 1344 532 1344 519 1359 c 128,-1,119
 506 1374 506 1374 488 1382 c 128,-1,120
 470 1390 470 1390 451.5 1392.5 c 128,-1,121
 433 1395 433 1395 414.5 1395 c 128,-1,122
 396 1395 396 1395 377.5 1394 c 128,-1,123
 359 1393 359 1393 341 1393 c 1,124,-1
 482 1467 l 1,125,-1
 570.5 1469 l 1,126,127
 648 1469 648 1469 677.5 1439.5 c 0,128,129
 687 1430 687 1430 697 1422 c 1,130,131
 776.279338843 1458.80826446 776.279338843 1458.80826446 848.639669421 1462.90413223 c 128,-1,132
 921 1467 921 1467 981 1467 c 1,0,1
EndSplineSet
EndChar

StartChar: i
Encoding: 76 76 48
Width: 1157
Flags: W
LayerCount: 2
Fore
SplineSet
97 0 m 1,0,-1
 82.5 -1 l 1,1,-1
 78 -1 l 1,2,-1
 92 2 l 1,3,-1
 165 64 l 1,4,5
 197 72 197 72 230 73 c 128,-1,6
 263 74 263 74 295 75 c 1,7,-1
 300 75 l 1,8,-1
 302 78 l 1,9,10
 310 98 310 98 309 120.5 c 128,-1,11
 308 143 308 143 309.5 186 c 128,-1,12
 311 229 311 229 327 294.5 c 128,-1,13
 343 360 343 360 364.5 455 c 128,-1,14
 386 550 386 550 414 675.5 c 128,-1,15
 442 801 442 801 468.5 914.5 c 128,-1,16
 495 1028 495 1028 517.5 1127.5 c 128,-1,17
 540 1227 540 1227 548 1331 c 1,18,19
 486.424242424 1384.87878788 486.424242424 1384.87878788 400.5 1386.5 c 0,20,21
 374 1387 374 1387 343 1387 c 1,22,-1
 484 1461 l 1,23,24
 529 1461 529 1461 573.5 1460 c 0,25,26
 641.303842717 1458.47631814 641.303842717 1458.47631814 699 1419 c 0,27,28
 701 1419 701 1419 737.5 1431.5 c 0,29,30
 823.64 1461 823.64 1461 984 1461 c 1,31,32
 932 1432.77142857 932 1432.77142857 843 1387 c 1,33,34
 770 1387 770 1387 725 1384 c 1,35,36
 717 1283 717 1283 695 1185.5 c 128,-1,37
 673 1088 673 1088 648.5 982.5 c 128,-1,38
 624 877 624 877 599.5 765 c 128,-1,39
 575 653 575 653 554.5 566.5 c 0,40,41
 509.166018158 375.212710765 509.166018158 375.212710765 502.083009079 329.606355383 c 128,-1,42
 495 284 495 284 491.5 264 c 128,-1,43
 488 244 488 244 487 224.5 c 128,-1,44
 486 205 486 205 486.5 185.5 c 0,45,46
 487.520123839 145.715170279 487.520123839 145.715170279 471 123 c 1,47,-1
 480 126 l 1,48,49
 522.341040462 88.7398843931 522.341040462 88.7398843931 575.170520231 82.8699421965 c 128,-1,50
 628 77 628 77 660.5 77.5 c 128,-1,51
 693 78 693 78 729 77 c 128,-1,52
 765 76 765 76 804.5 74.5 c 128,-1,53
 844 73 844 73 880 73.5 c 128,-1,54
 916 74 916 74 947.5 77 c 128,-1,55
 979 80 979 80 1011 82 c 1,56,-1
 1020 101 l 2,57,58
 1045 153 1045 153 1063 209 c 128,-1,59
 1081 265 1081 265 1109 316 c 1,60,-1
 1285 370 l 1,61,62
 1274 351 1274 351 1267 332 c 128,-1,63
 1260 313 1260 313 1252 293 c 2,64,-1
 1241 262 l 1,65,66
 1239 260 1239 260 1239 257 c 1,67,-1
 1237 253 l 1,68,69
 1233.79069767 240.162790698 1233.79069767 240.162790698 1213.89534884 190.081395349 c 128,-1,70
 1194 140 1194 140 1175 115 c 128,-1,71
 1156 90 1156 90 1130 74 c 128,-1,72
 1104 58 1104 58 1074.5 46 c 0,73,74
 1005.12252964 17.7786561265 1005.12252964 17.7786561265 954.561264822 13.8893280632 c 128,-1,75
 904 10 904 10 890 9 c 128,-1,76
 876 8 876 8 863 7 c 128,-1,77
 850 6 850 6 852 7 c 2,78,-1
 795 2 l 1,79,80
 714.879518072 -2.57831325301 714.879518072 -2.57831325301 635.939759036 0.710843373494 c 128,-1,81
 557 4 557 4 514.5 5 c 128,-1,82
 472 6 472 6 426 9 c 128,-1,83
 380 12 380 12 338 35 c 1,84,85
 259.538461538 6.23076923077 259.538461538 6.23076923077 134 1 c 1,86,-1
 97 0 l 1,0,-1
1091 88 m 1,87,-1
 1099 90 l 1,88,-1
 1091 88 l 1,87,-1
1241 264 m 2,89,90
 1242 266 1242 266 1241.5 264 c 128,-1,91
 1241 262 1241 262 1239 259 c 2,92,-1
 1241 264 l 2,89,90
EndSplineSet
EndChar

StartChar: j
Encoding: 77 77 49
Width: 1884
Flags: W
LayerCount: 2
Fore
SplineSet
1224 0 m 1,0,-1
 1236 1 l 1,1,-1
 1356 72 l 1,2,3
 1377 75 1377 75 1398 76.5 c 128,-1,4
 1419 78 1419 78 1439 80 c 2,5,-1
 1470 82 l 1,6,7
 1468 100 1468 100 1471 119.5 c 128,-1,8
 1474 139 1474 139 1479.5 184 c 128,-1,9
 1485 229 1485 229 1501 295.5 c 128,-1,10
 1517 362 1517 362 1539.5 466 c 128,-1,11
 1562 570 1562 570 1595 707 c 128,-1,12
 1628 844 1628 844 1650 947 c 128,-1,13
 1672 1050 1672 1050 1686.5 1114.5 c 128,-1,14
 1701 1179 1701 1179 1709 1245 c 1,15,-1
 1628 1116 l 1,16,17
 1421.58695652 797.206521739 1421.58695652 797.206521739 1339.79347826 667.60326087 c 128,-1,18
 1258 538 1258 538 1242 513.5 c 128,-1,19
 1226 489 1226 489 1212 465.5 c 128,-1,20
 1198 442 1198 442 1186 419.5 c 128,-1,21
 1174 397 1174 397 1160.5 376 c 0,22,23
 1111.69555035 300.081967213 1111.69555035 300.081967213 1056 273.5 c 0,24,25
 1015.3 254.075 1015.3 254.075 999 250 c 1,26,27
 986.482993197 219.959183673 986.482993197 219.959183673 980.741496599 163.979591837 c 128,-1,28
 975 108 975 108 974 101 c 1,29,-1
 796 40 l 1,30,31
 798 68 798 68 803 95 c 0,32,33
 815 159.8 815 159.8 815 174.566666667 c 128,-1,34
 815 189.333333333 815 189.333333333 826 204 c 1,35,36
 816 225 816 225 812.5 247.5 c 128,-1,37
 809 270 809 270 805 285 c 128,-1,38
 801 300 801 300 799 311 c 128,-1,39
 797 322 797 322 795 333 c 128,-1,40
 793 344 793 344 792 353.5 c 128,-1,41
 791 363 791 363 787.5 381 c 0,42,43
 773 455.571428571 773 455.571428571 754.5 540.285714286 c 128,-1,44
 736 625 736 625 710 758.5 c 128,-1,45
 684 892 684 892 665 981 c 128,-1,46
 646 1070 646 1070 638.5 1113.5 c 128,-1,47
 631 1157 631 1157 623 1201 c 1,48,49
 618 1178 618 1178 613 1156.5 c 128,-1,50
 608 1135 608 1135 586.5 1036 c 128,-1,51
 565 937 565 937 526 764 c 128,-1,52
 487 591 487 591 463 475.5 c 0,53,54
 432.863013699 330.465753425 432.863013699 330.465753425 420.431506849 251.232876712 c 128,-1,55
 408 172 408 172 401.5 151 c 128,-1,56
 395 130 395 130 400 114 c 0,57,58
 410.342584562 80.9037294016 410.342584562 80.9037294016 517.5 76.5 c 0,59,60
 554 75 554 75 591 71 c 1,61,-1
 434 -2 l 1,62,63
 383 3 383 3 356.5 3.5 c 128,-1,64
 330 4 330 4 313 6 c 0,65,66
 285.032258065 9.29032258065 285.032258065 9.29032258065 241 33 c 1,67,68
 165.6 12.2 165.6 12.2 125.3 9.1 c 128,-1,69
 85 6 85 6 75.5 4.5 c 0,70,71
 59.6666666667 2 59.6666666667 2 53 2 c 1,72,73
 36.8461538462 -0.692307692308 36.8461538462 -0.692307692308 30.9230769231 0.153846153846 c 128,-1,74
 25 1 25 1 17 1 c 1,75,-1
 158 72 l 1,76,77
 183.5 72 183.5 72 226 77 c 1,78,79
 253.921568627 291.647058824 253.921568627 291.647058824 297.960784314 489.823529412 c 128,-1,80
 342 688 342 688 370 809.5 c 128,-1,81
 398 931 398 931 425 1051 c 2,82,-1
 464 1225 l 2,83,84
 468 1242 468 1242 470 1259.5 c 128,-1,85
 472 1277 472 1277 475 1287 c 128,-1,86
 478 1297 478 1297 484 1303 c 2,87,-1
 516 1337 l 1,88,89
 461.50965251 1386.53667954 461.50965251 1386.53667954 368 1390 c 0,90,91
 341 1391 341 1391 313 1391 c 1,92,-1
 454 1465 l 1,93,94
 579.5 1465 579.5 1465 620.75 1447 c 128,-1,95
 662 1429 662 1429 688 1407 c 1,96,97
 749.205128205 1415.74358974 749.205128205 1415.74358974 769 1391 c 0,98,99
 782.368421053 1377.63157895 782.368421053 1377.63157895 792.684210526 1311.31578947 c 128,-1,100
 803 1245 803 1245 821.5 1155.5 c 128,-1,101
 840 1066 840 1066 872.5 895 c 128,-1,102
 905 724 905 724 929.5 614 c 128,-1,103
 954 504 954 504 961 454 c 128,-1,104
 968 404 968 404 977.5 372.5 c 128,-1,105
 987 341 987 341 988 328 c 1,106,-1
 1006 358 l 1,107,108
 1055.51724138 444.655172414 1055.51724138 444.655172414 1135.25862069 568.827586207 c 128,-1,109
 1215 693 1215 693 1289.5 811 c 128,-1,110
 1364 929 1364 929 1411.5 1001 c 128,-1,111
 1459 1073 1459 1073 1475.5 1099.5 c 128,-1,112
 1492 1126 1492 1126 1504.5 1145.5 c 128,-1,113
 1517 1165 1517 1165 1524.5 1179.5 c 128,-1,114
 1532 1194 1532 1194 1541 1205 c 0,115,116
 1582.28985507 1283.82608696 1582.28985507 1283.82608696 1634.5 1318 c 0,117,118
 1669.65463918 1341.01030928 1669.65463918 1341.01030928 1776 1378 c 1,119,120
 1836 1410 1836 1410 1899.5 1436.5 c 128,-1,121
 1963 1463 1963 1463 2010.5 1464.5 c 128,-1,122
 2058 1466 2058 1466 2083 1465.5 c 128,-1,123
 2108 1465 2108 1465 2133 1465 c 1,124,125
 2081 1436.77142857 2081 1436.77142857 1992 1391 c 1,126,-1
 1897 1391 l 1,127,-1
 1893 1389 l 1,128,129
 1889 1300 1889 1300 1871.5 1216 c 128,-1,130
 1854 1132 1854 1132 1830 1017 c 128,-1,131
 1806 902 1806 902 1772.5 761 c 128,-1,132
 1739 620 1739 620 1720.5 537 c 128,-1,133
 1702 454 1702 454 1696 430.5 c 128,-1,134
 1690 407 1690 407 1684 383 c 2,135,-1
 1667 303 l 2,136,137
 1665 291 1665 291 1661 269.5 c 128,-1,138
 1657 248 1657 248 1653 224 c 0,139,140
 1638.70588235 138.235294118 1638.70588235 138.235294118 1662 113 c 0,141,142
 1699.84954128 71.9963302752 1699.84954128 71.9963302752 1802.5 74.5 c 0,143,144
 1823 75 1823 75 1841 75 c 1,145,146
 1789 46.7714285714 1789 46.7714285714 1700 1 c 1,147,148
 1679 1 1679 1 1654 0 c 128,-1,149
 1629 -1 1629 -1 1604.5 0.5 c 0,150,151
 1524.60869565 5.39130434783 1524.60869565 5.39130434783 1486 44 c 1,152,153
 1393.74157303 11.7827715356 1393.74157303 11.7827715356 1342.87078652 8.39138576779 c 128,-1,154
 1292 5 1292 5 1278 3.5 c 128,-1,155
 1264 2 1264 2 1261 2 c 2,156,-1
 1256 2 l 1,157,-1
 1234 0 l 1,158,-1
 1235 1 l 1,159,160
 1215 -3 1215 -3 1224 0 c 1,0,-1
1458 75 m 2,161,-1
 1457.5 74.5 l 2,162,163
 1457.74341649 74.7434164903 1457.74341649 74.7434164903 1458 75 c 2,161,-1
EndSplineSet
EndChar

StartChar: k
Encoding: 78 78 50
Width: 1563
Flags: W
LayerCount: 2
Fore
SplineSet
163 73 m 1,0,1
 175.631578947 76.1578947368 175.631578947 76.1578947368 195.315789474 75.5789473684 c 128,-1,2
 215 75 215 75 230 75 c 1,3,-1
 233 96 l 1,4,5
 245.32885906 206.959731544 245.32885906 206.959731544 266.66442953 305.479865772 c 128,-1,6
 288 404 288 404 313 518 c 0,7,8
 376.867924528 809.237735849 376.867924528 809.237735849 412.433962264 960.618867925 c 128,-1,9
 448 1112 448 1112 452.5 1147 c 128,-1,10
 457 1182 457 1182 464.5 1216 c 0,11,12
 482.346534653 1296.90429043 482.346534653 1296.90429043 521 1342 c 1,13,14
 465.893877551 1387.52244898 465.893877551 1387.52244898 372 1391 c 0,15,16
 345 1392 345 1392 317 1392 c 1,17,-1
 458 1466 l 1,18,19
 584 1466 584 1466 624.5 1449.5 c 128,-1,20
 665 1433 665 1433 692 1412 c 1,21,22
 773.221674877 1422.15270936 773.221674877 1422.15270936 798.5 1367 c 0,23,24
 804 1355 804 1355 808 1342.5 c 128,-1,25
 812 1330 812 1330 826 1298.5 c 128,-1,26
 840 1267 840 1267 863 1216 c 128,-1,27
 886 1165 886 1165 933.5 1060 c 0,28,29
 1176.09756098 523.731707317 1176.09756098 523.731707317 1208.04878049 435.865853659 c 128,-1,30
 1240 348 1240 348 1262 307 c 1,31,32
 1273.52941176 380.5 1273.52941176 380.5 1313.26470588 551.25 c 0,33,34
 1436.50325225 1080.82911248 1436.50325225 1080.82911248 1477 1363 c 1,35,36
 1463 1366 1463 1366 1452 1372.5 c 128,-1,37
 1441 1379 1441 1379 1416.5 1383 c 128,-1,38
 1392 1387 1392 1387 1356.5 1388 c 128,-1,39
 1321 1389 1321 1389 1286 1392 c 1,40,-1
 1443 1465 l 1,41,42
 1595.9223301 1456.95145631 1595.9223301 1456.95145631 1611.46116505 1448.47572816 c 128,-1,43
 1627 1440 1627 1440 1636 1438.5 c 128,-1,44
 1645 1437 1645 1437 1650.5 1440 c 128,-1,45
 1656 1443 1656 1443 1665 1445 c 128,-1,46
 1674 1447 1674 1447 1686.5 1450.5 c 128,-1,47
 1699 1454 1699 1454 1722 1457 c 128,-1,48
 1745 1460 1745 1460 1778 1461.5 c 128,-1,49
 1811 1463 1811 1463 1844 1466 c 1,50,51
 1792 1437.77142857 1792 1437.77142857 1703 1392 c 1,52,53
 1689 1390 1689 1390 1676 1390 c 128,-1,54
 1663 1390 1663 1390 1650 1389 c 1,55,56
 1642 1338 1642 1338 1634.5 1289 c 128,-1,57
 1627 1240 1627 1240 1617.5 1189.5 c 128,-1,58
 1608 1139 1608 1139 1601.5 1103.5 c 128,-1,59
 1595 1068 1595 1068 1588 1035 c 128,-1,60
 1581 1002 1581 1002 1573.5 966.5 c 128,-1,61
 1566 931 1566 931 1553.5 876.5 c 0,62,63
 1498.2761194 635.723880597 1498.2761194 635.723880597 1479.6380597 561.861940299 c 128,-1,64
 1461 488 1461 488 1453 442.5 c 128,-1,65
 1445 397 1445 397 1441.5 367.5 c 128,-1,66
 1438 338 1438 338 1429.5 312.5 c 0,67,68
 1410.925 256.775 1410.925 256.775 1354 224 c 1,69,70
 1325.77358491 200.905660377 1325.77358491 200.905660377 1345 124 c 1,71,-1
 1167 63 l 1,72,73
 1152.97107438 115.107438017 1152.97107438 115.107438017 1162 144 c 1,74,-1
 1161 144 l 1,75,76
 1108.23211679 186.554744526 1108.23211679 186.554744526 1081.61605839 244.777372263 c 128,-1,77
 1055 303 1055 303 1042 339.5 c 128,-1,78
 1029 376 1029 376 995.5 456 c 128,-1,79
 962 536 962 536 907 657 c 128,-1,80
 852 778 852 778 798 901 c 1,81,-1
 733 1046 l 2,82,83
 710 1098 710 1098 682.5 1148 c 128,-1,84
 655 1198 655 1198 638 1253 c 1,85,86
 632 1223 632 1223 627 1186 c 128,-1,87
 622 1149 622 1149 611 1107 c 128,-1,88
 600 1065 600 1065 582 989.5 c 0,89,90
 541.634408602 820.188769415 541.634408602 820.188769415 482.817204301 543.094384707 c 128,-1,91
 424 266 424 266 416.5 206 c 0,92,93
 406.166666667 123.333333333 406.166666667 123.333333333 401 113 c 1,94,95
 447.900884956 80.3115044248 447.900884956 80.3115044248 573 75.5 c 0,96,97
 586 75 586 75 598 72 c 1,98,-1
 429 1 l 1,99,-1
 427 1 l 1,100,-1
 410 2 l 1,101,102
 307 2 307 2 253 29 c 1,103,104
 172.714285714 4.2967032967 172.714285714 4.2967032967 61 0 c 1,105,-1
 41 0 l 2,106,107
 36 0 36 0 28 -1 c 128,-1,108
 20 -2 20 -2 20 -1 c 128,-1,109
 20 0 20 0 17.5 -0.5 c 128,-1,110
 15 -1 15 -1 13 -1 c 2,111,-1
 144 67 l 1,112,113
 139 66 139 66 134 65.5 c 1,114,-1
 154 73 l 1,115,-1
 163 73 l 1,0,1
117 62 m 1,116,117
 115 61 115 61 113.5 61 c 128,-1,118
 112 61 112 61 113.5 61.5 c 128,-1,119
 115 62 115 62 117 62 c 1,116,117
119 62 m 1,120,121
 121 63 121 63 124 63 c 1,122,123
 121 63 121 63 119 62 c 1,120,121
EndSplineSet
EndChar

StartChar: l
Encoding: 79 79 51
Width: 1542
Flags: W
LayerCount: 2
Fore
SplineSet
546 1247.5 m 128,-1,1
 621 1323 621 1323 688 1360.5 c 128,-1,2
 755 1398 755 1398 794 1413 c 128,-1,3
 833 1428 833 1428 873.5 1440 c 0,4,5
 945.05 1461.2 945.05 1461.2 1032 1480 c 1,6,7
 1174.09859155 1489.97183099 1174.09859155 1489.97183099 1248.04929577 1469.48591549 c 0,8,9
 1405.69372547 1425.81506072 1405.69372547 1425.81506072 1484 1327 c 0,10,11
 1558.47899687 1235.33354232 1558.47899687 1235.33354232 1584.5 1064.5 c 0,12,13
 1608.12491716 909.397282969 1608.12491716 909.397282969 1587.06245858 793.698641484 c 128,-1,14
 1566 678 1566 678 1536 579.5 c 128,-1,15
 1506 481 1506 481 1459.5 392 c 0,16,17
 1311.46315919 108.660670281 1311.46315919 108.660670281 1037.5 19 c 0,18,19
 730.912646675 -81.3376792699 730.912646675 -81.3376792699 523.5 10 c 0,20,21
 336.16442148 92.4964015501 336.16442148 92.4964015501 279 354.5 c 0,22,23
 243.187619655 518.640076579 243.187619655 518.640076579 267.593809828 651.82003829 c 128,-1,24
 292 785 292 785 327.5 888 c 128,-1,25
 363 991 363 991 417 1081.5 c 128,-1,0
 471 1172 471 1172 546 1247.5 c 128,-1,1
1084.5 1396 m 0,26,27
 1019.34541578 1414.39658849 1019.34541578 1414.39658849 901 1407 c 1,28,29
 849.413793103 1394.86206897 849.413793103 1394.86206897 835 1387 c 0,30,31
 712.057915058 1320.40637066 712.057915058 1320.40637066 610 1165 c 0,32,33
 503.558515699 1003.72502379 503.558515699 1003.72502379 455 775.5 c 0,34,35
 431.648444071 665.747687132 431.648444071 665.747687132 437.824222035 589.873843566 c 128,-1,36
 444 514 444 514 453 454.5 c 0,37,38
 500.580670365 139.938901477 500.580670365 139.938901477 751.5 60 c 0,39,40
 867.113879004 23.1672597865 867.113879004 23.1672597865 983 48 c 0,41,42
 994 51 994 51 1006 53 c 128,-1,43
 1018 55 1018 55 1028.5 58.5 c 128,-1,44
 1039 62 1039 62 1051.5 69 c 128,-1,45
 1064 76 1064 76 1075.5 84 c 0,46,47
 1294.26077098 236.181405896 1294.26077098 236.181405896 1387 624 c 0,48,49
 1415 742.461538462 1415 742.461538462 1415 840.730769231 c 128,-1,50
 1415 939 1415 939 1406 1005.5 c 0,51,52
 1387.21795714 1144.27842776 1387.21795714 1144.27842776 1315.20329382 1247.73611311 c 128,-1,53
 1243.18863049 1351.19379845 1243.18863049 1351.19379845 1084.5 1396 c 0,26,27
EndSplineSet
EndChar

StartChar: m
Encoding: 80 80 52
Width: 1257
Flags: W
LayerCount: 2
Fore
SplineSet
472 1463 m 1,0,1
 498 1463 498 1463 529 1464 c 128,-1,2
 560 1465 560 1465 590.5 1462 c 0,3,4
 662.372943327 1454.93053016 662.372943327 1454.93053016 698 1421 c 1,5,6
 809.274509804 1460.37405732 809.274509804 1460.37405732 975 1454 c 0,7,8
 1101.23972603 1449.49143836 1101.23972603 1449.49143836 1165.11986301 1418.24571918 c 128,-1,9
 1229 1387 1229 1387 1265.5 1349.5 c 128,-1,10
 1302 1312 1302 1312 1321 1269.5 c 0,11,12
 1384.64013841 1127.14705882 1384.64013841 1127.14705882 1332 978 c 0,13,14
 1323 955 1323 955 1318 940 c 128,-1,15
 1313 925 1313 925 1307 912 c 0,16,17
 1212.2983871 706.813172043 1212.2983871 706.813172043 942 629 c 0,18,19
 830.239208633 596.826438849 830.239208633 596.826438849 773.619604317 595.913219424 c 128,-1,20
 717 595 717 595 687 591.5 c 0,21,22
 630.515625 584.91015625 630.515625 584.91015625 572 587 c 1,23,-1
 563 587 l 2,24,25
 559 587 559 587 554 588 c 1,26,27
 548.352941176 551.294117647 548.352941176 551.294117647 545 539 c 2,28,-1
 527 467 l 2,29,30
 482 287 482 287 482 249 c 128,-1,31
 482 211 482 211 481 193 c 0,32,33
 478.547945205 148.863013699 478.547945205 148.863013699 464 123 c 1,34,-1
 468 125 l 1,35,36
 510.93883357 85.3641536273 510.93883357 85.3641536273 564.469416785 81.1820768137 c 128,-1,37
 618 77 618 77 650.5 76.5 c 128,-1,38
 683 76 683 76 715 69 c 1,39,-1
 546 -2 l 1,40,41
 515 5 515 5 486 5.5 c 128,-1,42
 457 6 457 6 428.5 7.5 c 0,43,44
 360.496402878 11.0791366906 360.496402878 11.0791366906 320 36 c 1,45,46
 248.49382716 9.18518518519 248.49382716 9.18518518519 195.24691358 4.59259259259 c 128,-1,47
 142 0 142 0 93 -2 c 1,48,-1
 62 -2 l 1,49,-1
 184 70 l 1,50,51
 209 74 209 74 236.5 74 c 128,-1,52
 264 74 264 74 290 75 c 1,53,-1
 291 76 l 1,54,55
 302.862068966 105.655172414 302.862068966 105.655172414 306.431034483 166.327586207 c 128,-1,56
 310 227 310 227 316.5 260.5 c 128,-1,57
 323 294 323 294 325.5 306 c 128,-1,58
 328 318 328 318 330 327 c 128,-1,59
 332 336 332 336 335 348 c 128,-1,60
 338 360 338 360 343.5 384.5 c 128,-1,61
 349 409 349 409 355 432 c 128,-1,62
 361 455 361 455 368 484 c 128,-1,63
 375 513 375 513 380.5 551.5 c 128,-1,64
 386 590 386 590 396.5 613.5 c 0,65,66
 408.142259414 639.556485356 408.142259414 639.556485356 434 668 c 1,67,68
 421.02247191 719.91011236 421.02247191 719.91011236 449.511235955 836.45505618 c 128,-1,69
 478 953 478 953 490 1002.5 c 0,70,71
 512.482758621 1095.24137931 512.482758621 1095.24137931 519.24137931 1131.12068966 c 128,-1,72
 526 1167 526 1167 533.5 1194 c 128,-1,73
 541 1221 541 1221 545 1249 c 0,74,75
 554.617391304 1316.32173913 554.617391304 1316.32173913 533.808695652 1341.16086957 c 128,-1,76
 513 1366 513 1366 488.5 1375.5 c 128,-1,77
 464 1385 464 1385 437 1388 c 128,-1,78
 410 1391 410 1391 382.5 1390 c 128,-1,79
 355 1389 355 1389 331 1389 c 1,80,-1
 472 1463 l 1,0,1
722 1382 m 1,81,82
 734.635294118 1339.88235294 734.635294118 1339.88235294 719.317647059 1282.44117647 c 128,-1,83
 704 1225 704 1225 694.5 1177 c 128,-1,84
 685 1129 685 1129 666 1052.5 c 128,-1,85
 647 976 647 976 636.5 926 c 128,-1,86
 626 876 626 876 621 855 c 128,-1,87
 616 834 616 834 611.5 807.5 c 0,88,89
 597.85483871 727.14516129 597.85483871 727.14516129 636 689 c 0,90,91
 665 660 665 660 707.5 660 c 128,-1,92
 750 660 750 660 775 662.5 c 128,-1,93
 800 665 800 665 829.5 667 c 128,-1,94
 859 669 859 669 896.5 670 c 0,95,96
 949.535714286 671.414285714 949.535714286 671.414285714 976 682 c 1,97,98
 1116.60336211 772.97864607 1116.60336211 772.97864607 1160.5 940 c 0,99,100
 1206.07712584 1113.41540564 1206.07712584 1113.41540564 1115 1251 c 0,101,102
 1021.92105263 1394.49671053 1021.92105263 1394.49671053 722 1382 c 1,81,82
274 56 m 1,103,-1
 275 56 l 2,104,105
 274 56 274 56 274 56 c 1,103,-1
EndSplineSet
EndChar

StartChar: n
Encoding: 81 81 53
Width: 1542
Flags: W
LayerCount: 2
Fore
SplineSet
783 -78 m 128,-1,1
 784 -67 784 -67 784.5 -64.5 c 128,-1,2
 785 -62 785 -62 785 -60 c 1,3,-1
 778 -63 l 1,4,5
 749 -53 749 -53 723 -39.5 c 128,-1,6
 697 -26 697 -26 669 -15 c 1,7,-1
 615 0 l 2,8,9
 606 2 606 2 604 2.5 c 128,-1,10
 602 3 602 3 591 5.5 c 128,-1,11
 580 8 580 8 573 9 c 128,-1,12
 566 10 566 10 560 11.5 c 0,13,14
 368.842105263 59.2894736842 368.842105263 59.2894736842 292 297.5 c 0,15,16
 262.055679287 390.327394209 262.055679287 390.327394209 260.527839644 456.663697105 c 128,-1,17
 259 523 259 523 257.5 556 c 128,-1,18
 256 589 256 589 259.5 650 c 128,-1,19
 263 711 263 711 284 799 c 128,-1,20
 305 887 305 887 340.5 969.5 c 0,21,22
 414.521276596 1141.5212766 414.521276596 1141.5212766 538 1265 c 0,23,24
 564 1291 564 1291 619.5 1333.5 c 128,-1,25
 675 1376 675 1376 728.5 1402 c 128,-1,26
 782 1428 782 1428 841 1449.5 c 0,27,28
 971.348837209 1497 971.348837209 1497 1032.1744186 1497 c 0,29,30
 1208 1497 1208 1497 1246.5 1486 c 0,31,32
 1376.34732824 1448.90076336 1376.34732824 1448.90076336 1433.67366412 1390.45038168 c 128,-1,33
 1491 1332 1491 1332 1522.5 1265.5 c 0,34,35
 1577.94174757 1148.45631068 1577.94174757 1148.45631068 1583.47087379 1010.22815534 c 128,-1,36
 1589 872 1589 872 1574 769 c 128,-1,37
 1559 666 1559 666 1526 568 c 128,-1,38
 1493 470 1493 470 1441 380.5 c 128,-1,39
 1389 291 1389 291 1320 218.5 c 0,40,41
 1171.91502379 62.9034670292 1171.91502379 62.9034670292 973 17 c 1,42,43
 962 -5 962 -5 962 -13.5 c 128,-1,44
 962 -22 962 -22 970.5 -44.5 c 128,-1,45
 979 -67 979 -67 1003.5 -90.5 c 128,-1,46
 1028 -114 1028 -114 1060 -150 c 128,-1,47
 1092 -186 1092 -186 1138.5 -224.5 c 128,-1,48
 1185 -263 1185 -263 1236.5 -288.5 c 0,49,50
 1346.48030925 -342.95626963 1346.48030925 -342.95626963 1468 -328 c 1,51,-1
 1346 -400 l 1,52,53
 1329 -402 1329 -402 1311 -405 c 128,-1,54
 1293 -408 1293 -408 1276 -408 c 0,55,56
 1070.82894737 -408 1070.82894737 -408 908 -243 c 1,57,-1
 872.5 -207.5 l 2,58,59
 821.2 -156.2 821.2 -156.2 801.6 -122.6 c 128,-1,0
 782 -89 782 -89 783 -78 c 128,-1,1
713.5 89.5 m 0,60,61
 736 83 736 83 779.530952381 72.8119047619 c 0,62,63
 833.76 60.12 833.76 60.12 894 30 c 0,64,65
 898 32 898 32 902 33.5 c 128,-1,66
 906 35 906 35 922 43 c 0,67,68
 949.764705882 56.8823529412 949.764705882 56.8823529412 1030 75 c 1,69,70
 1222.36659878 188.156822811 1222.36659878 188.156822811 1325.5 441 c 0,71,72
 1440.93428126 724.0001734 1440.93428126 724.0001734 1394 1045.5 c 0,73,74
 1371.33288834 1200.76971489 1371.33288834 1200.76971489 1281.5 1298.5 c 0,75,76
 1157.05767732 1433.88230709 1157.05767732 1433.88230709 910 1424 c 0,77,78
 814.642857143 1417.64285714 814.642857143 1417.64285714 706 1309 c 0,79,80
 464.174603175 1067.17460317 464.174603175 1067.17460317 436 684 c 1,81,82
 420.802962009 410.453316162 420.802962009 410.453316162 524.5 238.5 c 0,83,84
 593.438373048 124.184470008 593.438373048 124.184470008 713.5 89.5 c 0,60,61
EndSplineSet
EndChar

StartChar: o
Encoding: 82 82 54
Width: 1311
Flags: W
LayerCount: 2
Fore
SplineSet
600 692 m 1,0,-1
 596 691 l 1,1,2
 594 682 594 682 592.5 672.5 c 128,-1,3
 591 663 591 663 580 614.5 c 128,-1,4
 569 566 569 566 550 480 c 128,-1,5
 531 394 531 394 519.5 346.5 c 128,-1,6
 508 299 508 299 504.5 274.5 c 128,-1,7
 501 250 501 250 497 221.5 c 0,8,9
 486.621145374 147.550660793 486.621145374 147.550660793 490.810572687 137.275330396 c 0,10,11
 496.376764387 123.623235613 496.376764387 123.623235613 514.688382193 106.311617807 c 128,-1,12
 533 89 533 89 557 83.5 c 128,-1,13
 581 78 581 78 607.5 77.5 c 128,-1,14
 634 77 634 77 660 77 c 128,-1,15
 686 77 686 77 708 72 c 1,16,-1
 539 1 l 1,17,18
 515 6 515 6 488.5 5.5 c 128,-1,19
 462 5 462 5 435.5 6 c 0,20,21
 372.187192118 8.38916256158 372.187192118 8.38916256158 331 45 c 1,22,23
 224.069958848 8.24279835391 224.069958848 8.24279835391 105.5 3.5 c 0,24,25
 81.0952380952 2.52380952381 81.0952380952 2.52380952381 78.0476190476 1.7619047619 c 128,-1,26
 75 1 75 1 73 1 c 1,27,-1
 195 73 l 1,28,29
 222 77 222 77 249 78 c 0,30,31
 269.647058824 78.7647058824 269.647058824 78.7647058824 312 83 c 1,32,33
 309.7109375 110.46875 309.7109375 110.46875 319.85546875 174.234375 c 128,-1,34
 330 238 330 238 341 285.5 c 128,-1,35
 352 333 352 333 371.5 419 c 128,-1,36
 391 505 391 505 405.5 569 c 128,-1,37
 420 633 420 633 425.5 672 c 128,-1,38
 431 711 431 711 450 749 c 1,39,-1
 461 752 l 1,40,41
 449.014423077 786.625 449.014423077 786.625 457.007211538 816.3125 c 128,-1,42
 465 846 465 846 469 867 c 0,43,44
 477.857142857 913.5 477.857142857 913.5 494 970 c 1,45,-1
 508 1025 l 2,46,47
 552.806629834 1199.74585635 552.806629834 1199.74585635 559 1336 c 1,48,49
 542.601731674 1342.27612883 542.601731674 1342.27612883 529.300865837 1357.63806441 c 0,50,51
 496.951681071 1395 496.951681071 1395 426 1395 c 0,52,53
 406 1395 406 1395 386 1393.5 c 128,-1,54
 366 1392 366 1392 350 1392 c 1,55,-1
 491 1466 l 1,56,57
 535 1466 535 1466 578 1466.5 c 128,-1,58
 621 1467 621 1467 649 1458.5 c 128,-1,59
 677 1450 677 1450 686.5 1441 c 128,-1,60
 696 1432 696 1432 706 1423 c 1,61,62
 807.90403338 1460.20305981 807.90403338 1460.20305981 971 1465 c 0,63,64
 1169.27914798 1468.81306054 1169.27914798 1468.81306054 1280 1380.5 c 0,65,66
 1322 1347 1322 1347 1347 1295 c 0,67,68
 1355 1281 1355 1281 1359 1265.5 c 128,-1,69
 1363 1250 1363 1250 1373 1216 c 128,-1,70
 1383 1182 1383 1182 1375 1125 c 128,-1,71
 1367 1068 1367 1068 1342.5 1014.5 c 0,72,73
 1289.35273264 898.443722304 1289.35273264 898.443722304 1199 843 c 0,74,75
 1106.5 785.5 1106.5 785.5 1042 764 c 2,76,-1
 1021 757 l 1,77,78
 1015.26839827 735.506493506 1015.26839827 735.506493506 1055 708 c 1,79,80
 1102.7901524 681.792497069 1102.7901524 681.792497069 1130 592 c 0,81,82
 1150.56109482 527.153470186 1150.56109482 527.153470186 1152.28054741 454.076735093 c 128,-1,83
 1154 381 1154 381 1154.5 338 c 128,-1,84
 1155 295 1155 295 1159 259 c 128,-1,85
 1163 223 1163 223 1172 196.5 c 128,-1,86
 1181 170 1181 170 1196.5 147.5 c 0,87,88
 1245.75555556 76 1245.75555556 76 1374 76 c 1,89,90
 1322 47.7714285714 1322 47.7714285714 1233 2 c 1,91,92
 1075.70731707 2 1075.70731707 2 1027.5 69 c 0,93,94
 976 140.576271186 976 140.576271186 976 273.5 c 0,95,96
 976 421.8 976 421.8 968 466.4 c 0,97,98
 946.931937173 583.854450262 946.931937173 583.854450262 895.5 625 c 0,99,100
 843.803571429 666.357142857 843.803571429 666.357142857 842 688 c 1,101,102
 760.666666667 692 760.666666667 692 600 692 c 1,0,-1
731 763 m 0,103,104
 761 766 761 766 807.5 766 c 128,-1,105
 854 766 854 766 922 764 c 1,106,107
 940 773 940 773 960 780 c 128,-1,108
 980 787 980 787 999 794 c 128,-1,109
 1018 801 1018 801 1037 806 c 1,110,-1
 1056 817 l 1,111,112
 1156.43545879 882.283048212 1156.43545879 882.283048212 1190 1024 c 0,113,114
 1224.41176471 1169.29411765 1224.41176471 1169.29411765 1139 1278 c 0,115,116
 1078.88118812 1352.69306931 1078.88118812 1352.69306931 956 1380 c 0,117,118
 859.942307692 1401.34615385 859.942307692 1401.34615385 738 1387 c 1,119,-1
 737 1387 l 1,120,121
 729.553191489 1267.85106383 729.553191489 1267.85106383 703 1155 c 256,122,123
 699 1138 699 1138 695 1120.5 c 128,-1,124
 691 1103 691 1103 683 1074 c 0,125,126
 657.615384615 981.980769231 657.615384615 981.980769231 649.807692308 942.990384615 c 128,-1,127
 642 904 642 904 638 887 c 128,-1,128
 634 870 634 870 633 849.5 c 128,-1,129
 632 829 632 829 642.5 803 c 0,130,131
 661.462107209 756.046210721 661.462107209 756.046210721 731 763 c 0,103,104
980 747 m 1,132,-1
 975 746 l 1,133,-1
 980 747 l 1,132,-1
1011 792 m 2,134,-1
 1023 797 l 2,135,136
 1018 795 1018 795 1011 792 c 2,134,-1
297 71 m 1,137,138
 297.292893219 71.2285533906 297.292893219 71.2285533906 297.5 71.5 c 1,139,140
 297.292893219 71.2071067812 297.292893219 71.2071067812 297 71 c 1,137,138
777 1417 m 1,141,-1
 776 1416 l 1,142,-1
 777 1417 l 1,141,-1
EndSplineSet
EndChar

StartChar: p
Encoding: 83 83 55
Width: 1092
Flags: W
LayerCount: 2
Fore
SplineSet
1182 1298 m 1,0,-1
 1167 1144 l 1,1,-1
 989 1083 l 1,2,3
 989 1105 989 1105 993 1132 c 128,-1,4
 997 1159 997 1159 1001 1187.5 c 0,5,6
 1014.74916759 1285.46281909 1014.74916759 1285.46281909 997.5 1312 c 0,7,8
 982.242105263 1335.47368421 982.242105263 1335.47368421 946.621052632 1357.73684211 c 128,-1,9
 911 1380 911 1380 875.5 1391 c 128,-1,10
 840 1402 840 1402 802.5 1406 c 0,11,12
 733.173431734 1413.39483395 733.173431734 1413.39483395 654 1398 c 1,13,14
 575.147826087 1348.06028986 575.147826087 1348.06028986 549.5 1233.5 c 0,15,16
 523.731034483 1118.39862069 523.731034483 1118.39862069 531.365517241 1077.19931034 c 0,17,18
 552.028746325 965.690670577 552.028746325 965.690670577 650.5 891.5 c 0,19,20
 705.806094183 849.831024931 705.806094183 849.831024931 776.903047091 813.415512465 c 128,-1,21
 848 777 848 777 886.5 752 c 0,22,23
 1049.82169118 645.946953782 1049.82169118 645.946953782 1072.5 471 c 0,24,25
 1083.85940594 383.37029703 1083.85940594 383.37029703 1054.5 284 c 0,26,27
 1048 262 1048 262 1038 244.5 c 128,-1,28
 1028 227 1028 227 1019 208.5 c 128,-1,29
 1010 190 1010 190 990 164 c 128,-1,30
 970 138 970 138 934.5 111 c 128,-1,31
 899 84 899 84 859 63 c 0,32,33
 724.332086062 -7.70065481759 724.332086062 -7.70065481759 566 -29.5 c 0,34,35
 497 -39 497 -39 454.5 -30.5 c 128,-1,36
 412 -22 412 -22 390.5 -19 c 128,-1,37
 369 -16 369 -16 343.5 -8.5 c 128,-1,38
 318 -1 318 -1 288 12.5 c 128,-1,39
 258 26 258 26 230 45 c 0,40,41
 135.6996337 108.989534275 135.6996337 108.989534275 127.5 194.5 c 0,42,43
 119.937062937 273.370629371 119.937062937 273.370629371 133 404 c 1,44,-1
 311 465 l 1,45,46
 301.868263473 379.161676647 301.868263473 379.161676647 304.434131737 320.080838323 c 128,-1,47
 307 261 307 261 307.5 242.5 c 128,-1,48
 308 224 308 224 323 196 c 128,-1,49
 338 168 338 168 370 140 c 128,-1,50
 402 112 402 112 440.5 92 c 0,51,52
 568.386058981 25.5656836461 568.386058981 25.5656836461 708.5 44.5 c 0,53,54
 727 47 727 47 738 53 c 0,55,56
 844.507395498 111.762700965 844.507395498 111.762700965 881 247 c 0,57,58
 925.260240964 414.556626506 925.260240964 414.556626506 844 553 c 0,59,60
 795.134831461 636.251768623 795.134831461 636.251768623 700.5 693.5 c 0,61,62
 660 718 660 718 618.5 740 c 0,63,64
 503.894039735 800.754966887 503.894039735 800.754966887 461.947019868 835.877483444 c 128,-1,65
 420 871 420 871 398 902 c 128,-1,66
 376 933 376 933 365.5 967 c 128,-1,67
 355 1001 355 1001 355 1039 c 128,-1,68
 355 1077 355 1077 360.5 1116.5 c 0,69,70
 373.736263736 1211.56043956 373.736263736 1211.56043956 393.368131868 1244.28021978 c 0,71,72
 429.5 1304.5 429.5 1304.5 464.75 1338.75 c 128,-1,73
 500 1373 500 1373 560.5 1403 c 128,-1,74
 621 1433 621 1433 688 1451.5 c 0,75,76
 946.096614368 1522.76548307 946.096614368 1522.76548307 1112.5 1432 c 0,77,78
 1211.36111111 1378.07575758 1211.36111111 1378.07575758 1182 1298 c 1,0,-1
EndSplineSet
EndChar

StartChar: q
Encoding: 84 84 56
Width: 1241
Flags: W
LayerCount: 2
Fore
SplineSet
529 75 m 2,0,-1
 560 76 l 1,1,2
 568.23255814 86.976744186 568.23255814 86.976744186 569.11627907 94.488372093 c 128,-1,3
 570 102 570 102 573 121 c 128,-1,4
 576 140 576 140 576.5 172 c 128,-1,5
 577 204 577 204 592.5 270.5 c 128,-1,6
 608 337 608 337 630.5 437 c 128,-1,7
 653 537 653 537 668.5 605 c 128,-1,8
 684 673 684 673 692 707.5 c 128,-1,9
 700 742 700 742 708 777 c 2,10,-1
 731 879 l 2,11,12
 751 969 751 969 770 1058 c 128,-1,13
 789 1147 789 1147 801 1201 c 128,-1,14
 813 1255 813 1255 818.5 1273.5 c 128,-1,15
 824 1292 824 1292 825.5 1310 c 0,16,17
 828.883333333 1350.6 828.883333333 1350.6 795 1372 c 256,18,19
 772.833333333 1386 772.833333333 1386 685.916666667 1386 c 128,-1,20
 599 1386 599 1386 485 1383 c 1,21,22
 480.266055046 1372.74311927 480.266055046 1372.74311927 453.133027523 1299.87155963 c 128,-1,23
 426 1227 426 1227 415 1175 c 1,24,-1
 237 1114 l 1,25,26
 274.918918919 1303.59459459 274.918918919 1303.59459459 335 1370 c 0,27,28
 351 1387 351 1387 375.5 1398 c 128,-1,29
 400 1409 400 1409 428 1421.5 c 128,-1,30
 456 1434 456 1434 494.5 1442.5 c 128,-1,31
 533 1451 533 1451 572.5 1454.5 c 0,32,33
 634.571428571 1460 634.571428571 1460 729 1460 c 2,34,-1
 854 1460 l 2,35,36
 884 1460 884 1460 916.5 1458 c 128,-1,37
 949 1456 949 1456 974 1437 c 1,38,39
 1052.93448702 1466.94066749 1052.93448702 1466.94066749 1146.5 1461 c 0,40,41
 1178 1459 1178 1459 1210 1460 c 1,42,-1
 1395 1457 l 1,43,44
 1533.34146341 1457 1533.34146341 1457 1530 1388.5 c 0,45,46
 1529 1368 1529 1368 1529 1351 c 128,-1,47
 1529 1334 1529 1334 1528 1310.5 c 128,-1,48
 1527 1287 1527 1287 1524.5 1262 c 0,49,50
 1518.70967742 1204.09677419 1518.70967742 1204.09677419 1510 1171 c 1,51,-1
 1332 1110 l 1,52,53
 1351 1182.2 1351 1182.2 1351 1243.6 c 128,-1,54
 1351 1305 1351 1305 1352 1324 c 128,-1,55
 1353 1343 1353 1343 1343.5 1355.5 c 128,-1,56
 1334 1368 1334 1368 1319.5 1373 c 128,-1,57
 1305 1378 1305 1378 1288.5 1379.5 c 128,-1,58
 1272 1381 1272 1381 1255.5 1381 c 128,-1,59
 1239 1381 1239 1381 1230.97777778 1381.95555556 c 128,-1,60
 1222.95555556 1382.91111111 1222.95555556 1382.91111111 1161.97777778 1384.95555556 c 0,61,62
 1071.17391304 1388 1071.17391304 1388 1004 1388 c 1,63,64
 1006 1376 1006 1376 1003 1363.5 c 2,65,-1
 993 1321 l 1,66,-1
 992 1319 l 1,67,68
 986 1281 986 1281 976.5 1245 c 128,-1,69
 967 1209 967 1209 953.5 1149 c 128,-1,70
 940 1089 940 1089 923 1006 c 128,-1,71
 906 923 906 923 880.5 812.5 c 128,-1,72
 855 702 855 702 825 568 c 128,-1,73
 795 434 795 434 777 357.5 c 0,74,75
 753.823529412 259 753.823529412 259 752 228 c 1,76,77
 752 206.5 l 2,78,79
 752 153.2 752 153.2 740 134 c 1,80,-1
 745 136 l 1,81,82
 807.260092654 76.2303110523 807.260092654 76.2303110523 918 74.5 c 0,83,84
 950 74 950 74 983 74 c 1,85,86
 931 45.7714285714 931 45.7714285714 842 0 c 0,87,88
 836 0 836 0 830 0 c 128,-1,89
 824 0 824 0 792.5 0.5 c 0,90,91
 666.19218241 2.50488599349 666.19218241 2.50488599349 603 42 c 1,92,93
 491 0 491 0 266 0 c 1,94,95
 355 45.7714285714 355 45.7714285714 407 74 c 1,96,97
 514 74 514 74 529 75 c 2,0,-1
603 85 m 0,98,99
 599 83 599 83 598 83 c 1,100,101
 606 85 606 85 603 85 c 0,98,99
513 1424 m 2,102,-1
 512 1423 l 258,103,104
 513 1423 513 1423 513 1424 c 2,102,-1
EndSplineSet
EndChar

StartChar: r
Encoding: 85 85 57
Width: 1626
Flags: W
LayerCount: 2
Fore
SplineSet
1901 1466 m 1,0,1
 1849 1437.77142857 1849 1437.77142857 1760 1392 c 1,2,3
 1736 1392 1736 1392 1712.5 1392.5 c 128,-1,4
 1689 1393 1689 1393 1666 1391 c 1,5,-1
 1653 1385 l 1,6,7
 1647.92572944 1273.36604775 1647.92572944 1273.36604775 1608.96286472 1116.18302387 c 128,-1,8
 1570 959 1570 959 1552 870 c 128,-1,9
 1534 781 1534 781 1515 700 c 128,-1,10
 1496 619 1496 619 1477.5 543.5 c 128,-1,11
 1459 468 1459 468 1432 396 c 0,12,13
 1371.1318328 233.68488746 1371.1318328 233.68488746 1268 143 c 0,14,15
 1160.83695652 49.9905660377 1160.83695652 49.9905660377 991.5 1 c 0,16,17
 817.205827419 -49.4247291744 817.205827419 -49.4247291744 684 -22 c 0,18,19
 563.783950617 2.04320987654 563.783950617 2.04320987654 514.891975309 33.5216049383 c 0,20,21
 428.339042293 89.247465921 428.339042293 89.247465921 385 191 c 0,22,23
 336.672529581 304.569555484 336.672529581 304.569555484 376.5 507.5 c 0,24,25
 410.325695581 679.849972722 410.325695581 679.849972722 467.162847791 912.424986361 c 128,-1,26
 524 1145 524 1145 551 1328 c 1,27,28
 499.733333333 1371.94285714 499.733333333 1371.94285714 462.866666667 1380.97142857 c 0,29,30
 417.833333333 1392 417.833333333 1392 335 1392 c 1,31,-1
 476 1466 l 1,32,33
 523 1466 523 1466 570 1464 c 128,-1,34
 617 1462 617 1462 643 1449.5 c 0,35,36
 683.589928058 1429.98561151 683.589928058 1429.98561151 699 1418 c 1,37,38
 828.230769231 1466 828.230769231 1466 983 1466 c 1,39,40
 931 1437.77142857 931 1437.77142857 842 1392 c 1,41,-1
 786.5 1392 l 2,42,43
 759 1392 759 1392 732 1388 c 1,44,-1
 729 1386 l 1,45,46
 692.75308642 1141.33333333 692.75308642 1141.33333333 662.37654321 1024.16666667 c 128,-1,47
 632 907 632 907 621 861 c 128,-1,48
 610 815 610 815 601 779 c 128,-1,49
 592 743 592 743 582 698.5 c 128,-1,50
 572 654 572 654 560.5 595.5 c 128,-1,51
 549 537 549 537 543 477.5 c 128,-1,52
 537 418 537 418 540.5 360 c 128,-1,53
 544 302 544 302 563 250.5 c 0,54,55
 624.967995169 82.5341183575 624.967995169 82.5341183575 853 49 c 0,56,57
 975.460176991 32.191740413 975.460176991 32.191740413 1059 67 c 1,58,59
 1190.58974359 155.570019724 1190.58974359 155.570019724 1259.5 357 c 0,60,61
 1319.79310345 533.24137931 1319.79310345 533.24137931 1402 934 c 0,62,63
 1412 984 1412 984 1424.5 1034 c 128,-1,64
 1437 1084 1437 1084 1447.5 1133.5 c 0,65,66
 1472.79865772 1252.76510067 1472.79865772 1252.76510067 1476 1336 c 1,67,-1
 1478 1336 l 1,68,69
 1459 1343 1459 1343 1446.5 1357 c 128,-1,70
 1434 1371 1434 1371 1417.5 1379.5 c 128,-1,71
 1401 1388 1401 1388 1381.5 1391 c 128,-1,72
 1362 1394 1362 1394 1342 1394 c 128,-1,73
 1322 1394 1322 1394 1302.5 1393 c 128,-1,74
 1283 1392 1283 1392 1267 1392 c 1,75,-1
 1408 1466 l 1,76,77
 1450 1466 1450 1466 1494.5 1466.5 c 128,-1,78
 1539 1467 1539 1467 1566.5 1458 c 128,-1,79
 1594 1449 1594 1449 1603.5 1440 c 128,-1,80
 1613 1431 1613 1431 1624 1422 c 1,81,82
 1731.55555556 1466 1731.55555556 1466 1901 1466 c 1,0,1
EndSplineSet
EndChar

StartChar: s
Encoding: 86 86 58
Width: 1304
Flags: W
LayerCount: 2
Fore
SplineSet
827 1468 m 1,0,1
 775 1439.77142857 775 1439.77142857 686 1394 c 1,2,3
 669 1394 669 1394 652 1394 c 128,-1,4
 635 1394 635 1394 618 1393 c 1,5,6
 627 1375 627 1375 625 1350.5 c 128,-1,7
 623 1326 623 1326 623 1295.5 c 128,-1,8
 623 1265 623 1265 630.5 1223 c 128,-1,9
 638 1181 638 1181 642 1138 c 2,10,-1
 654 1018 l 2,11,12
 662 948 662 948 671 878.5 c 128,-1,13
 680 809 680 809 688 748 c 128,-1,14
 696 687 696 687 702 624 c 128,-1,15
 708 561 708 561 714 496 c 0,16,17
 726.153846154 364.333333333 726.153846154 364.333333333 733.076923077 304.666666667 c 128,-1,18
 740 245 740 245 741.5 220.5 c 128,-1,19
 743 196 743 196 746 169 c 1,20,21
 757 189 757 189 769.5 209.5 c 128,-1,22
 782 230 782 230 800 262.5 c 128,-1,23
 818 295 818 295 843.5 351.5 c 128,-1,24
 869 408 869 408 895.5 466.5 c 0,25,26
 970.240487062 631.493150685 970.240487062 631.493150685 1000 683 c 2,27,-1
 1088 839 l 2,28,29
 1143 937 1143 937 1201 1037.5 c 128,-1,30
 1259 1138 1259 1138 1288.5 1195.5 c 0,31,32
 1337.48286604 1290.97507788 1337.48286604 1290.97507788 1340.74143302 1319.48753894 c 128,-1,33
 1344 1348 1344 1348 1353 1362 c 1,34,-1
 1352 1362 l 1,35,36
 1310.81447964 1396.32126697 1310.81447964 1396.32126697 1232.5 1394.5 c 0,37,38
 1211 1394 1211 1394 1190 1394 c 1,39,-1
 1331 1468 l 1,40,41
 1377 1468 1377 1468 1423 1467 c 128,-1,42
 1469 1466 1469 1466 1509 1442 c 1,43,-1
 1530 1448 l 2,44,45
 1545 1452 1545 1452 1552 1453 c 128,-1,46
 1559 1454 1559 1454 1574 1457 c 2,47,-1
 1595 1460 l 1,48,-1
 1603 1460 l 1,49,-1
 1604 1461 l 1,50,-1
 1606 1461 l 1,51,-1
 1652.5 1466.5 l 2,52,53
 1673 1469 1673 1469 1693 1469 c 1,54,55
 1641 1440.77142857 1641 1440.77142857 1552 1395 c 1,56,57
 1534 1395 1534 1395 1518 1393 c 1,58,59
 1513 1379 1513 1379 1512 1364 c 128,-1,60
 1511 1349 1511 1349 1498.5 1318 c 128,-1,61
 1486 1287 1486 1287 1460 1242.5 c 128,-1,62
 1434 1198 1434 1198 1396.5 1131 c 128,-1,63
 1359 1064 1359 1064 1309 964 c 128,-1,64
 1259 864 1259 864 1209 761.5 c 0,65,66
 1082.80664653 502.803625378 1082.80664653 502.803625378 1033.40332326 418.401812689 c 0,67,68
 917.080634272 219.673363685 917.080634272 219.673363685 902.040317136 187.336681843 c 0,69,70
 872.987708516 124.87357331 872.987708516 124.87357331 812 99 c 1,71,-1
 811 98 l 2,72,73
 809.941176471 97.6470588235 809.941176471 97.6470588235 792.470588235 87.3235294118 c 128,-1,74
 775 77 775 77 763 71 c 1,75,-1
 756 41 l 1,76,-1
 578 -20 l 1,77,-1
 589 27 l 1,78,79
 571 45 571 45 571 86.5 c 2,80,-1
 571 105 l 1,81,82
 565 122 565 122 564 148 c 128,-1,83
 563 174 563 174 559.5 203 c 0,84,85
 549 290 549 290 539.5 352 c 128,-1,86
 530 414 530 414 521.5 493 c 128,-1,87
 513 572 513 572 505.5 654 c 0,88,89
 486.909574468 857.255319149 486.909574468 857.255319149 479.454787234 923.627659574 c 128,-1,90
 472 990 472 990 469.5 1023 c 128,-1,91
 467 1056 467 1056 462.5 1091 c 128,-1,92
 458 1126 458 1126 453 1162 c 128,-1,93
 448 1198 448 1198 446 1222 c 128,-1,94
 444 1246 444 1246 445.5 1259.5 c 128,-1,95
 447 1273 447 1273 447 1287.5 c 0,96,97
 447 1323.57142857 447 1323.57142857 433 1340.28571429 c 128,-1,98
 419 1357 419 1357 395.5 1369 c 128,-1,99
 372 1381 372 1381 346 1386.5 c 0,100,101
 310.545454545 1394 310.545454545 1394 239 1394 c 1,102,-1
 380 1468 l 1,103,104
 525 1468 525 1468 582 1430 c 1,105,106
 682.181818182 1468 682.181818182 1468 827 1468 c 1,0,1
1583 1457 m 1,107,108
 1581 1456 1581 1456 1582.5 1456 c 128,-1,109
 1584 1456 1584 1456 1585 1457 c 1,110,-1
 1583 1457 l 1,107,108
EndSplineSet
EndChar

StartChar: t
Encoding: 87 87 59
Width: 1937
Flags: W
LayerCount: 2
Fore
SplineSet
1953 1364 m 1,0,1
 1935.04651163 1368.48837209 1935.04651163 1368.48837209 1925.52325581 1375.74418605 c 128,-1,2
 1916 1383 1916 1383 1892.5 1387 c 128,-1,3
 1869 1391 1869 1391 1835 1391.5 c 128,-1,4
 1801 1392 1801 1392 1767 1394 c 1,5,-1
 1924 1467 l 1,6,7
 1961 1465 1961 1465 1997 1464 c 128,-1,8
 2033 1463 2033 1463 2056.5 1459.5 c 128,-1,9
 2080 1456 2080 1456 2089 1450.5 c 128,-1,10
 2098 1445 2098 1445 2104 1442.5 c 128,-1,11
 2110 1440 2110 1440 2112 1441.5 c 128,-1,12
 2114 1443 2114 1443 2121.5 1444.5 c 128,-1,13
 2129 1446 2129 1446 2141 1449.5 c 128,-1,14
 2153 1453 2153 1453 2176.5 1456 c 128,-1,15
 2200 1459 2200 1459 2233.5 1461.5 c 128,-1,16
 2267 1464 2267 1464 2300 1468 c 1,17,18
 2248 1439.77142857 2248 1439.77142857 2159 1394 c 0,19,20
 2147 1392 2147 1392 2135 1392 c 128,-1,21
 2123 1392 2123 1392 2111 1390 c 1,22,23
 2090.78947368 1301.07368421 2090.78947368 1301.07368421 2040.89473684 1200.03684211 c 128,-1,24
 1991 1099 1991 1099 1964 1040 c 128,-1,25
 1937 981 1937 981 1903 894.5 c 128,-1,26
 1869 808 1869 808 1835.5 719 c 0,27,28
 1734.50475185 450.684266103 1734.50475185 450.684266103 1701.25237592 385.842133052 c 128,-1,29
 1668 321 1668 321 1659 301.5 c 128,-1,30
 1650 282 1650 282 1642 263 c 128,-1,31
 1634 244 1634 244 1625 227 c 0,32,33
 1596.22053232 172.63878327 1596.22053232 172.63878327 1535.5 144.5 c 1,34,-1
 1493 126 l 1,35,36
 1483 112 1483 112 1483 48 c 1,37,-1
 1305 -13 l 1,38,39
 1305 50.4545454545 1305 50.4545454545 1326 81 c 1,40,-1
 1316 78 l 1,41,42
 1295.66037736 188.943396226 1295.66037736 188.943396226 1286.83018868 291.471698113 c 128,-1,43
 1278 394 1278 394 1269.5 479.5 c 128,-1,44
 1261 565 1261 565 1252 652.5 c 0,45,46
 1218.19886364 981.122159091 1218.19886364 981.122159091 1215.09943182 1041.56107955 c 128,-1,47
 1212 1102 1212 1102 1207 1140 c 1,48,-1
 1141 1003 l 2,49,50
 1094 905 1094 905 1049 807.5 c 128,-1,51
 1004 710 1004 710 957 613 c 1,52,-1
 829 260 l 1,53,54
 798.513157895 203.381578947 798.513157895 203.381578947 769.756578947 180.190789474 c 128,-1,55
 741 157 741 157 732.5 154 c 0,56,57
 718.6875 149.125 718.6875 149.125 710.34375 143.5625 c 0,58,59
 693 132 693 132 673 122 c 1,60,61
 665.263157895 73 665.263157895 73 660 48 c 1,62,-1
 482 -13 l 1,63,-1
 498 78 l 1,64,65
 480.53968254 91.0952380952 480.53968254 91.0952380952 483.26984127 132.047619048 c 128,-1,66
 486 173 486 173 486 181 c 2,67,-1
 481 281 l 1,68,69
 477 321 477 321 473 360.5 c 128,-1,70
 469 400 469 400 464.5 450 c 128,-1,71
 460 500 460 500 456.5 552 c 128,-1,72
 453 604 453 604 449.5 654 c 128,-1,73
 446 704 446 704 440.5 797.5 c 128,-1,74
 435 891 435 891 423 1037.5 c 128,-1,75
 411 1184 411 1184 405 1333 c 1,76,77
 334.142857143 1395 334.142857143 1395 226 1395 c 1,78,-1
 367 1469 l 1,79,80
 478.913043478 1469 478.913043478 1469 532 1436 c 2,81,-1
 547 1427 l 1,82,83
 644.769230769 1468 644.769230769 1468 802 1468 c 1,84,85
 750 1439.77142857 750 1439.77142857 661 1394 c 1,86,87
 623 1394 623 1394 583 1392 c 1,88,89
 590 1244 590 1244 601.5 1098 c 128,-1,90
 613 952 613 952 619 858.5 c 128,-1,91
 625 765 625 765 628.5 715 c 128,-1,92
 632 665 632 665 635.5 613 c 0,93,94
 643.307692308 497 643.307692308 497 649.653846154 435.5 c 0,95,96
 662.301308074 312.934596301 662.301308074 312.934596301 664 228 c 1,97,98
 674 248 674 248 682.5 269.5 c 128,-1,99
 691 291 691 291 714 337 c 128,-1,100
 737 383 737 383 769.5 464.5 c 128,-1,101
 802 546 802 546 834 630 c 0,102,103
 918.657534247 852.226027397 918.657534247 852.226027397 965 949 c 2,104,-1
 1036 1097 l 2,105,106
 1068.84210526 1164.73684211 1068.84210526 1164.73684211 1088.42105263 1181.86842105 c 0,107,108
 1119.31428571 1208.9 1119.31428571 1208.9 1189 1236 c 1,109,110
 1196.28571429 1248.14285714 1196.28571429 1248.14285714 1199.14285714 1279.57142857 c 128,-1,111
 1202 1311 1202 1311 1205 1322 c 1,112,-1
 1383 1383 l 1,113,114
 1378 1367 1378 1367 1376.5 1354 c 128,-1,115
 1375 1341 1375 1341 1373.5 1329 c 0,116,117
 1369.82608696 1299.60869565 1369.82608696 1299.60869565 1361 1287 c 1,118,-1
 1367 1289 l 1,119,120
 1372 1269 1372 1269 1377 1249.5 c 128,-1,121
 1382 1230 1382 1230 1385.5 1199.5 c 128,-1,122
 1389 1169 1389 1169 1391.5 1128.5 c 128,-1,123
 1394 1088 1394 1088 1398 1047 c 2,124,-1
 1463 380 l 1,125,126
 1470.29166667 292.5 1470.29166667 292.5 1478 237 c 1,127,-1
 1502 286.5 l 2,128,129
 1512 306 1512 306 1522 326 c 1,130,-1
 1609 596 l 1,131,132
 1655 695 1655 695 1703.5 801.5 c 128,-1,133
 1752 908 1752 908 1784 978 c 128,-1,134
 1816 1048 1816 1048 1838 1091 c 128,-1,135
 1860 1134 1860 1134 1879.5 1177.5 c 0,136,137
 1924.67768595 1278.28099174 1924.67768595 1278.28099174 1940 1360 c 1,138,-1
 1953 1364 l 1,0,1
725 153 m 2,139,140
 725 154 725 154 730 157 c 128,-1,141
 735 160 735 160 737 163 c 1,142,-1
 712 145 l 1,143,-1
 725 153 l 2,139,140
703 139 m 1,144,-1
 705 141 l 2,145,146
 704 140 704 140 702.5 139.5 c 128,-1,147
 701 139 701 139 703 139 c 1,144,-1
EndSplineSet
EndChar

StartChar: u
Encoding: 88 88 60
Width: 1294
Flags: W
LayerCount: 2
Fore
SplineSet
858 1464 m 1,0,1
 762 1411.88571429 762 1411.88571429 719 1391 c 1,2,-1
 710 1391 l 2,3,4
 706 1391 706 1391 701 1392 c 1,5,-1
 674 1392 l 1,6,7
 682.852941176 1383.14705882 682.852941176 1383.14705882 683.426470588 1363.07352941 c 128,-1,8
 684 1343 684 1343 688 1326 c 0,9,10
 696.595744681 1289.46808511 696.595744681 1289.46808511 710 1255 c 2,11,-1
 842 926 l 1,12,-1
 852 903 l 1,13,-1
 883 939 l 2,14,15
 910 971 910 971 935 1004.5 c 128,-1,16
 960 1038 960 1038 974.5 1056.5 c 128,-1,17
 989 1075 989 1075 996.5 1084 c 128,-1,18
 1004 1093 1004 1093 1013 1103.5 c 128,-1,19
 1022 1114 1022 1114 1030.5 1124 c 128,-1,20
 1039 1134 1039 1134 1041 1136 c 128,-1,21
 1043 1138 1043 1138 1048 1144.5 c 2,22,-1
 1076 1177 l 1,23,24
 1165.81818182 1266.81818182 1165.81818182 1266.81818182 1186 1361 c 1,25,26
 1176 1366 1176 1366 1167.5 1374 c 128,-1,27
 1159 1382 1159 1382 1142 1386 c 128,-1,28
 1125 1390 1125 1390 1100.5 1389.5 c 128,-1,29
 1076 1389 1076 1389 1052 1391 c 1,30,-1
 1209 1464 l 1,31,32
 1236 1462 1236 1462 1262.5 1462.5 c 128,-1,33
 1289 1463 1289 1463 1308 1459 c 128,-1,34
 1327 1455 1327 1455 1336 1445.5 c 128,-1,35
 1345 1436 1345 1436 1360.5 1434 c 128,-1,36
 1376 1432 1376 1432 1394.5 1441 c 128,-1,37
 1413 1450 1413 1450 1443.5 1453 c 128,-1,38
 1474 1456 1474 1456 1514 1458.5 c 128,-1,39
 1554 1461 1554 1461 1595 1465 c 1,40,41
 1543 1436.77142857 1543 1436.77142857 1454 1391 c 1,42,43
 1428 1389 1428 1389 1403 1387.5 c 128,-1,44
 1378 1386 1378 1386 1353 1384 c 1,45,46
 1329.22974473 1314.85016648 1329.22974473 1314.85016648 1243.5 1221.5 c 0,47,48
 1190.46043165 1163.74580336 1190.46043165 1163.74580336 1130.23021583 1084.87290168 c 128,-1,49
 1070 1006 1070 1006 1037.5 968 c 0,50,51
 979.490566038 900.173584906 979.490566038 900.173584906 951.745283019 881.086792453 c 128,-1,52
 924 862 924 862 904 849 c 0,53,54
 895 840 895 840 893 840 c 1,55,-1
 885 835 l 1,56,57
 896.363636364 796.363636364 896.363636364 796.363636364 890.681818182 781.181818182 c 128,-1,58
 885 766 885 766 885 765 c 2,59,-1
 891 767 l 1,60,61
 930.15 736.55 930.15 736.55 957 656 c 0,62,63
 964 635 964 635 988.5 580 c 0,64,65
 1126.71258907 269.726840855 1126.71258907 269.726840855 1131.35629454 235.363420428 c 128,-1,66
 1136 201 1136 201 1139 183 c 0,67,68
 1150.6180758 113.29154519 1150.6180758 113.29154519 1224 92.5 c 0,69,70
 1270.81528662 79.2356687898 1270.81528662 79.2356687898 1328.40764331 76.6178343949 c 128,-1,71
 1386 74 1386 74 1414 70 c 1,72,-1
 1257 -3 l 1,73,74
 1229 1 1229 1 1199 2.5 c 128,-1,75
 1169 4 1169 4 1138.5 7 c 0,76,77
 1064.42857143 14.2857142857 1064.42857143 14.2857142857 1023 35 c 1,78,79
 934.557692308 -2.90384615385 934.557692308 -2.90384615385 840.5 -1.5 c 0,80,81
 807 -1 807 -1 772 -3 c 1,82,83
 861 42.7714285714 861 42.7714285714 913 71 c 1,84,85
 927 72 927 72 941 71.5 c 128,-1,86
 955 71 955 71 969 71 c 1,87,88
 966 68 966 68 965.5 67 c 1,89,90
 976.461538462 77.2307692308 976.461538462 77.2307692308 972 75 c 1,91,92
 961.529411765 90.7058823529 961.529411765 90.7058823529 958.764705882 118.352941176 c 2,93,-1
 954.5 161 l 2,94,95
 953 176 953 176 948 188 c 2,96,-1
 813 512 l 1,97,98
 799 543 799 543 787.5 578 c 128,-1,99
 776 613 776 613 759 644 c 1,100,101
 745 627 745 627 732 609 c 128,-1,102
 719 591 719 591 697.5 564 c 128,-1,103
 676 537 676 537 647.5 502 c 128,-1,104
 619 467 619 467 590.5 430.5 c 128,-1,105
 562 394 562 394 536.5 362 c 128,-1,106
 511 330 511 330 485 295 c 256,107,108
 459 260 459 260 434 227.5 c 128,-1,109
 409 195 409 195 401.5 173 c 128,-1,110
 394 151 394 151 393 150 c 1,111,-1
 393 148 l 1,112,113
 392 125 392 125 374 104 c 1,114,-1
 383 108 l 1,115,116
 413.765285996 81.4299802761 413.765285996 81.4299802761 455.882642998 79.2149901381 c 128,-1,117
 498 77 498 77 517.5 76 c 128,-1,118
 537 75 537 75 557 70 c 1,119,-1
 388 -1 l 1,120,121
 365 4 365 4 343.5 4.5 c 128,-1,122
 322 5 322 5 301 6.5 c 0,123,124
 248.90797546 10.2208588957 248.90797546 10.2208588957 220 30 c 1,125,126
 92.6923076923 4.53846153846 92.6923076923 4.53846153846 -43 -3 c 1,127,128
 46 42.7714285714 46 42.7714285714 98 71 c 1,129,-1
 213 79 l 1,130,131
 230 136 230 136 263.5 181.5 c 128,-1,132
 297 227 297 227 343 285.5 c 128,-1,133
 389 344 389 344 444.5 412 c 128,-1,134
 500 480 500 480 532 524.5 c 128,-1,135
 564 569 564 569 577.5 587.5 c 128,-1,136
 591 606 591 606 605.5 623 c 0,137,138
 638.964200477 662.233890215 638.964200477 662.233890215 674 678 c 1,139,-1
 675 678 l 2,140,141
 676 678 676 678 676 678.5 c 128,-1,142
 676 679 676 679 677.5 680 c 128,-1,143
 679 681 679 681 685 684.5 c 0,144,145
 741.068965517 717.206896552 741.068965517 717.206896552 682 825.5 c 0,146,147
 673 842 673 842 666 859 c 2,148,-1
 534 1188 l 2,149,150
 508.666666667 1251.33333333 508.666666667 1251.33333333 506.333333333 1278.16666667 c 128,-1,151
 504 1305 504 1305 501.5 1314 c 0,152,153
 492.100775194 1347.8372093 492.100775194 1347.8372093 442.050387597 1365.91860465 c 128,-1,154
 392 1384 392 1384 362.5 1387 c 0,155,156
 323.166666667 1391 323.166666667 1391 257 1391 c 1,157,-1
 398 1465 l 1,158,159
 556.25 1465 556.25 1465 625 1432 c 1,160,161
 710.967213115 1471.40163934 710.967213115 1471.40163934 819 1466 c 1,162,-1
 845 1466 l 2,163,164
 860 1466 860 1466 864.5 1464.5 c 0,165,166
 866 1464 866 1464 865 1464 c 2,167,-1
 858 1464 l 1,0,1
972 75 m 1,168,-1
 973 74 l 1,169,-1
 970 71 l 1,170,-1
 969 71 l 1,171,-1
 972 75 l 1,168,-1
940 42 m 1,172,-1
 939.5 41 l 2,173,174
 940 41 940 41 941 42 c 1,175,-1
 940 42 l 1,172,-1
EndSplineSet
EndChar

StartChar: v
Encoding: 89 89 61
Width: 1210
Flags: W
LayerCount: 2
Fore
SplineSet
818 1465 m 1,0,1
 766 1436.77142857 766 1436.77142857 677 1391 c 1,2,-1
 628 1391 l 1,3,4
 643.536585366 1364.36585366 643.536585366 1364.36585366 644.768292683 1326.18292683 c 128,-1,5
 646 1288 646 1288 649 1274.5 c 128,-1,6
 652 1261 652 1261 656 1247.5 c 128,-1,7
 660 1234 660 1234 676.5 1176.5 c 128,-1,8
 693 1119 693 1119 724 1019 c 128,-1,9
 755 919 755 919 773.5 855 c 128,-1,10
 792 791 792 791 802.5 757 c 128,-1,11
 813 723 813 723 816 696 c 1,12,-1
 842 735 l 2,13,14
 881 795 881 795 922 852.5 c 128,-1,15
 963 910 963 910 1005 970 c 2,16,-1
 1145 1173 l 2,17,18
 1158 1192 1158 1192 1172.5 1211 c 128,-1,19
 1187 1230 1187 1230 1196 1244.5 c 128,-1,20
 1205 1259 1205 1259 1210 1273 c 128,-1,21
 1215 1287 1215 1287 1220 1302 c 0,22,23
 1230.14285714 1332.42857143 1230.14285714 1332.42857143 1243 1356 c 1,24,-1
 1241 1355 l 1,25,26
 1197.93043478 1393.28405797 1197.93043478 1393.28405797 1123 1391.5 c 0,27,28
 1102 1391 1102 1391 1079 1391 c 1,29,-1
 1220 1465 l 1,30,31
 1268 1465 1268 1465 1312 1463 c 128,-1,32
 1356 1461 1356 1461 1395 1437 c 1,33,34
 1491.25 1465 1491.25 1465 1621 1465 c 1,35,36
 1569 1436.77142857 1569 1436.77142857 1480 1391 c 1,37,38
 1462 1391 1462 1391 1444 1391 c 128,-1,39
 1426 1391 1426 1391 1408 1390 c 1,40,41
 1406 1381 1406 1381 1404 1371.5 c 0,42,43
 1401.27272727 1358.54545455 1401.27272727 1358.54545455 1397.63636364 1351.27272727 c 128,-1,44
 1394 1344 1394 1344 1394 1342.5 c 0,45,46
 1388.28571429 1323.92857143 1388.28571429 1323.92857143 1365 1289 c 0,47,48
 1285 1179 1285 1179 1209 1068 c 128,-1,49
 1133 957 1133 957 1084 887.5 c 128,-1,50
 1035 818 1035 818 1016 789 c 128,-1,51
 997 760 997 760 977 733 c 0,52,53
 930.836477987 670.679245283 930.836477987 670.679245283 878 640 c 0,54,55
 875 638 875 638 872.5 636 c 128,-1,56
 870 634 870 634 864.5 630.5 c 128,-1,57
 859 627 859 627 850.5 621 c 128,-1,58
 842 615 842 615 833 610 c 1,59,60
 826.305555556 489.5 826.305555556 489.5 799.152777778 391.75 c 128,-1,61
 772 294 772 294 768.5 268 c 128,-1,62
 765 242 765 242 765 225.5 c 128,-1,63
 765 209 765 209 764.5 192.5 c 0,64,65
 763.374501992 155.358565737 763.374501992 155.358565737 749 132 c 1,66,-1
 754 134 l 1,67,68
 769 123 769 123 782.5 107.5 c 128,-1,69
 796 92 796 92 828.5 83.5 c 128,-1,70
 861 75 861 75 910.5 74.5 c 128,-1,71
 960 74 960 74 1008 70 c 1,72,-1
 851 -3 l 1,73,74
 781 3 781 3 745 2.5 c 128,-1,75
 709 2 709 2 688.5 3.5 c 0,76,77
 654.86797066 5.9608801956 654.86797066 5.9608801956 609 42 c 1,78,79
 511.785276074 6.18404907975 511.785276074 6.18404907975 403 2 c 0,80,81
 377 1 377 1 351 0 c 1,82,-1
 330.5 0 l 2,83,84
 321 0 321 0 311 -1 c 1,85,-1
 306 -1 l 1,86,-1
 428 71 l 1,87,88
 454 74 454 74 480 74 c 128,-1,89
 506 74 506 74 532 76 c 1,90,-1
 551.5 76 l 2,91,92
 561 76 561 76 572 77 c 1,93,94
 588.416938111 103.67752443 588.416938111 103.67752443 589.708469055 155.338762215 c 128,-1,95
 591 207 591 207 601 257.5 c 128,-1,96
 611 308 611 308 631.5 391 c 128,-1,97
 652 474 652 474 656 562 c 1,98,-1
 657 562 l 1,99,100
 644.053097345 571.415929204 644.053097345 571.415929204 640.526548673 610.707964602 c 128,-1,101
 637 650 637 650 630 671 c 128,-1,102
 623 692 623 692 616.5 719 c 0,103,104
 608.00729927 754.277372263 608.00729927 754.277372263 580.003649635 842.138686131 c 0,105,106
 471.129705499 1183.73015376 471.129705499 1183.73015376 469.06485275 1219.86507688 c 128,-1,107
 467 1256 467 1256 465.5 1273.5 c 0,108,109
 457.877675841 1362.42711519 457.877675841 1362.42711519 343.5 1384.5 c 0,110,111
 309.818181818 1391 309.818181818 1391 230 1391 c 1,112,-1
 371 1465 l 1,113,114
 486.9375 1465 486.9375 1465 526.46875 1453.5 c 128,-1,115
 566 1442 566 1442 589 1427 c 1,116,117
 693.5 1465 693.5 1465 818 1465 c 1,0,1
291.5 -2 m 2,118,119
 291.738612788 -2.00455488499 291.738612788 -2.00455488499 292 -2 c 2,120,-1
 291.5 -2 l 2,118,119
299 -1 m 1,121,-1
 306 -1 l 1,122,-1
 299 -1 l 1,121,-1
EndSplineSet
EndChar

StartChar: w
Encoding: 90 90 62
Width: 1274
Flags: W
LayerCount: 2
Fore
SplineSet
822 79 m 1,0,-1
 1063 86 l 2,1,2
 1065 86 1065 86 1075.5 87 c 128,-1,3
 1086 88 1086 88 1100 89 c 1,4,5
 1102.8 96 1102.8 96 1110 108 c 0,6,7
 1167 209 1167 209 1198 319 c 1,8,-1
 1376 380 l 1,9,10
 1337.89010989 246.615384615 1337.89010989 246.615384615 1265.5 125 c 0,11,12
 1225.87655719 58.4326160815 1225.87655719 58.4326160815 1051 22 c 0,13,14
 1011.14285714 13 1011.14285714 13 926 13 c 1,15,16
 906 7 906 7 881 8.5 c 128,-1,17
 856 10 856 10 831.5 9 c 128,-1,18
 807 8 807 8 783 7.5 c 128,-1,19
 759 7 759 7 737 6.5 c 0,20,21
 671 5 671 5 613 4.5 c 128,-1,22
 555 4 555 4 469.5 1.5 c 128,-1,23
 384 -1 384 -1 332 1 c 128,-1,24
 280 3 280 3 264 3.5 c 128,-1,25
 248 4 248 4 233.5 7 c 0,26,27
 200.766467066 13.7724550898 200.766467066 13.7724550898 184.883233533 31.8862275449 c 128,-1,28
 169 50 169 50 167 62.5 c 128,-1,29
 165 75 165 75 168.5 88 c 0,30,31
 174.130434783 108.913043478 174.130434783 108.913043478 195 135 c 2,32,-1
 216 161 l 1,33,34
 220.8 163.4 220.8 163.4 228 173 c 2,35,-1
 291 245 l 1,36,37
 323 280 323 280 353.5 315 c 128,-1,38
 384 350 384 350 476.5 455.5 c 128,-1,39
 569 561 569 561 722.5 733 c 128,-1,40
 876 905 876 905 956.5 998.5 c 128,-1,41
 1037 1092 1037 1092 1046 1100.5 c 128,-1,42
 1055 1109 1055 1109 1063 1119 c 2,43,-1
 1101 1162 l 2,44,45
 1121 1184 1121 1184 1137.5 1203.5 c 128,-1,46
 1154 1223 1154 1223 1177 1247 c 128,-1,47
 1200 1271 1200 1271 1213.5 1296.5 c 0,48,49
 1245.71052632 1357.34210526 1245.71052632 1357.34210526 1179 1383 c 1,50,51
 1110 1387 1110 1387 1042 1385.5 c 128,-1,52
 974 1384 974 1384 908 1384 c 128,-1,53
 842 1384 842 1384 780 1386 c 0,54,55
 654.402061856 1390.05154639 654.402061856 1390.05154639 576 1380 c 1,56,57
 569 1367 569 1367 564 1353.5 c 128,-1,58
 559 1340 559 1340 548 1312.5 c 128,-1,59
 537 1285 537 1285 525 1242 c 128,-1,60
 513 1199 513 1199 498 1157 c 1,61,-1
 322 1103 l 1,62,63
 340 1154 340 1154 355.5 1204 c 128,-1,64
 371 1254 371 1254 385 1287 c 0,65,66
 410.48 1347.06 410.48 1347.06 422.24 1360.03 c 128,-1,67
 434 1373 434 1373 446 1381.5 c 128,-1,68
 458 1390 458 1390 471.5 1397 c 0,69,70
 604.632750397 1466.0317965 604.632750397 1466.0317965 864 1460 c 1,71,-1
 994 1458 l 2,72,73
 1071 1456 1071 1456 1147.5 1459.5 c 128,-1,74
 1224 1463 1224 1463 1269 1460.5 c 128,-1,75
 1314 1458 1314 1458 1332 1455.5 c 128,-1,76
 1350 1453 1350 1453 1365.5 1446 c 0,77,78
 1403 1429.06451613 1403 1429.06451613 1403 1403.53225806 c 128,-1,79
 1403 1378 1403 1378 1396 1362.5 c 128,-1,80
 1389 1347 1389 1347 1378.5 1332.5 c 128,-1,81
 1368 1318 1368 1318 1355.5 1305 c 128,-1,82
 1343 1292 1343 1292 1313 1256.5 c 0,83,84
 1281.20895522 1218.88059701 1281.20895522 1218.88059701 1182.60447761 1108.94029851 c 0,85,86
 1006.26358966 912.326814717 1006.26358966 912.326814717 954.131794829 852.663407358 c 128,-1,87
 902 793 902 793 856.5 741.5 c 128,-1,88
 811 690 811 690 753.5 624 c 128,-1,89
 696 558 696 558 627.5 478.5 c 128,-1,90
 559 399 559 399 512 348 c 128,-1,91
 465 297 465 297 439.5 264 c 128,-1,92
 414 231 414 231 397 216 c 128,-1,93
 380 201 380 201 369 188.5 c 128,-1,94
 358 176 358 176 351.5 161.5 c 0,95,96
 335.922630561 126.750483559 335.922630561 126.750483559 349.96131528 111.875241779 c 0,97,98
 384.607983043 75.1639992292 384.607983043 75.1639992292 404.803991522 76.0819996146 c 128,-1,99
 425 77 425 77 459.5 75 c 128,-1,100
 494 73 494 73 551.5 76 c 128,-1,101
 609 79 609 79 696 79 c 2,102,-1
 822 79 l 1,0,-1
EndSplineSet
EndChar

StartChar: x
Encoding: 91 91 63
Width: 676
Flags: W
LayerCount: 2
Fore
SplineSet
950 1449 m 1,0,1
 898 1420.77142857 898 1420.77142857 809 1375 c 1,2,3
 765 1375 765 1375 723 1372 c 1,4,5
 716 1351 716 1351 714.5 1328 c 128,-1,6
 713 1305 713 1305 703.5 1260 c 128,-1,7
 694 1215 694 1215 678 1146 c 128,-1,8
 662 1077 662 1077 647 1010 c 128,-1,9
 632 943 632 943 618.5 879.5 c 128,-1,10
 605 816 605 816 586.5 731.5 c 128,-1,11
 568 647 568 647 545.5 543 c 128,-1,12
 523 439 523 439 502 349 c 128,-1,13
 481 259 481 259 463 186.5 c 128,-1,14
 445 114 445 114 435 70.5 c 128,-1,15
 425 27 425 27 424 20 c 128,-1,16
 423 13 423 13 421.5 6 c 128,-1,17
 420 -1 420 -1 419 -10 c 128,-1,18
 418 -19 418 -19 415.5 -31.5 c 128,-1,19
 413 -44 413 -44 409.5 -65.5 c 128,-1,20
 406 -87 406 -87 402.5 -110.5 c 0,21,22
 393.683848797 -169.694158076 393.683848797 -169.694158076 402.841924399 -183.847079038 c 128,-1,23
 412 -198 412 -198 435 -205.5 c 128,-1,24
 458 -213 458 -213 485 -216 c 128,-1,25
 512 -219 512 -219 538 -218.5 c 128,-1,26
 564 -218 564 -218 579 -218 c 1,27,-1
 438 -292 l 1,28,29
 260.151515152 -292 260.151515152 -292 232.5 -255.5 c 0,30,31
 210.39497307 -226.321364452 210.39497307 -226.321364452 220.197486535 -184.660682226 c 128,-1,32
 230 -143 230 -143 238.5 -81.5 c 128,-1,33
 247 -20 247 -20 272 77 c 128,-1,34
 297 174 297 174 331 320 c 0,35,36
 376.469879518 515.253012048 376.469879518 515.253012048 439.234939759 806.626506024 c 128,-1,37
 502 1098 502 1098 514 1147 c 128,-1,38
 526 1196 526 1196 532 1229 c 128,-1,39
 538 1262 538 1262 539.5 1277 c 128,-1,40
 541 1292 541 1292 544.5 1306 c 0,41,42
 558.862745098 1363.45098039 558.862745098 1363.45098039 618 1392 c 0,43,44
 736.071428571 1449 736.071428571 1449 950 1449 c 1,0,1
EndSplineSet
EndChar

StartChar: y
Encoding: 92 92 64
Width: 799
Flags: W
LayerCount: 2
Fore
SplineSet
425 1449 m 1,0,1
 822 51 l 1,2,-1
 644 -10 l 1,3,-1
 247 1388 l 1,4,-1
 425 1449 l 1,0,1
EndSplineSet
EndChar

StartChar: z
Encoding: 93 93 65
Width: 676
Flags: W
LayerCount: 2
Fore
SplineSet
-9 -287 m 1,0,1
 80 -241.228571429 80 -241.228571429 132 -213 c 1,2,3
 180 -213 180 -213 226 -211 c 1,4,5
 237.461538462 -170.884615385 237.461538462 -170.884615385 250.230769231 -105.442307692 c 128,-1,6
 263 -40 263 -40 276 23.5 c 128,-1,7
 289 87 289 87 317.5 207.5 c 128,-1,8
 346 328 346 328 374 454.5 c 128,-1,9
 402 581 402 581 430.5 712 c 128,-1,10
 459 843 459 843 483 944.5 c 128,-1,11
 507 1046 507 1046 524 1115.5 c 128,-1,12
 541 1185 541 1185 546 1232 c 128,-1,13
 551 1279 551 1279 555 1299 c 128,-1,14
 559 1319 559 1319 557 1340 c 1,15,16
 530.902369668 1382.70521327 530.902369668 1382.70521327 403 1380.5 c 0,17,18
 374 1380 374 1380 358 1380 c 1,19,-1
 499 1454 l 1,20,21
 517 1454 517 1454 549.5 1454.5 c 128,-1,22
 582 1455 582 1455 616.5 1452 c 0,23,24
 701.870588235 1444.57647059 701.870588235 1444.57647059 726 1417 c 0,25,26
 742.755102041 1397.85131195 742.755102041 1397.85131195 733.37755102 1342.92565598 c 128,-1,27
 724 1288 724 1288 720 1256.5 c 128,-1,28
 716 1225 716 1225 703 1175 c 128,-1,29
 690 1125 690 1125 676.5 1071.5 c 128,-1,30
 663 1018 663 1018 651.5 961.5 c 128,-1,31
 640 905 640 905 629 855.5 c 0,32,33
 606.5 754.25 606.5 754.25 583.25 653.125 c 128,-1,34
 560 552 560 552 532 426 c 128,-1,35
 504 300 504 300 482.5 204.5 c 128,-1,36
 461 109 461 109 447.5 45.5 c 128,-1,37
 434 -18 434 -18 424.5 -56 c 128,-1,38
 415 -94 415 -94 413.5 -109.5 c 128,-1,39
 412 -125 412 -125 409.5 -140 c 0,40,41
 403.4 -176.6 403.4 -176.6 385.2 -194.8 c 128,-1,42
 367 -213 367 -213 340.5 -227 c 128,-1,43
 314 -241 314 -241 284 -251 c 0,44,45
 176 -287 176 -287 -9 -287 c 1,0,1
215 -240 m 1,46,47
 214 -241 214 -241 215 -241 c 1,48,-1
 215 -240 l 1,46,47
EndSplineSet
EndChar

StartChar: braceleft
Encoding: 94 94 66
Width: 1167
Flags: W
LayerCount: 2
Fore
SplineSet
253 498 m 1,0,1
 273 560 273 560 301 618.5 c 128,-1,2
 329 677 329 677 353 730 c 0,3,4
 397.524137931 828.324137931 397.524137931 828.324137931 426.262068966 900.162068966 c 128,-1,5
 455 972 455 972 476.5 1020 c 128,-1,6
 498 1068 498 1068 515 1110 c 128,-1,7
 532 1152 532 1152 543 1188.5 c 128,-1,8
 554 1225 554 1225 573 1251.5 c 128,-1,9
 592 1278 592 1278 623 1297.5 c 128,-1,10
 654 1317 654 1317 690 1331.5 c 0,11,12
 772.15061296 1364.58844133 772.15061296 1364.58844133 807.57530648 1353.29422067 c 128,-1,13
 843 1342 843 1342 859.5 1321 c 128,-1,14
 876 1300 876 1300 887.5 1274 c 128,-1,15
 899 1248 899 1248 907 1220.5 c 128,-1,16
 915 1193 915 1193 934 1147 c 128,-1,17
 953 1101 953 1101 985 1032.5 c 128,-1,18
 1017 964 1017 964 1049.5 887 c 0,19,20
 1121.14364641 717.259668508 1121.14364641 717.259668508 1177 559 c 1,21,-1
 999 498 l 1,22,23
 929.345637584 694.67114094 929.345637584 694.67114094 840.172818792 895.33557047 c 128,-1,24
 751 1096 751 1096 738 1135.5 c 128,-1,25
 725 1175 725 1175 707 1211 c 1,26,27
 704 1201 704 1201 701 1191 c 128,-1,28
 698 1181 698 1181 691.5 1165.5 c 128,-1,29
 685 1150 685 1150 675 1129 c 128,-1,30
 665 1108 665 1108 645 1062 c 128,-1,31
 625 1016 625 1016 595.5 944 c 128,-1,32
 566 872 566 872 538 805.5 c 128,-1,33
 510 739 510 739 481 680.5 c 128,-1,34
 452 622 452 622 431 559 c 1,35,-1
 253 498 l 1,0,1
EndSplineSet
EndChar

StartChar: bar
Encoding: 95 95 67
Width: 1024
Flags: W
LayerCount: 2
Fore
SplineSet
1043 -173 m 1,0,1
 991 -201.228571429 991 -201.228571429 902 -247 c 1,2,-1
 -19 -247 l 1,3,-1
 122 -173 l 1,4,-1
 1043 -173 l 1,0,1
EndSplineSet
EndChar

StartChar: Uacute
Encoding: 8216 8216 68
Width: 442
Flags: W
LayerCount: 2
Fore
SplineSet
701 1536 m 1,0,1
 579.117021277 1410.90957447 579.117021277 1410.90957447 554 1323 c 0,2,3
 532.383561644 1247.34246575 532.383561644 1247.34246575 528.691780822 1215.17123288 c 128,-1,4
 525 1183 525 1183 541 1149 c 1,5,-1
 365 1082 l 1,6,7
 345.193548387 1126.56451613 345.193548387 1126.56451613 351.596774194 1161.78225806 c 128,-1,8
 358 1197 358 1197 364 1227 c 128,-1,9
 370 1257 370 1257 387 1294 c 128,-1,10
 404 1331 404 1331 427 1365 c 0,11,12
 460.183206107 1414.05343511 460.183206107 1414.05343511 532 1491 c 1,13,-1
 701 1536 l 1,0,1
EndSplineSet
EndChar

StartChar: asciitilde
Encoding: 97 97 69
Width: 1149
Flags: W
LayerCount: 2
Fore
SplineSet
1252 257 m 1,0,1
 1145.8760857 56.5437174291 1145.8760857 56.5437174291 1009.5 5 c 0,2,3
 829.971022417 -62.8534718425 829.971022417 -62.8534718425 781 -3 c 0,4,5
 756.301229508 27.5102459016 756.301229508 27.5102459016 763.150614754 89.7551229508 c 128,-1,6
 770 152 770 152 786.5 201 c 128,-1,7
 803 250 803 250 814 301 c 1,8,-1
 818 323 l 1,9,10
 696.315692591 132.67326277 696.315692591 132.67326277 585 65.5 c 0,11,12
 538.241042345 37.2833876221 538.241042345 37.2833876221 512.120521173 26.6416938111 c 128,-1,13
 486 16 486 16 476 12 c 128,-1,14
 466 8 466 8 455.5 3.5 c 0,15,16
 411.076923077 -15.5384615385 411.076923077 -15.5384615385 421.038461538 -8.26923076923 c 128,-1,17
 431 -1 431 -1 446 6 c 1,18,19
 248.261484099 -68.1519434629 248.261484099 -68.1519434629 188.5 -6 c 0,20,21
 156.619596542 27.1556195965 156.619596542 27.1556195965 142.309798271 102.077809798 c 0,22,23
 116.808490628 235.59568234 116.808490628 235.59568234 176 420 c 0,24,25
 277.657548205 738.089747609 277.657548205 738.089747609 520.5 899.5 c 0,26,27
 685.131650396 1008.92582751 685.131650396 1008.92582751 874.5 1020 c 0,28,29
 960 1025 960 1025 1045 990 c 0,30,31
 1075.42857143 977.828571429 1075.42857143 977.828571429 1111 947 c 1,32,-1
 1147 958 l 1,33,34
 1142 950 1142 950 1138 942 c 128,-1,35
 1134 934 1134 934 1129 926 c 0,36,37
 1115.21722846 828.142322097 1115.21722846 828.142322097 1082.10861423 719.571161049 c 128,-1,38
 1049 611 1049 611 1038 572 c 128,-1,39
 1027 533 1027 533 1007 496 c 1,40,-1
 1006 495 l 1,41,42
 1017.41463415 453.146341463 1017.41463415 453.146341463 994.707317073 373.073170732 c 128,-1,43
 972 293 972 293 963.5 260 c 0,44,45
 916.66442953 78.1677852349 916.66442953 78.1677852349 973 50 c 1,46,47
 1022.44463373 100.989778535 1022.44463373 100.989778535 1076 203 c 1,48,-1
 1252 257 l 1,0,1
813 464 m 1,49,50
 823.666666667 474.666666667 823.666666667 474.666666667 849 481 c 1,51,52
 859 507 859 507 866.5 534.5 c 128,-1,53
 874 562 874 562 889 609.5 c 0,54,55
 936.211864407 759.004237288 936.211864407 759.004237288 951 864 c 1,56,-1
 949 864 l 1,57,-1
 950 867 l 1,58,59
 832.312582781 964.740397351 832.312582781 964.740397351 691 943 c 1,60,61
 600.763636364 904.327272727 600.763636364 904.327272727 500 768 c 0,62,63
 351.370160529 568.618508026 351.370160529 568.618508026 317.5 333 c 0,64,65
 301.983367983 225.058212058 301.983367983 225.058212058 334 113 c 0,66,67
 344 78 344 78 369.5 58 c 128,-1,68
 395 38 395 38 422 40 c 1,69,-1
 430 40 l 1,70,-1
 450 46 l 1,71,-1
 469 60 l 1,72,73
 548.065088757 125.887573964 548.065088757 125.887573964 637.5 259 c 0,74,75
 659 291 659 291 673.5 317.5 c 0,76,77
 705.846153846 376.615384615 705.846153846 376.615384615 727.923076923 402.307692308 c 0,78,79
 753.586164987 432.173446361 753.586164987 432.173446361 776.793082493 444.58672318 c 128,-1,80
 800 457 800 457 802.5 458.5 c 128,-1,81
 805 460 805 460 813 464 c 1,49,50
817 465 m 2,82,83
 818 465 818 465 820 467 c 2,84,-1
 817 465 l 2,82,83
821 468 m 2,85,-1
 817 466 l 2,86,87
 819 466 819 466 821 468 c 2,85,-1
812 462 m 1,88,-1
 811 462 l 1,89,-1
 812 462 l 1,88,-1
EndSplineSet
EndChar

StartChar: Adieresis
Encoding: 98 98 70
Width: 1145
Flags: W
LayerCount: 2
Fore
SplineSet
464 1400 m 1,0,1
 446.714285714 1400 446.714285714 1400 451 1410 c 1,2,3
 403.857142857 1443 403.857142857 1443 339.5 1443 c 2,4,-1
 296 1443 l 1,5,6
 293 1442 293 1442 289.5 1442 c 2,7,-1
 283 1442 l 1,8,9
 271 1441 271 1441 268 1441 c 2,10,-1
 254 1441 l 1,11,12
 343 1486.77142857 343 1486.77142857 395 1515 c 1,13,-1
 490.5 1519 l 1,14,15
 557.6 1519 557.6 1519 608 1491 c 1,16,-1
 703 1512 l 1,17,18
 688 1498 688 1498 672.5 1485.5 c 128,-1,19
 657 1473 657 1473 642 1460 c 1,20,21
 638.175066313 1364.37665782 638.175066313 1364.37665782 605.587533156 1232.18832891 c 128,-1,22
 573 1100 573 1100 556.5 1030.5 c 128,-1,23
 540 961 540 961 526.5 904.5 c 0,24,25
 501.591549296 800.253521127 501.591549296 800.253521127 487 720 c 1,26,-1
 484 699 l 1,27,-1
 526 755 l 1,28,29
 670.838505245 944.855878497 670.838505245 944.855878497 915 1009 c 0,30,31
 1024.46153846 1037.55518395 1024.46153846 1037.55518395 1069.73076923 1023.77759197 c 128,-1,32
 1115 1010 1115 1010 1140 981 c 128,-1,33
 1165 952 1165 952 1181 881 c 0,34,35
 1221.10770298 703.022068008 1221.10770298 703.022068008 1082.5 386.5 c 0,36,37
 967.814523185 124.606299213 967.814523185 124.606299213 752 31 c 0,38,39
 498.723127036 -77.5472312704 498.723127036 -77.5472312704 364 -1 c 0,40,41
 331 17 331 17 316.5 37.5 c 128,-1,42
 302 58 302 58 290 84 c 1,43,44
 285 69 285 69 276 52 c 1,45,-1
 100 -2 l 1,46,47
 109 16 109 16 116 34 c 128,-1,48
 123 52 123 52 130 70 c 0,49,50
 158.449541284 143.155963303 158.449541284 143.155963303 195 166 c 0,51,52
 200 169 200 169 208 174 c 2,53,-1
 231 187 l 1,54,-1
 229 187 l 1,55,-1
 201 170 l 2,56,57
 201 171 201 171 201.5 171 c 128,-1,58
 202 171 202 171 202 172 c 2,59,-1
 219.5 184.5 l 2,60,61
 224 188 224 188 229 190 c 1,62,63
 233 278 233 278 252.5 360.5 c 128,-1,64
 272 443 272 443 289 528 c 1,65,-1
 297 531 l 1,66,67
 289.64 560.44 289.64 560.44 301.32 623.22 c 128,-1,68
 313 686 313 686 317 706.5 c 128,-1,69
 321 727 321 727 329 761 c 128,-1,70
 337 795 337 795 347 838.5 c 0,71,72
 360.943661972 899.154929577 360.943661972 899.154929577 388.971830986 1013.57746479 c 128,-1,73
 417 1128 417 1128 438.5 1217 c 128,-1,74
 460 1306 460 1306 464 1400 c 1,0,1
392 243 m 1,75,76
 394 242 394 242 404 240.5 c 128,-1,77
 414 239 414 239 425.5 224.5 c 128,-1,78
 437 210 437 210 446 191.5 c 128,-1,79
 455 173 455 173 462.5 154 c 0,80,81
 492.368006304 78.3343840294 492.368006304 78.3343840294 559.684003152 57.6671920147 c 128,-1,82
 627 37 627 37 687 46 c 1,83,84
 799.033519553 102.016759777 799.033519553 102.016759777 899.5 310 c 0,85,86
 1017.69019837 554.674445741 1017.69019837 554.674445741 1010.5 756 c 0,87,88
 1007.08939527 851.496932515 1007.08939527 851.496932515 976.544697634 896.248466258 c 128,-1,89
 946 941 946 941 920 948 c 128,-1,90
 894 955 894 955 883 953.5 c 128,-1,91
 872 952 872 952 856 950 c 1,92,93
 752.052863436 901.083700441 752.052863436 901.083700441 632 711 c 0,94,95
 618 691 618 691 605 667 c 128,-1,96
 592 643 592 643 570.5 623 c 0,97,98
 532.689655172 587.827586207 532.689655172 587.827586207 460 555 c 1,99,100
 443 479 443 479 426.5 403 c 128,-1,101
 410 327 410 327 407 248 c 1,102,-1
 392 243 l 1,75,76
200 170 m 1,103,-1
 201 170 l 1,104,-1
 200 170 l 1,103,-1
EndSplineSet
EndChar

StartChar: Aring
Encoding: 99 99 71
Width: 903
Flags: W
LayerCount: 2
Fore
SplineSet
959 281 m 1,0,1
 854.46875 127.6875 854.46875 127.6875 728 60 c 0,2,3
 606.257713249 -5.94373865699 606.257713249 -5.94373865699 471.5 -26.5 c 0,4,5
 442 -31 442 -31 388.5 -31 c 128,-1,6
 335 -31 335 -31 286.5 2.5 c 128,-1,7
 238 36 238 36 211.5 88.5 c 0,8,9
 140.320124944 229.516733601 140.320124944 229.516733601 192.5 482 c 0,10,11
 266.931903945 842.154373928 266.931903945 842.154373928 559 978 c 0,12,13
 797.653120464 1089.00145138 797.653120464 1089.00145138 915 1006 c 0,14,15
 945.724137931 985.517241379 945.724137931 985.517241379 965.862068966 947.75862069 c 128,-1,16
 986 910 986 910 995 895 c 1,17,-1
 819 828 l 1,18,19
 806 848 806 848 795 867 c 128,-1,20
 784 886 784 886 771.5 903.5 c 0,21,22
 718.220532319 978.091254753 718.220532319 978.091254753 636 966 c 1,23,24
 492.859948677 880.487761548 492.859948677 880.487761548 413.5 686 c 0,25,26
 343.425804484 514.26887296 343.425804484 514.26887296 350 328 c 0,27,28
 354.638324091 198.126925447 354.638324091 198.126925447 412.5 117.5 c 0,29,30
 482.278715459 20.2673637043 482.278715459 20.2673637043 608 48 c 1,31,32
 691.5 89.75 691.5 89.75 783 227 c 1,33,-1
 959 281 l 1,0,1
EndSplineSet
EndChar

StartChar: Ccedilla
Encoding: 100 100 72
Width: 1202
Flags: W
LayerCount: 2
Fore
SplineSet
1092 1385 m 1,0,1
 1077 1393 1077 1393 1063 1403.5 c 128,-1,2
 1049 1414 1049 1414 1022 1418 c 128,-1,3
 995 1422 995 1422 955.5 1419.5 c 128,-1,4
 916 1417 916 1417 878 1418 c 1,5,-1
 1035 1491 l 1,6,7
 1077 1491 1077 1491 1117.5 1494 c 128,-1,8
 1158 1497 1158 1497 1184 1492 c 0,9,10
 1240.8372093 1481.06976744 1240.8372093 1481.06976744 1262 1472 c 1,11,-1
 1319 1485 l 1,12,-1
 1266 1443 l 1,13,14
 1262.27027027 1359.08108108 1262.27027027 1359.08108108 1234.13513514 1246.54054054 c 128,-1,15
 1206 1134 1206 1134 1197.5 1092.5 c 128,-1,16
 1189 1051 1189 1051 1183 1010.5 c 128,-1,17
 1177 970 1177 970 1165.5 952.5 c 128,-1,18
 1154 935 1154 935 1154 935 c 1,19,-1
 1151 932 l 1,20,21
 1138.2900097 819.728419011 1138.2900097 819.728419011 1100.64500485 695.864209505 c 128,-1,22
 1063 572 1063 572 1050 521 c 1,23,-1
 1040 518 l 1,24,25
 1052.83478261 506.591304348 1052.83478261 506.591304348 1047.9173913 470.295652174 c 0,26,27
 1034.21057367 369.124552572 1034.21057367 369.124552572 1019.10528683 321.062276286 c 128,-1,28
 1004 273 1004 273 999 254.5 c 0,29,30
 973.423423423 159.866666667 973.423423423 159.866666667 978.211711712 124.433333333 c 0,31,32
 986.695286195 61.6548821549 986.695286195 61.6548821549 1015 50 c 1,33,34
 1048 84 1048 84 1071 124 c 128,-1,35
 1094 164 1094 164 1122 202 c 1,36,-1
 1298 256 l 1,37,38
 1284 239 1284 239 1273 219 c 128,-1,39
 1262 199 1262 199 1233.5 154.5 c 128,-1,40
 1205 110 1205 110 1143 60 c 0,41,42
 1078.28467153 7.8102189781 1078.28467153 7.8102189781 956.5 -24.5 c 0,43,44
 858.674067496 -50.4538188277 858.674067496 -50.4538188277 822 -4 c 0,45,46
 775.315855181 56.0224719101 775.315855181 56.0224719101 831 229.5 c 0,47,48
 844 270 844 270 850 298 c 2,49,-1
 856 326 l 1,50,51
 814 260 814 260 766.5 197 c 128,-1,52
 719 134 719 134 665 95.5 c 0,53,54
 561.648351648 21.8141025641 561.648351648 21.8141025641 444 -12.5 c 0,55,56
 432 -16 432 -16 419 -18 c 2,57,-1
 389 -24 l 2,58,59
 380 -26 380 -26 376.5 -26.5 c 128,-1,60
 373 -27 373 -27 369.5 -28 c 128,-1,61
 366 -29 366 -29 361 -29.5 c 128,-1,62
 356 -30 356 -30 328.5 -34.5 c 0,63,64
 244.05966899 -48.3175087108 244.05966899 -48.3175087108 196 13 c 0,65,66
 89.5555555556 147.620915033 89.5555555556 147.620915033 205 460 c 0,67,68
 362.389105058 892.820038911 362.389105058 892.820038911 736 997 c 0,69,70
 889.4743083 1040.84980237 889.4743083 1040.84980237 1015 1009 c 1,71,72
 1016 1014 1016 1014 1016.5 1019 c 128,-1,73
 1017 1024 1017 1024 1022.5 1049 c 128,-1,74
 1028 1074 1028 1074 1039 1117.5 c 128,-1,75
 1050 1161 1050 1161 1060.5 1205 c 0,76,77
 1084.61012658 1306.03291139 1084.61012658 1306.03291139 1088 1384 c 1,78,-1
 1092 1385 l 1,0,1
879 487 m 1,79,80
 906 582 906 582 934 677.5 c 128,-1,81
 962 773 962 773 973 872 c 1,82,83
 880.518604651 947.966860465 880.518604651 947.966860465 764 949.5 c 0,84,85
 695.183884298 950.405475207 695.183884298 950.405475207 666.091942149 930.202737603 c 128,-1,86
 637 910 637 910 620.5 895 c 0,87,88
 496.090382387 781.900347625 496.090382387 781.900347625 412 595.5 c 0,89,90
 325.744213955 404.299674267 325.744213955 404.299674267 327.5 237.5 c 0,91,92
 328.629800925 130.168912125 328.629800925 130.168912125 377.5 73 c 0,93,94
 404 42 404 42 453 38 c 1,95,96
 475 40.75 475 40.75 484 43 c 0,97,98
 549 87 549 87 596.5 150.5 c 128,-1,99
 644 214 644 214 672.5 260 c 128,-1,100
 701 306 701 306 716.5 332.5 c 128,-1,101
 732 359 732 359 749 383 c 0,102,103
 793.805479452 446.254794521 793.805479452 446.254794521 879 487 c 1,79,80
EndSplineSet
EndChar

StartChar: Eacute
Encoding: 101 101 73
Width: 888
Flags: W
LayerCount: 2
Fore
SplineSet
148 436 m 1,0,1
 151.18018018 505.963963964 151.18018018 505.963963964 191 602 c 0,2,3
 248 747 248 747 351 852 c 0,4,5
 472.189972145 975.543175487 472.189972145 975.543175487 670 1020.5 c 0,6,7
 784.773584906 1046.58490566 784.773584906 1046.58490566 869 1015 c 0,8,9
 931.556074766 992.252336449 931.556074766 992.252336449 955.5 917 c 0,10,11
 1006.37209302 757.11627907 1006.37209302 757.11627907 838 614 c 0,12,13
 739.31147541 530.114754098 739.31147541 530.114754098 511 446 c 0,14,15
 468.5 429 468.5 429 461.25 429 c 128,-1,16
 454 429 454 429 439 423 c 0,17,18
 372.170731707 396.268292683 372.170731707 396.268292683 311 385 c 1,19,20
 306.663176265 189.842931937 306.663176265 189.842931937 383 97.5 c 0,21,22
 442.715195632 25.2638762511 442.715195632 25.2638762511 571 45 c 0,23,24
 596.333333333 51.3333333333 596.333333333 51.3333333333 624 79 c 1,25,26
 688.017421603 129.540069686 688.017421603 129.540069686 754 216 c 1,27,-1
 930 270 l 1,28,29
 742.958261724 28.2143383256 742.958261724 28.2143383256 448 -27.5 c 0,30,31
 196.336810536 -75.0363802321 196.336810536 -75.0363802321 144.5 175 c 0,32,33
 129.353080569 248.061611374 129.353080569 248.061611374 132.676540284 307.030805687 c 0,34,35
 138.520454008 410.721210688 138.520454008 410.721210688 148 436 c 1,0,1
364 458 m 1,36,37
 380 450 380 450 395 453 c 1,38,-1
 399.5 453 l 2,39,40
 402 453 402 453 405 454 c 1,41,-1
 406 454 l 1,42,-1
 414 455 l 1,43,44
 426 459 426 459 437.5 463 c 0,45,46
 475.538461538 476.230769231 475.538461538 476.230769231 510 487 c 1,47,-1
 538 497 l 2,48,49
 555 504 555 504 571.5 510.5 c 128,-1,50
 588 517 588 517 624 537 c 128,-1,51
 660 557 660 557 703.5 600.5 c 128,-1,52
 747 644 747 644 766.5 689 c 0,53,54
 797.670926518 760.932907348 797.670926518 760.932907348 781.835463259 830.966453674 c 128,-1,55
 766 901 766 901 717 935.5 c 128,-1,56
 668 970 668 970 589 956 c 1,57,58
 492.21758135 895.994900437 492.21758135 895.994900437 412 754.5 c 0,59,60
 334.147593583 617.177005348 334.147593583 617.177005348 326 497 c 1,61,62
 334 489 334 489 341.5 480 c 0,63,64
 351.777777778 467.666666667 351.777777778 467.666666667 366 457 c 1,65,-1
 366 456 l 1,66,-1
 364 458 l 1,36,37
364 459 m 1,67,-1
 364 458 l 2,68,69
 364 459 364 459 364 459 c 1,67,-1
EndSplineSet
EndChar

StartChar: Ntilde
Encoding: 102 102 74
Width: 645
Flags: W
LayerCount: 2
Fore
SplineSet
296.5 934 m 2,0,1
 291 934 291 934 255 931 c 1,2,-1
 249 931 l 1,3,-1
 269 934 l 2,4,5
 267 934 267 934 255 932.5 c 0,6,7
 219 928 219 928 211 928 c 1,8,-1
 352 1002 l 1,9,10
 363.5 1002 363.5 1002 444 1009 c 1,11,12
 441.865470852 1043.15246637 441.865470852 1043.15246637 456.932735426 1082.07623318 c 128,-1,13
 472 1121 472 1121 481 1150 c 128,-1,14
 490 1179 490 1179 504.5 1222 c 128,-1,15
 519 1265 519 1265 539 1305.5 c 0,16,17
 604.906525175 1438.96071348 604.906525175 1438.96071348 708.5 1482.5 c 0,18,19
 809.376296296 1524.89728395 809.376296296 1524.89728395 862.188148148 1530.94864198 c 128,-1,20
 915 1537 915 1537 958.5 1526 c 0,21,22
 1054.53188011 1501.71607629 1054.53188011 1501.71607629 1098 1411 c 1,23,-1
 922 1344 l 1,24,25
 882.60687795 1424.7559002 882.60687795 1424.7559002 802 1451 c 1,26,-1
 778 1457 l 1,27,28
 725.080745342 1388.20496894 725.080745342 1388.20496894 705.040372671 1338.10248447 c 128,-1,29
 685 1288 685 1288 674 1254 c 128,-1,30
 663 1220 663 1220 653.5 1192.5 c 128,-1,31
 644 1165 644 1165 636.5 1144.5 c 128,-1,32
 629 1124 629 1124 626 1104 c 0,33,34
 616.484 1040.56 616.484 1040.56 643.5 1016 c 0,35,36
 649 1011 649 1011 657 1005 c 1,37,-1
 679 1000 l 1,38,-1
 687 1000 l 1,39,-1
 702 1001 l 1,40,41
 746.644104803 1014.58733624 746.644104803 1014.58733624 808.322052402 1008.29366812 c 128,-1,42
 870 1002 870 1002 894 1002 c 1,43,-1
 753 928 l 1,44,-1
 589 928 l 1,45,-1
 578 860 l 1,46,47
 565.512195122 796 565.512195122 796 534.756097561 659 c 128,-1,48
 504 522 504 522 472.5 344.5 c 128,-1,49
 441 167 441 167 414.5 52.5 c 128,-1,50
 388 -62 388 -62 372 -114 c 128,-1,51
 356 -166 356 -166 347.5 -208.5 c 0,52,53
 303.212121212 -429.939393939 303.212121212 -429.939393939 196 -478 c 0,54,55
 167 -491 167 -491 132.5 -506.5 c 128,-1,56
 98 -522 98 -522 58 -528.5 c 128,-1,57
 18 -535 18 -535 -19.5 -528 c 0,58,59
 -100.865647627 -512.811745776 -100.865647627 -512.811745776 -150 -441 c 1,60,-1
 26 -374 l 1,61,62
 65.6666666667 -427.666666667 65.6666666667 -427.666666667 109 -446 c 1,63,64
 149.481865285 -377.492227979 149.481865285 -377.492227979 183.740932642 -234.74611399 c 128,-1,65
 218 -92 218 -92 246.5 42.5 c 128,-1,66
 275 177 275 177 308 358 c 128,-1,67
 341 539 341 539 367 648 c 128,-1,68
 393 757 393 757 397.5 797.5 c 128,-1,69
 402 838 402 838 410 878 c 1,70,71
 392 896 392 896 374.5 914 c 128,-1,72
 357 932 357 932 329 934 c 1,73,-1
 296.5 934 l 2,0,1
812 1486 m 2,74,75
 814 1487 814 1487 810.5 1486 c 128,-1,76
 807 1485 807 1485 805 1483 c 1,77,-1
 812 1486 l 2,74,75
EndSplineSet
EndChar

StartChar: Odieresis
Encoding: 103 103 75
Width: 1022
Flags: W
LayerCount: 2
Fore
SplineSet
1088 938 m 1,0,1
 1095 945 1095 945 1103 951 c 1,2,-1
 1104 951 l 1,3,4
 1105 953 1105 953 1111 958 c 128,-1,5
 1117 963 1117 963 1122 967.5 c 0,6,7
 1130.18181818 974.863636364 1130.18181818 974.863636364 1148 986 c 1,8,-1
 1287 1010 l 1,9,-1
 1293.5 1015 l 2,10,11
 1290 1012 1290 1012 1280 1002.5 c 128,-1,12
 1270 993 1270 993 1259 984 c 128,-1,13
 1248 975 1248 975 1229 959 c 0,14,15
 1167.26739927 907.014652015 1167.26739927 907.014652015 1020 875 c 1,16,17
 1055.04372898 604.662662182 1055.04372898 604.662662182 932 478 c 0,18,19
 846.613850416 390.102493075 846.613850416 390.102493075 686.5 345 c 0,20,21
 610.57803081 323.613529806 610.57803081 323.613529806 563.789015405 325.806764903 c 128,-1,22
 517 328 517 328 485 330 c 1,23,24
 448.75 293.75 448.75 293.75 435.875 263.875 c 0,25,26
 409.653091448 203.029988893 409.653091448 203.029988893 445 176 c 0,27,28
 462 163 462 163 481.5 152.5 c 0,29,30
 531.277419355 125.696774194 531.277419355 125.696774194 534 108 c 1,31,-1
 537 110 l 1,32,33
 549.857142857 105.714285714 549.857142857 105.714285714 571.928571429 102.857142857 c 128,-1,34
 594 100 594 100 604 98 c 1,35,-1
 611 98 l 1,36,-1
 615 97 l 1,37,-1
 618 97 l 2,38,39
 633 97 633 97 638 95.5 c 128,-1,40
 643 94 643 94 653.5 91.5 c 128,-1,41
 664 89 664 89 674 86.5 c 0,42,43
 866.24 38.44 866.24 38.44 934 -39 c 0,44,45
 1009.8005127 -122.57492426 1009.8005127 -122.57492426 999 -229.5 c 0,46,47
 988.974029942 -328.757103575 988.974029942 -328.757103575 910 -412 c 0,48,49
 842.240677966 -483.523728814 842.240677966 -483.523728814 691 -530.5 c 0,50,51
 547.313375796 -575.129936306 547.313375796 -575.129936306 442 -571 c 0,52,53
 335.631578947 -566.052631579 335.631578947 -566.052631579 281.815789474 -544.526315789 c 0,54,55
 180.157894737 -503.863157895 180.157894737 -503.863157895 138.078947368 -454.431578947 c 128,-1,56
 96 -405 96 -405 81 -359.5 c 128,-1,57
 66 -314 66 -314 70 -269 c 0,58,59
 77.8855585831 -180.28746594 77.8855585831 -180.28746594 153 -101 c 0,60,61
 194 -60 194 -60 231.5 -41.5 c 128,-1,62
 269 -23 269 -23 273 -20.5 c 128,-1,63
 277 -18 277 -18 281.5 -16.5 c 128,-1,64
 286 -15 286 -15 291 -12.5 c 128,-1,65
 296 -10 296 -10 300 -9 c 128,-1,66
 304 -8 304 -8 307 -5 c 1,67,68
 320.214285714 0.285714285714 320.214285714 0.285714285714 329.107142857 12.1428571429 c 128,-1,69
 338 24 338 24 349 31 c 0,70,71
 371.3 53.3 371.3 53.3 323 74 c 0,72,73
 241.129032258 114.935483871 241.129032258 114.935483871 244 158 c 0,74,75
 247.920245399 228.564417178 247.920245399 228.564417178 337.5 304 c 0,76,77
 347 312 347 312 353 318 c 128,-1,78
 359 324 359 324 362.5 327 c 0,79,80
 397 363 397 363 377 343 c 2,81,-1
 378 344 l 1,82,83
 369.815384615 364.461538462 369.815384615 364.461538462 345.407692308 383.730769231 c 128,-1,84
 321 403 321 403 310.5 414.5 c 128,-1,85
 300 426 300 426 288.5 451 c 128,-1,86
 277 476 277 476 269.5 504 c 0,87,88
 240.02247191 614.049438202 240.02247191 614.049438202 295 735 c 0,89,90
 342.523364486 839.551401869 342.523364486 839.551401869 451 903 c 0,91,92
 644.959718026 1016.44813696 644.959718026 1016.44813696 806.5 996 c 0,93,94
 901.632038065 983.957969865 901.632038065 983.957969865 933.816019033 958.478984933 c 128,-1,95
 966 933 966 933 989 914 c 1,96,97
 1017.67532468 923.974025974 1017.67532468 923.974025974 1085 938 c 1,98,-1
 1088 938 l 1,0,1
457 24 m 1,99,100
 439.052631579 10.9473684211 439.052631579 10.9473684211 411 -2 c 2,101,-1
 385 -14 l 2,102,103
 383 -15 383 -15 379 -16.5 c 0,104,105
 373.545454545 -18.5454545455 373.545454545 -18.5454545455 364 -24 c 1,106,-1
 366 -22 l 1,107,108
 291.6 -65.4 291.6 -65.4 258 -151.5 c 0,109,110
 239.92 -197.83 239.92 -197.83 245.46 -226.415 c 0,111,112
 258.519511367 -293.798778419 258.519511367 -293.798778419 275.259755684 -333.899389209 c 128,-1,113
 292 -374 292 -374 341 -413.5 c 128,-1,114
 390 -453 390 -453 450.5 -474 c 0,115,116
 573.305528376 -516.626712329 573.305528376 -516.626712329 698 -486 c 0,117,118
 729.470588235 -479.705882353 729.470588235 -479.705882353 761.235294118 -436.352941176 c 128,-1,119
 793 -393 793 -393 805.5 -358 c 128,-1,120
 818 -323 818 -323 820.5 -286.5 c 0,121,122
 825.705235941 -210.503555268 825.705235941 -210.503555268 794.35261797 -158.751777634 c 128,-1,123
 763 -107 763 -107 726.5 -79.5 c 128,-1,124
 690 -52 690 -52 648 -33 c 0,125,126
 590.856338028 -7.14929577465 590.856338028 -7.14929577465 473 23 c 1,127,-1
 457 24 l 1,99,100
729 401 m 1,128,129
 886.483221477 511.238255034 886.483221477 511.238255034 840 825 c 1,130,131
 740.684210526 927 740.684210526 927 605 927 c 0,132,133
 600 926 600 926 594 925 c 128,-1,134
 588 924 588 924 578.5 919.5 c 0,135,136
 559.5 910.5 559.5 910.5 525.75 876.25 c 0,137,138
 457.023446659 806.505275498 457.023446659 806.505275498 438 667 c 0,139,140
 427.95229983 600.015332198 427.95229983 600.015332198 465 517.5 c 0,141,142
 481.298969072 481.197750703 481.298969072 481.197750703 509.149484536 460.098875351 c 0,143,144
 540.118110236 436.637795276 540.118110236 436.637795276 555 409 c 1,145,-1
 556 409 l 2,146,147
 579 409 579 409 606 406.5 c 0,148,149
 691.029850746 398.626865672 691.029850746 398.626865672 729 401 c 1,128,129
270 -24 m 0,150,151
 269 -25 269 -25 271 -24 c 128,-1,152
 273 -23 273 -23 274 -22 c 1,153,154
 272 -22 272 -22 270 -24 c 0,150,151
1151 949 m 256,155,156
 1150 949 1150 949 1149 948 c 1,157,158
 1151 948 1151 948 1151.5 948.5 c 128,-1,159
 1152 949 1152 949 1151 949 c 256,155,156
377 343 m 2,160,-1
 376 341 l 2,161,162
 376 342 376 342 377 343 c 2,160,-1
EndSplineSet
EndChar

